<ttFont>
          <CharString index="0">
            -107 callgsubr
            endchar
          </CharString>
          <CharString index="1">
            rmoveto
            -106 callgsubr
            return
          </CharString>
          <CharString index="2">
            -12 -74 -10 -64 -17 vvcurveto
            -52 33 -21 25 54 13 -101 callgsubr
            endchar
          </CharString>
          <CharString index="3">
            vvcurveto
            -52 33 -21 25 54 13 -105 callgsubr
            return
          </CharString>
          <CharString index="4">
            -269 63 662 rmoveto
            -76 callsubr
            return
          </CharString>
          <CharString index="5">
            vvcurveto
            78 -48 70 -81 -152 -98 -128 -146 -96 callgsubr
            return
          </CharString>
          <CharString index="6">
            hlineto
            156 callsubr
            -106 -86 -70 hvcurveto
            -82 -1 48 -48 hhcurveto
            -17 -13 -27 -35 hvcurveto
            205 callsubr
            -55 182 -227 54 23 -16 callsubr
            return
          </CharString>
          <CharString index="7">
            554 -100 callgsubr
            return
          </CharString>
          <CharString index="8">
            35 24 -105 callgsubr
            return
          </CharString>
          <CharString index="9">
            rmoveto
            -22 -25 56 19 19 21 11 39 11 13 -1 -2 14 hvcurveto
            -59 -11 -17 -43 -23 hhcurveto
            -172 456 rmoveto
            -88 callsubr
            return
          </CharString>
          <CharString index="10">
            -97 callgsubr
            36 100 95 50 56 vhcurveto
            11 10 12 10 12 11 -7 -50 rcurveline
            -15 -105 -20 -115 -23 -104 callsubr
            19 callsubr
          </CharString>
          <CharString index="11">
            199 callsubr
            72 -3 hvcurveto
            -7 -30 -6 -31 -6 -31 -50 -33 -53 -23 -58 -19 rrcurveto
            24 36 14 37 35 vvcurveto
            86 -54 66 -96 -71 -75 -65 -73 -25 48 -49 16 11 14 8 4 7 vhcurveto
            11 7 0 11 19 vvcurveto
            24 20 15 27 21 12 -13 -20 -41 -39 -46 -59 -36 vhcurveto
            1 -12 -12 1 -12 hhcurveto
            -71 -47 -8 -34 -32 55 -54 27 36 39 12 19 36 hvcurveto
            12 -9 6 -12 -14 vvcurveto
            -70 -111 -40 -101 -138 -18 52 110 21 -2 18 -7 11 vhcurveto
            8 -5 -9 5 -13 hhcurveto
            -58 -29 -58 -55 -143 112 -75 175 184 142 83 119 26 -6 21 -11 18 hvcurveto
            47 9 47 11 46 16 rrcurveto
            -26 -115 -19 -95 -53 -54 callsubr
            69 hlineto
            return
          </CharString>
          <CharString index="12">
            6 35 10 30 11 26 rrcurveto
            75 25 65 44 50 vvcurveto
            41 -30 37 -42 -50 -50 -43 -63 -38 vhcurveto
            -2 -14 -16 -1 -18 hhcurveto
            -48 -42 11 25 62 117 139 50 hvcurveto
            52 2 -47 26 hhcurveto
            24 25 20 28 6 hvcurveto
            2 9 1 11 12 vvcurveto
            66 15 48 13 35 vhcurveto
            152 -107 callsubr
          </CharString>
          <CharString index="13">
            -10 -62 -8 -51 -14 vvcurveto
            -52 33 -21 25 52 14 144 149 32 vhcurveto
            45 69 69 38 25 hhcurveto
            5 2 -12 -19 -51 -27 -100 -40 -26 hvcurveto
            -22 -14 -27 11 -26 vvcurveto
            -33 53 -46 34 101 47 209 109 72 -40 47 -73 -33 -54 -21 -31 -57 vhcurveto
            9 45 8 41 2 26 rrcurveto
            336 -107 callsubr
          </CharString>
          <CharString index="14">
            -92 callgsubr
            213 callsubr
            return
          </CharString>
          <CharString index="15">
            -39 28 -82 -195 hhcurveto
            -83 -56 13 31 45 147 141 49 176 callgsubr
            8 1 9 10 vvcurveto
            22 3 20 4 19 vhcurveto
            8 38 15 32 11 25 rrcurveto
            9 callgsubr
          </CharString>
          <CharString index="16">
            -93 callsubr
            3 vhcurveto
            return
          </CharString>
          <CharString index="17">
            -29 15 35 -32 26 16 26 38 36 hhcurveto
            21 13 -16 -27 return
          </CharString>
          <CharString index="18">
            108 -106 callsubr
            return
          </CharString>
          <CharString index="19">
            -106 callgsubr
            -93 callgsubr
            return
          </CharString>
          <CharString index="20">
            rmoveto
            -16 -28 36 23 18 30 12 46 8 hvcurveto
            -56 -7 -11 -41 -14 hhcurveto
            -98 501 -7 callgsubr
            -38 -2 -77 -5 -76 vhcurveto
            -116 -14 -83 -35 -81 -11 callsubr
            return
          </CharString>
          <CharString index="21">
            -48 -34 -23 -29 -42 45 -14 83 hvcurveto
            181 callgsubr
            33 -25 -30 25 -48 hhcurveto
            -41 -35 -21 -46 -54 48 -30 59 -10 hvcurveto
            -91 64 90 -66 98 hhcurveto
            return
          </CharString>
          <CharString index="22">
            160 -107 callgsubr
            return
          </CharString>
          <CharString index="23">
            rmoveto
            -27 -45 55 27 33 38 14 54 5 hvcurveto
            2 -26 4 -29 -21 vvcurveto
            -33 -7 -25 -19 vhcurveto
            return
          </CharString>
          <CharString index="24">
            -92 52 -62 88 126 156 67 105 vhcurveto
            3 vlineto
            29 4 32 8 30 14 rrcurveto
            -16 -92 -23 -80 -32 callsubr
            56 -107 callsubr
          </CharString>
          <CharString index="25">
            -11 -49 -9 -40 -15 165 callsubr
            134 119 27 vhcurveto
            60 80 69 53 30 hhcurveto
            10 5 -4 -9 hvcurveto
            -118 -126 -72 80 callgsubr
            147 92 63 -65 79 -67 -35 -47 -24 -33 -50 vhcurveto
            12 58 9 58 3 34 33 callsubr
          </CharString>
          <CharString index="26">
            -53 callgsubr
            31 66 22 33 79 45 callsubr
            42 28 94 100 24 vhcurveto
            return
          </CharString>
          <CharString index="27">
            70 callgsubr
            -499 108 rmoveto
            -71 callgsubr
            return
          </CharString>
          <CharString index="28">
            -100 callsubr
            -306 hmoveto
            -90 callsubr
            return
          </CharString>
          <CharString index="29">
            rmoveto
            79 52 95 39 31 26 -57 -100 22 vhcurveto
            -43 -49 -64 -32 -38 hhcurveto
            -14 -5 34 24 hvcurveto
            return
          </CharString>
          <CharString index="30">
            hlineto
            -76 callsubr
            return
          </CharString>
          <CharString index="31">
            -106 callgsubr
            -104 callgsubr
            return
          </CharString>
          <CharString index="32">
            -59 48 46 -66 36 hhcurveto
            27 20 14 25 21 -33 63 -55 75 hvcurveto
            -14 18 rlineto
            160 22 102 129 126 vvcurveto
            return
          </CharString>
          <CharString index="33">
            -45 callsubr
            43 57 -6 -10 50 vhcurveto
            -15 -100 -6 -79 -48 vvcurveto
            -24 46 -38 26 34 14 180 133 29 vhcurveto
            21 93 29 105 8 44 rrcurveto
            return
          </CharString>
          <CharString index="34">
            rmoveto
            34 11 -55 77 -34 hhcurveto
            -16 -6 -7 -19 -6 hvcurveto
            -184 -57 -136 -187 -45 hhcurveto
            -7 -3 6 9 hvcurveto
            116 101 160 32 vvcurveto
            36 -30 38 -35 -64 -91 -271 -119 -54 76 -66 44 49 66 72 76 52 vhcurveto
            -9 -35 -5 -33 -25 vvcurveto
            -41 20 -14 22 20 14 11 31 10 vhcurveto
            return
          </CharString>
          <CharString index="35">
            -16 -26 -50 hvcurveto
            10 50 8 45 3 28 rrcurveto
            -136 hmoveto
            -11 -76 219 callsubr
            -35 -55 -55 -29 -30 -21 callgsubr
            -269 108 -65 callsubr
            return
          </CharString>
          <CharString index="36">
            rmoveto
            -107 -93 -32 -28 -15 -39 20 -25 rlinecurve
            26 -34 36 35 30 17 111 62 rcurveline
            25 14 4 48 -28 34 -21 25 -22 8 -27 -24 rrcurveto
            return
          </CharString>
          <CharString index="37">
            108 -107 callgsubr
            return
          </CharString>
          <CharString index="38">
            hlineto
            -7 -49 -8 -57 -8 -52 rrcurveto
            27 callsubr
            54 59 22 33 63 188 callgsubr
            28 109 108 25 vhcurveto
            26 17 rlineto
            76 112 189 170 76 hhcurveto
            25 18 -18 -27 -79 -70 -81 -74 hvcurveto
            -42 -2 11 -29 hhcurveto
            -13 -5 -16 -17 -9 2 -9 4 -8 hvcurveto
            10 -23 30 -34 53 -65 rrcurveto
            -59 48 47 -46 27 278 callgsubr
            return
          </CharString>
          <CharString index="39">
            -30 -37 -48 -30 -56 -63 -2 15 -29 hhcurveto
            -20 -7 -9 -20 -27 16 -21 23 -16 hvcurveto
            -58 -12 -77 -42 -83 hhcurveto
            -24 -6 4 26 57 30 97 81 32 hvcurveto
            23 9 33 2 27 vvcurveto
            25 -57 32 -41 return
          </CharString>
          <CharString index="40">
            rmoveto
            -1 -9 -7 -1 -7 hhcurveto
            -36 -12 17 20 22 14 35 25 25 7 -38 -47 hvcurveto
            return
          </CharString>
          <CharString index="41">
            hhcurveto
            -5 -2 1 2 35 74 67 52 25 hvcurveto
            14 7 13 5 8 vvcurveto
            19 -32 45 -22 -6 -12 -4 -8 -15 vhcurveto
            -13 -34 -47 -9 -35 hhcurveto
            -4 -1 1 3 10 4 13 6 15 hvcurveto
            -2 7 7 -1 7 hhcurveto
            return
          </CharString>
          <CharString index="42">
            49 callgsubr
            -25 -68 -14 -88 -66 vvcurveto
            -93 17 -94 68 62 61 25 29 53 vhcurveto
            -10 -63 -8 -51 -15 vvcurveto
            -52 33 -21 25 52 14 return
          </CharString>
          <CharString index="43">
            4 -20 4 -25 -28 vvcurveto
            -93 -76 -153 -57 -25 -10 43 51 107 47 74 7 44 vhcurveto
            -236 -89 callsubr
            48 -34 callsubr
            return
          </CharString>
          <CharString index="44">
            rrcurveto
            4 -16 -17 3 -19 hhcurveto
            -156 -154 -74 -91 -56 69 -63 79 80 29 64 52 28 -5 27 -8 21 hvcurveto
            6 24 26 3 28 hhcurveto
            35 31 -13 -17 27 hvcurveto
            -5 7 6 -3 5 144 callsubr
            return
          </CharString>
          <CharString index="45">
            rmoveto
            -80 74 -112 92 196 151 245 170 125 -77 119 -117 -139 -180 -233 -234 vhcurveto
            323 343 rmoveto
            35 26 -43 -92 -115 -135 -169 -76 -25 -17 33 54 157 134 175 58 hvcurveto
            return
          </CharString>
          <CharString index="46">
            -17 -68 -14 -100 -22 -98 rrcurveto
            101 -17 -47 123 -88 hhcurveto
            return
          </CharString>
          <CharString index="47">
            hhcurveto
            -52 -34 23 31 -27 hvcurveto
            129 38 78 114 99 vvcurveto
            23 -3 22 -6 20 vhcurveto
            return
          </CharString>
          <CharString index="48">
            306 callsubr
            -120 224 -48 -77 vvcurveto
            -20 -19 -15 -31 -8 vhcurveto
            82 -39 -49 73 -84 hhcurveto
            -72 -56 -40 -69 -90 95 -65 132 hvcurveto
            8 7 0 8 hhcurveto
            -121 51 51 -96 44 hhcurveto
            20 11 9 19 38 -44 67 -41 96 hvcurveto
            79 18 47 40 61 return
          </CharString>
          <CharString index="49">
            136 callgsubr
            38 -43 41 -45 40 -35 rrcurveto
            -11 -29 -34 -8 -39 212 callsubr
            return
          </CharString>
          <CharString index="50">
            -105 60 -105 115 62 44 42 35 32 -18 20 -24 return
          </CharString>
          <CharString index="51">
            155 35 hvcurveto
            20 89 22 106 5 50 rrcurveto
            return
          </CharString>
          <CharString index="52">
            hlineto
            -20 -135 rlineto
            -68 callsubr
            return
          </CharString>
          <CharString index="53">
            vvcurveto
            -24 52 -38 26 34 34 183 133 30 vhcurveto
            19 84 33 109 9 46 rrcurveto
            return
          </CharString>
          <CharString index="54">
            hhcurveto
            -123 -121 -192 -91 -51 78 -59 48 return
          </CharString>
          <CharString index="55">
            hhcurveto
            75 67 43 61 56 hvcurveto
            -14 -80 -15 -66 -19 213 callgsubr
            18 -17 callgsubr
          </CharString>
          <CharString index="56">
            -56 callgsubr
            12 -7 12 -5 14 -5 rrcurveto
            -53 -54 -62 -82 -22 -42 callgsubr
            35 -50 75 -5 93 hvcurveto
            -34 callgsubr
          </CharString>
          <CharString index="57">
            -58 callgsubr
            -73 58 -56 81 -24 hvcurveto
            -55 -50 -83 -106 -25 -42 callgsubr
            hvcurveto
            37 -55 80 100 vvcurveto
            5 -1 5 -2 5 vhcurveto
            94 8 73 55 84 95 callsubr
          </CharString>
          <CharString index="58">
            -106 callsubr
            298 -31 callgsubr
            return
          </CharString>
          <CharString index="59">
            rmoveto
            35 -60 54 -38 -12 -8 -12 -22 -7 vhcurveto
            -21 -65 -6 -151 -56 -164 -63 136 -64 168 -33 46 rrcurveto
            29 -23 -42 31 -19 hhcurveto
            -21 -6 -11 -19 hvcurveto
            -106 -118 -361 -65 vvcurveto
            -27 53 -69 26 29 17 104 263 76 vhcurveto
            52 -111 56 -140 23 -56 rrcurveto
            -29 12 44 -31 18 hhcurveto
            95 96 454 119 hvcurveto
            return
          </CharString>
          <CharString index="60">
            159 callgsubr
            75 2 92 12 79 22 rrcurveto
            -14 -91 -15 -88 -20 18 callsubr
          </CharString>
          <CharString index="61">
            324 callgsubr
            95 30 57 85 hvcurveto
            -8 -34 -6 -25 -10 vvcurveto
            -44 47 -47 20 35 24 157 155 35 vhcurveto
            114 callsubr
          </CharString>
          <CharString index="62">
            91 -134 -16 115 vvcurveto
            44 35 30 87 return
          </CharString>
          <CharString index="63">
            rrcurveto
            -43 callsubr
            return
          </CharString>
          <CharString index="64">
            1 8 0 7 8 -102 callsubr
            return
          </CharString>
          <CharString index="65">
            rmoveto
            -7 -11 -17 -4 -19 hhcurveto
            -37 -37 23 24 21 17 21 30 36 48 -40 -22 -3 -1 -2 -1 -3 hvcurveto
            return
          </CharString>
          <CharString index="66">
            -12 -20 -18 -25 -31 -30 -48 -46 -47 -41 -39 -37 rrcurveto
            74 -5 -47 63 -77 hhcurveto
            return
          </CharString>
          <CharString index="67">
            -26 -42 -34 -24 -26 29 -17 31 -4 hvcurveto
            -24 -46 -66 -21 -35 vvcurveto
            -20 16 -7 15 return
          </CharString>
          <CharString index="68">
            vvcurveto
            -32 41 -31 46 23 29 3 7 35 vhcurveto
            38 7 22 25 -8 22 -9 23 -21 12 -22 -5 rrcurveto
            -3 -16 -12 -1 -9 hhcurveto
            -17 -7 5 7 14 25 24 31 24 hvcurveto
            return
          </CharString>
          <CharString index="69">
            26 -42 88 -27 -27 -31 -39 -27 201 callsubr
            return
          </CharString>
          <CharString index="70">
            82 callgsubr
            vhcurveto
            -87 callgsubr
          </CharString>
          <CharString index="71">
            140 144 50 91 55 -91 101 -65 -68 -93 -94 -85 -49 hvcurveto
            -28 11 -14 19 31 vvcurveto
            55 192 136 51 vhcurveto
            47 19 -40 26 hhcurveto
            return
          </CharString>
          <CharString index="72">
            -58 callsubr
            310 438 rmoveto
            -9 -8 -1 -1 -7 hvcurveto
            1 -9 -10 1 -10 hhcurveto
            -357 -83 callgsubr
            346 hlineto
            7 7 1 1 6 hvcurveto
            -1 13 15 -1 16 hhcurveto
            15 callgsubr
            -100 -70 -124 -114 -7 vhcurveto
            3 -6 -6 1 -9 hhcurveto
            -21 -26 -16 -18 -32 hvcurveto
            -85 callgsubr
            119 129 69 57 40 hvcurveto
            -69 13 49 -44 74 hhcurveto
            126 156 67 105 hvcurveto
            3 vlineto
            29 4 32 8 30 14 rrcurveto
            -16 -92 -23 -80 -32 callsubr
            56 -107 callsubr
          </CharString>
          <CharString index="73">
            hlineto
            -27 -74 -18 -75 -93 vvcurveto
            -100 55 -91 83 150 123 189 135 callsubr
            vhcurveto
            return
          </CharString>
          <CharString index="74">
            159 -236 -19 21 vvcurveto
            21 81 18 21 callgsubr
            26 43 42 4 32 3 25 hvcurveto
            return
          </CharString>
          <CharString index="75">
            -21 -103 callgsubr
            return
          </CharString>
          <CharString index="76">
            -8 -39 -8 -35 -6 -27 rrcurveto
            10 -24 -27 6 -25 hhcurveto
            -45 -62 -31 -42 -57 hvcurveto
            -79 -58 -69 -78 -37 139 callsubr
            62 59 49 61 vhcurveto
            43 54 43 20 34 hhcurveto
            30 22 -10 -10 19 hvcurveto
            -11 20 17 -11 22 hhcurveto
            0 1 vlineto
            34 24 151 151 34 hvcurveto
            37 68 59 37 30 hhcurveto
            8 1 -12 -19 -51 -27 -100 -40 -26 hvcurveto
            -22 -14 -27 11 -26 vvcurveto
            -33 53 -46 34 101 47 209 109 67 -36 52 -63 -48 -53 -22 -28 -54 vhcurveto
            9 45 7 39 2 26 rrcurveto
            317 -107 callsubr
          </CharString>
          <CharString index="77">
            -351 rmoveto
            229 callsubr
            -55 -37 16 vhcurveto
            -50 -76 -71 -30 -48 hhcurveto
            -12 -5 4 10 hvcurveto
            618 351 rmoveto
            -82 -41 -95 -72 -88 -68 15 69 13 72 3 40 rrcurveto
            return
          </CharString>
          <CharString index="78">
            -56 -40 -107 -103 -49 vvcurveto
            -16 24 -21 16 20 47 56 52 53 vhcurveto
            47 47 52 51 39 30 rrcurveto
            -7 -31 -10 -29 -18 315 callsubr
            43 128 122 23 vhcurveto
            48 47 97 68 266 callsubr
            -117 -126 -73 -50 vvcurveto
            -18 25 -14 18 return
          </CharString>
          <CharString index="79">
            -106 callsubr
            113 -14 callgsubr
            -105 -133 -99 -97 hvcurveto
            -29 -49 44 -28 hhcurveto
            -17 -14 -27 -35 -10 3 -11 6 -11 hvcurveto
            19 -41 49 -61 51 -65 rrcurveto
            -100 80 68 -94 39 hhcurveto
            28 14 11 24 28 -87 111 -55 78 hvcurveto
            -9 13 -11 15 -11 15 rrcurveto
            163 25 146 148 138 -27 callsubr
            184 -107 callsubr
          </CharString>
          <CharString index="80">
            vvcurveto
            28 -5 26 -9 23 vhcurveto
            return
          </CharString>
          <CharString index="81">
            -275 133 641 rmoveto
            -96 -88 -403 -44 vvcurveto
            -24 55 -61 26 27 17 119 129 27 vhcurveto
            33 157 26 106 33 vvcurveto
            50 -70 177 callsubr
            return
          </CharString>
          <CharString index="82">
            rmoveto
            24 24 30 29 39 hvcurveto
            43 32 50 25 30 vvcurveto
            21 -12 11 -23 -18 -48 -16 -53 -68 vhcurveto
            53 -65 -13 50 -42 hhcurveto
            -25 -16 -22 -27 -55 126 -108 24 hvcurveto
            return
          </CharString>
          <CharString index="83">
            rmoveto
            -68 callsubr
            -43 -37 -22 -35 -29 vhcurveto
            23 -17 -25 15 -36 hhcurveto
            -46 -47 -16 -27 -51 hvcurveto
            10 51 8 45 3 28 rrcurveto
            686 hlineto
            -822 110 callgsubr
            56 25 38 hhcurveto
            19 10 -15 -26 hvcurveto
            -24 -2 -13 -22 vvcurveto
            -8 vlineto
            -10 vlineto
            -83 callsubr
          </CharString>
          <CharString index="84">
            rmoveto
            -11 -73 -10 -65 -10 -69 rrcurveto
            -38 -58 -61 -35 -22 -21 callgsubr
            return
          </CharString>
          <CharString index="85">
            vvcurveto
            11 7 4 17 vhcurveto
            67 41 -39 31 hhcurveto
            6 5 1 2 4 hvcurveto
            28 11 11 96 64 vvcurveto
            9 -1 8 -2 7 vhcurveto
            return
          </CharString>
          <CharString index="86">
            rmoveto
            -18 -16 26 19 19 25 2 30 10 12 -1 -1 12 hvcurveto
            -40 -15 -21 -24 -19 hhcurveto
            -18 812 -49 callsubr
            -52 28 -43 44 -28 hvcurveto
            1 -14 1 -16 -15 vvcurveto
            -27 -2 -26 -4 -24 vhcurveto
            3 -18 -18 1 -22 hhcurveto
            -86 -60 -34 -59 -72 70 -74 60 104 64 137 170 hvcurveto
            17 vlineto
            -3 19 19 -2 21 hhcurveto
            16 15 1 2 14 hvcurveto
            -30 -101 -16 -141 -35 vvcurveto
            -51 0 -62 31 40 8 58 36 4 vhcurveto
            9 88 37 164 13 80 rrcurveto
            35 24 20 35 35 4 callgsubr
            135 -107 callsubr
          </CharString>
          <CharString index="87">
            6 143 161 rmoveto
            15 9 9 19 30 22 -26 -42 22 vhcurveto
            -83 3 -19 23 18 vvcurveto
            -35 162 callsubr
            245 -2 hlineto
            -25 0 -27 1 -25 vhcurveto
            13 -34 -41 -59 callsubr
            160 -208 29 46 vvcurveto
            11 7 4 17 vhcurveto
            67 41 -39 31 hhcurveto
            6 4 1 1 4 hvcurveto
            2 1 2 1 2 2 3 2 2 3 2 4 rrcurveto
            17 30 9 76 53 vvcurveto
            9 -1 8 -2 7 vhcurveto
            131 -107 callgsubr
            -94 hlineto
            -32 26 -76 11 66 vvcurveto
            40 48 26 56 vhcurveto
            145 48 -86 40 271 callgsubr
            -40 14 -36 25 -28 hvcurveto
            return
          </CharString>
          <CharString index="88">
            35 16 39 53 hhcurveto
            25 14 -20 -22 -63 -46 -73 -97 hvcurveto
            -29 -49 44 -28 hhcurveto
            -17 -14 -27 -35 -21 13 -22 21 -19 hvcurveto
            27 -29 41 -36 36 -52 rrcurveto
            -108 76 24 -42 25 hhcurveto
            28 14 11 24 28 -19 61 -55 78 hvcurveto
            -8 11 -8 11 -9 11 rrcurveto
            135 31 65 118 90 vvcurveto
            28 -4 25 -9 return
          </CharString>
          <CharString index="89">
            207 callgsubr
            6 hlineto
            -38 7 54 -57 34 36 14 52 43 hhcurveto
            22 8 -9 -21 -60 -59 -49 -82 -26 hvcurveto
            33 -28 -32 26 -48 hhcurveto
            -47 -29 -29 -38 -54 47 -30 58 -9 hvcurveto
            -86 60 88 -65 106 hhcurveto
            return
          </CharString>
          <CharString index="90">
            rmoveto
            132 112 82 103 hvcurveto
            127 -202 108 37 vvcurveto
            21 38 21 68 29 vhcurveto
            64 27 77 -3 27 vvcurveto
            34 -30 47 -46 -77 -118 -54 -60 -62 vhcurveto
            -19 -18 -15 -50 -35 -68 200 -126 -55 vvcurveto
            -34 -79 -55 -62 vhcurveto
            -84 -24 79 -48 hhcurveto
            -18 -8 -18 -25 -56 76 -85 125 hvcurveto
            return
          </CharString>
          <CharString index="91">
            -43 callgsubr
            vhcurveto
            -12 16 return
          </CharString>
          <CharString index="92">
            rmoveto
            192 callgsubr
            527 hlineto
            -2 callsubr
            -73 -56 -12 -24 -39 hvcurveto
            -65 -32 -68 -32 -66 -28 rrcurveto
            -128 -51 rmoveto
            -30 -82 -67 -19 -35 hhcurveto
            -12 -5 4 10 47 78 116 55 44 8 -81 -45 17 hvcurveto
            -334 427 96 callsubr
            -176 -98 -51 68 -58 48 36 63 16 23 74 hvcurveto
            -7 -32 -5 -24 -11 -5 callgsubr
            38 26 75 88 22 vhcurveto
            57 21 57 24 50 23 rrcurveto
            -116 14 114 -115 76 hhcurveto
            32 20 16 25 hvcurveto
            -87 callgsubr
          </CharString>
          <CharString index="93">
            rmoveto
            -38 -80 -71 -29 28 callgsubr
            return
          </CharString>
          <CharString index="94">
            rmoveto
            5 2 -2 -4 -40 -88 -51 -44 -7 hvcurveto
            53 39 53 51 33 hhcurveto
            212 55 rmoveto
            -48 -34 -23 -29 -28 23 -15 40 -8 hvcurveto
            -25 -167 rlineto
            -86 -72 -126 -86 -88 hhcurveto
            -5 -2 1 2 35 74 57 52 25 hvcurveto
            14 7 13 5 8 vvcurveto
            19 -32 45 -22 -5 -8 -2 -5 -11 vhcurveto
            -7 -22 -38 -20 -65 hhcurveto
            -4 -1 1 3 8 3 9 4 12 hvcurveto
            -3 8 8 -1 8 263 callsubr
            return
          </CharString>
          <CharString index="95">
            100 -53 79 -112 -92 -73 -69 -47 -35 23 -16 30 vhcurveto
            57 6 72 78 hhcurveto
            24 6 -19 -27 -88 -60 -117 -124 -14 -7 7 13 hvcurveto
            22 13 11 20 vvcurveto
            14 -8 8 -18 -42 -36 -42 -43 -58 47 -51 89 return
          </CharString>
          <CharString index="96">
            123 callgsubr
            100 117 23 vhcurveto
            1 23 23 0 24 return
          </CharString>
          <CharString index="97">
            -15 -15 0 -15 hhcurveto
            8 65 2 63 48 4 0 3 4 vvcurveto
            return
          </CharString>
          <CharString index="98">
            115 18 43 7 26 vvcurveto
            19 -22 7 -49 -154 -128 -4 -36 -21 28 -38 28 return
          </CharString>
          <CharString index="99">
            rmoveto
            -41 -15 -50 -13 -48 -10 rrcurveto
            24 39 14 44 46 -27 callsubr
            140 hlineto
            return
          </CharString>
          <CharString index="100">
            rmoveto
            41 -55 78 -52 -66 -177 -100 -77 vhcurveto
            -87 182 -52 -62 vvcurveto
            -19 -41 -10 -42 vhcurveto
            -101 -19 43 -33 hhcurveto
            -18 -11 -13 -25 -40 79 -67 115 109 86 70 54 hvcurveto
            114 -175 50 37 vvcurveto
            42 99 25 23 vhcurveto
            36 15 -24 26 hhcurveto
            13 7 8 14 hvcurveto
            return
          </CharString>
          <CharString index="101">
            rmoveto
            40 3 45 8 47 vhcurveto
            39 -74 52 -82 40 -50 rrcurveto
            -17 -36 -39 -12 -43 hhcurveto
            287 callgsubr
            hvcurveto
            return
          </CharString>
          <CharString index="102">
            229 callgsubr
            -9 vlineto
            6 -11 -11 4 -12 hhcurveto
            return
          </CharString>
          <CharString index="103">
            554 rmoveto
            -133 -30 -131 -149 -59 21 callsubr
            return
          </CharString>
          <CharString index="104">
            -14 -66 -14 -53 -16 -103 callgsubr
            77 -107 callsubr
          </CharString>
          <CharString index="105">
            -11 -51 -11 -51 -11 -61 rrcurveto
            14 -57 -61 7 -60 hhcurveto
            return
          </CharString>
          <CharString index="106">
            rmoveto
            331 callgsubr
            208 callgsubr
            vhcurveto
            -21 -90 -25 -93 -33 vvcurveto
            -26 21 -26 20 27 16 8 34 11 vhcurveto
            46 142 57 194 29 vvcurveto
            return
          </CharString>
          <CharString index="107">
            662 rmoveto
            19 33 13 39 26 vvcurveto
            29 -58 55 -34 vhcurveto
            -51 -128 -37 -42 hhcurveto
            -9 -7 2 8 hvcurveto
            15 40 52 29 vvcurveto
            30 -34 38 -25 -34 -52 -136 -52 -51 32 -35 53 vhcurveto
            87 98 32 25 hhcurveto
            17 5 -11 -15 -18 -5 -17 -4 -16 hvcurveto
            return
          </CharString>
          <CharString index="108">
            vvcurveto
            -51 66 -53 46 99 105 27 59 307 callgsubr
            -65 55 callgsubr
            return
          </CharString>
          <CharString index="109">
            -58 43 -39 89 176 322 153 219 47 -18 48 -37 23 vhcurveto
            2 9 2 8 2 7 5 16 8 12 8 10 rrcurveto
            127 -107 callsubr
          </CharString>
          <CharString index="110">
            rmoveto
            -70 -84 -13 -33 -24 54 -30 27 10 24 5 2 18 hvcurveto
            -52 -42 -99 -68 -56 hhcurveto
            -35 -16 7 34 158 167 206 109 hvcurveto
            36 5 -11 326 callgsubr
            -54 78 -44 -180 -213 -299 -204 -80 108 -76 85 76 75 57 77 55 hvcurveto
            -26 -73 -24 -78 -44 vvcurveto
            -19 16 -14 21 52 79 253 51 54 -33 72 -80 vhcurveto
            return
          </CharString>
          <CharString index="111">
            554 -23 callsubr
            return
          </CharString>
          <CharString index="112">
            hlineto
            -4 -26 rlineto
            -176 -33 -95 -135 -130 hhcurveto
            -20 -5 3 15 50 95 62 64 27 hvcurveto
            9 3 6 7 12 217 callgsubr
            return
          </CharString>
          <CharString index="113">
            rmoveto
            -48 -34 -23 -29 -30 27 -16 45 -6 hvcurveto
            -26 -170 -74 -86 -107 -57 -119 -9 rlinecurve
            125 69 86 115 125 vvcurveto
            74 -47 78 -96 return
          </CharString>
          <CharString index="114">
            106 86 57 91 hvcurveto
            -33 callsubr
            return
          </CharString>
          <CharString index="115">
            rmoveto
            -30 -10 -14 -14 -19 -50 -48 92 -32 hhcurveto
            -17 -32 -42 -28 -48 85 -63 88 77 64 56 88 31 hvcurveto
            170 500 rlineto
            66 22 -55 66 -40 hhcurveto
            -15 -8 -7 -19 -5 hvcurveto
            -58 -184 -137 -190 -43 3 rrcurveto
            -7 -3 6 9 hvcurveto
            112 101 149 47 vvcurveto
            36 -39 38 -36 -54 -90 -257 -119 -68 74 -66 45 37 51 39 59 45 vhcurveto
            return
          </CharString>
          <CharString index="116">
            222 400 rmoveto
            -17 -10 30 33 51 48 74 28 11 16 -29 -43 -66 -53 -50 -23 hvcurveto
            176 162 rmoveto
            48 -12 74 7 69 31 -163 -228 -189 -262 -12 -49 -6 -26 27 -28 24 -5 21 -6 106 145 132 181 160 220 89 97 13 52 rrcurveto
            39 10 -41 66 -24 hhcurveto
            -37 -208 -154 27 -112 hvcurveto
            -26 6 -11 12 -15 8 rrcurveto
            9 -14 -16 5 -17 hhcurveto
            -104 -89 -150 -89 -79 48 -87 65 107 95 122 109 12 -1 13 -3 14 hvcurveto
            297 -452 rmoveto
            -17 -10 30 33 51 48 74 28 11 16 -29 -43 -66 -53 -50 -23 hvcurveto
            58 297 rmoveto
            -104 -89 -150 -89 -79 48 -87 65 107 95 122 109 61 -41 113 -81 hvcurveto
            return
          </CharString>
          <CharString index="117">
            109 callgsubr
            285 callsubr
            108 callgsubr
            14 vhcurveto
            -2 -14 -4 -13 -3 -14 rrcurveto
            -145 -15 -117 -17 -95 vvcurveto
            -75 71 -100 79 73 72 86 115 44 vhcurveto
            43 4 43 5 37 7 rrcurveto
            -14 -93 -16 -93 -20 -104 callsubr
            93 -107 callsubr
          </CharString>
          <CharString index="118">
            225 -26 callgsubr
            return
          </CharString>
          <CharString index="119">
            248 callsubr
            285 hlineto
            -20 -137 rlineto
            38 -84 -107 28 -74 hhcurveto
            152 callsubr
            hvcurveto
            34 -11 32 -11 27 -11 -1 -9 rcurveline
            -1 -7 -38 -22 -44 -27 -40 -25 rlinecurve
            27 callgsubr
            12 7 12 7 12 8 rrcurveto
            -12 -55 -10 -45 -16 165 callsubr
            134 119 27 vhcurveto
            60 81 68 53 30 hhcurveto
            10 5 -4 -9 hvcurveto
            -118 -126 -72 80 callgsubr
            147 92 63 -65 79 -67 -35 -47 -23 -34 -50 vhcurveto
            12 59 9 57 3 34 rrcurveto
            253 -107 callsubr
          </CharString>
          <CharString index="120">
            rmoveto
            -59 -79 -74 -52 -48 hhcurveto
            -14 -7 6 11 33 94 122 41 33 29 -30 -29 25 hvcurveto
            return
          </CharString>
          <CharString index="121">
            -3 3 -8 10 rlineto
            -13 17 -6 13 13 vvcurveto
            48 58 39 52 vhcurveto
            157 31 -99 293 callsubr
            -125 122 -125 -78 -76 -44 -60 -35 hvcurveto
            -4 12 -2 11 11 vvcurveto
            38 -77 65 -66 -13 -11 -2 -15 return
          </CharString>
          <CharString index="122">
            31 callgsubr
            -114 -153 -201 -106 return
          </CharString>
          <CharString index="123">
            vvcurveto
            -26 61 9 14 -26 vhcurveto
            -41 -26 -108 3 -30 vvcurveto
            -16 28 -18 39 105 94 54 54 33 -57 24 -38 5 vhcurveto
            return
          </CharString>
          <CharString index="124">
            -116 -171 -165 -142 -55 24 -41 54 -10 hvcurveto
            -29 -35 -21 -40 -38 vvcurveto
            -53 38 -30 64 return
          </CharString>
          <CharString index="125">
            -104 callsubr
            83 -107 callsubr
          </CharString>
          <CharString index="126">
            97 -107 callsubr
          </CharString>
          <CharString index="127">
            rmoveto
            -39 -31 7 22 49 152 151 75 39 33 -65 -37 -62 -156 -65 -73 hvcurveto
            return
          </CharString>
          <CharString index="128">
            hhcurveto
            -13 -7 41 42 73 10 64 22 62 hvcurveto
            return
          </CharString>
          <CharString index="129">
            18 hlineto
            -90 callsubr
            return
          </CharString>
          <CharString index="130">
            -67 callsubr
            224 259 callgsubr
            90 callgsubr
            -95 -67 -75 -88 -35 hvcurveto
            -42 -62 -3 -7 -101 hvcurveto
            135 callgsubr
            return
          </CharString>
          <CharString index="131">
            rmoveto
            39 13 -66 -38 16 hvcurveto
            -35 -71 -63 -25 -40 hhcurveto
            -12 -5 4 10 33 82 117 41 hvcurveto
            432 193 -35 callgsubr
            -658 -83 callgsubr
            328 hlineto
            -8 -53 -8 -61 -8 -55 rrcurveto
            46 -20 -31 41 -49 hhcurveto
            -112 -118 -184 -91 -45 61 -52 48 -11 hvcurveto
            -67 -56 -55 -63 -36 vvcurveto
            -27 14 -20 31 48 50 77 67 72 vhcurveto
            32 29 23 27 20 21 rrcurveto
            -5 -27 -4 -20 -10 -5 callgsubr
            43 28 95 102 24 vhcurveto
            119 61 121 73 60 39 -44 90 rcurveline
            -65 -36 -81 -49 -79 -45 18 79 18 97 4 49 rrcurveto
            endchar
          </CharString>
          <CharString index="132">
            rmoveto
            26 111 23 177 72 72 callgsubr
            vhcurveto
            -319 -110 -293 -65 220 callgsubr
            28 45 188 128 30 vhcurveto
            return
          </CharString>
          <CharString index="133">
            -106 callgsubr
            27 hlineto
            -18 -70 -9 -69 -74 vvcurveto
            -108 35 -113 86 return
          </CharString>
          <CharString index="134">
            42 -19 -32 34 -55 -53 callsubr
            return
          </CharString>
          <CharString index="135">
            -13 -22 -9 -27 -2 -29 rrcurveto
            4 -15 -16 3 -16 hhcurveto
            return
          </CharString>
          <CharString index="136">
            -100 callsubr
            -514 -146 rmoveto
            -17 -34 -55 -11 -40 hhcurveto
            -4 -1 1 3 10 4 13 6 15 hvcurveto
            -2 7 7 -1 7 hhcurveto
            103 97 60 78 34 hvcurveto
            -2 17 20 -1 22 69 callsubr
            -71 -87 -66 -58 -49 hvcurveto
            -39 -65 -111 -73 -135 hhcurveto
            -7 -2 3 5 42 64 65 52 25 hvcurveto
            14 7 13 5 8 vvcurveto
            19 -32 45 -22 -4 -7 -2 -4 -9 vhcurveto
            46 199 -10 callgsubr
            return
          </CharString>
          <CharString index="137">
            vvcurveto
            27 16 31 36 vhcurveto
            74 -465 rmoveto
            13 9 -9 -13 -20 -22 -27 -65 -7 hvcurveto
            45 8 20 31 37 hhcurveto
            return
          </CharString>
          <CharString index="138">
            -12 -54 -11 -42 -14 -103 callgsubr
            81 -107 callsubr
          </CharString>
          <CharString index="139">
            hlineto
            156 callsubr
            -106 -86 -70 hvcurveto
            -82 -1 48 -48 hhcurveto
            -17 -13 -27 -35 hvcurveto
            205 callsubr
            -35 45 -60 67 -82 vhcurveto
            76 callsubr
            -12 16 return
          </CharString>
          <CharString index="140">
            rrcurveto
            349 -107 callsubr
          </CharString>
          <CharString index="141">
            101 callsubr
            -120 102 -72 143 59 65 19 36 19 -19 7 -56 -82 -91 29 75 60 43 35 75 50 33 -28 -37 -31 4 -21 19 40 26 39 46 80 -79 58 -98 -8 -7 0 -1 -8 vhcurveto
            -2 6 -1 7 8 vvcurveto
            22 18 15 75 vhcurveto
            28 26 -2 22 hhcurveto
            15 14 1 4 10 hvcurveto
            36 8 12 69 50 vvcurveto
            18 -3 18 -5 17 vhcurveto
            65 callgsubr
          </CharString>
          <CharString index="142">
            hhcurveto
            16 callgsubr
            return
          </CharString>
          <CharString index="143">
            -70 -20 6 -39 hhcurveto
            -17 -7 -8 -12 -20 55 -72 35 return
          </CharString>
          <CharString index="144">
            rmoveto
            37 23 42 36 70 hvcurveto
            -45 35 57 -50 37 hhcurveto
            16 13 13 11 35 -44 33 -33 37 hvcurveto
            37 -33 -12 38 -26 hhcurveto
            -19 -42 -29 -27 -47 hvcurveto
            -49 -28 -23 -25 -34 vvcurveto
            -25 16 -19 24 vhcurveto
            return
          </CharString>
          <CharString index="145">
            -28 283 379 rmoveto
            -21 -42 45 68 -29 hvcurveto
            82 -35 2 98 -47 hhcurveto
            -56 -5 -40 -50 -115 64 -173 121 -32 hvcurveto
            -42 -76 -33 -86 -35 vvcurveto
            -34 14 -18 21 39 40 60 53 31 vhcurveto
            95 162 183 232 58 vvcurveto
            51 -40 43 -42 vhcurveto
            -70 -105 -293 -43 hhcurveto
            return
          </CharString>
          <CharString index="146">
            4 -20 4 -25 -28 vvcurveto
            -93 -76 -153 -57 -25 -10 43 51 107 47 74 7 44 vhcurveto
            -466 157 callsubr
            332 208 rmoveto
            -23 -62 -16 -62 -5 -73 -20 -9 -24 -16 -27 305 callsubr
            -274 108 41 callsubr
            86 141 55 69 74 vhcurveto
            -70 18 48 -53 63 hhcurveto
            150 123 189 135 callsubr
            hvcurveto
            return
          </CharString>
          <CharString index="147">
            133 callgsubr
            -122 73 -1 -117 75 hhcurveto
            24 25 15 30 11 -6 29 -11 37 hvcurveto
            26 callgsubr
            return
          </CharString>
          <CharString index="148">
            rmoveto
            26 callsubr
            return
          </CharString>
          <CharString index="149">
            43 callsubr
            32 return
          </CharString>
          <CharString index="150">
            -87 callsubr
            hhcurveto
            return
          </CharString>
          <CharString index="151">
            hhcurveto
            -18 -1 33 25 67 51 85 39 hvcurveto
            39 -8 -51 48 hhcurveto
            30 15 24 32 44 -46 72 -66 return
          </CharString>
          <CharString index="152">
            hvcurveto
            52 callsubr
            return
          </CharString>
          <CharString index="153">
            19 19 2 2 18 hvcurveto
            -14 -36 -10 -43 -4 -46 rrcurveto
            41 -13 -44 49 -49 hhcurveto
            -120 -95 -121 -95 -80 58 -43 92 62 59 16 21 32 hvcurveto
            -16 2 -16 5 -12 vhcurveto
            -14 6 10 -9 15 hhcurveto
            54 6 140 97 16 hvcurveto
            16 98 49 113 169 callgsubr
            -52 20 35 68 124 101 44 89 callsubr
            230 -107 callsubr
          </CharString>
          <CharString index="154">
            1 9 1 8 10 vvcurveto
            73 -19 110 -101 -151 -128 -272 -105 -57 63 -76 57 31 43 18 28 44 vhcurveto
            -118 -31 -22 -105 -56 -71 -19 99 -36 hhcurveto
            -20 -25 -38 -32 -41 73 -79 99 186 2 293 165 68 hvcurveto
            15 26 10 25 23 vvcurveto
            return
          </CharString>
          <CharString index="155">
            39 -23 -27 28 -29 hhcurveto
            -25 -31 -13 -33 -15 6 -19 9 -15 hvcurveto
            return
          </CharString>
          <CharString index="156">
            -63 41 60 -66 27 hhcurveto
            25 20 17 22 25 -42 40 -46 74 hvcurveto
            -8 13 63 3 62 21 52 35 rlinecurve
            117 6 140 29 100 35 -1 -6 rcurveline
            -5 -37 -7 -37 -7 -33 rrcurveto
            6 -17 -19 3 -20 hhcurveto
            -156 -154 -74 -91 -56 69 -63 79 80 29 64 52 28 -5 27 -8 21 hvcurveto
            6 24 26 3 28 hhcurveto
            9 9 -1 -2 9 hvcurveto
            -5 -22 -3 -16 -8 vvcurveto
            -21 53 -65 22 -99 callsubr
            30 -107 callsubr
          </CharString>
          <CharString index="157">
            rmoveto
            -33 -7 -25 -19 -27 -45 55 27 19 39 11 54 10 vhcurveto
            2 -23 3 -23 -18 vvcurveto
            -254 409 -106 callsubr
            450 hlineto
            -10 -70 -38 -10 -51 -16 -77 -15 rlinecurve
            -146 -28 -158 -9 -105 vvcurveto
            -83 120 -139 90 98 32 96 87 30 -3 24 -7 18 vhcurveto
            41 7 42 7 38 10 -7 -45 rcurveline
            -15 -105 -20 -115 -23 -104 callsubr
            88 -107 callsubr
          </CharString>
          <CharString index="158">
            -135 -219 -96 -93 -56 69 -63 79 80 29 64 52 33 -7 31 -11 23 hvcurveto
            13 42 45 9 39 hhcurveto
            return
          </CharString>
          <CharString index="159">
            -9 -39 -6 -31 83 callsubr
            return
          </CharString>
          <CharString index="160">
            -25 44 56 -10 81 hhcurveto
            -36 callsubr
            return
          </CharString>
          <CharString index="161">
            485 299 rmoveto
            71 -284 139 -98 -60 -27 -43 -49 -71 46 -93 76 49 51 55 44 28 vhcurveto
            45 -12 31 -19 36 -25 -45 -23 -82 -41 318 callgsubr
            -43 -16 -40 vvcurveto
            -27 16 -24 38 31 31 30 64 105 vhcurveto
            95 58 135 71 58 vvcurveto
            3 255 -35 callgsubr
            -396 -83 callgsubr
            35 -217 56 callgsubr
            return
          </CharString>
          <CharString index="162">
            rmoveto
            61 callsubr
            return
          </CharString>
          <CharString index="163">
            26 -34 36 35 30 17 111 62 rcurveline
            25 14 4 48 -28 34 -21 25 -22 8 -27 -24 rrcurveto
            endchar
          </CharString>
          <CharString index="164">
            224 callgsubr
            -105 -197 -102 -37 307 callsubr
            62 62 9 12 55 vhcurveto
            -102 -91 -124 -125 -45 327 callsubr
            45 104 116 84 92 vhcurveto
            56 52 154 131 58 vvcurveto
            30 -19 18 -26 -61 -31 -96 -18 -243 vhcurveto
            88 59 79 113 88 vvcurveto
            19 -2 17 -4 15 vhcurveto
            198 -107 callsubr
          </CharString>
          <CharString index="165">
            -298 -14 callsubr
            return
          </CharString>
          <CharString index="166">
            328 callgsubr
            -20 -3 -19 -2 -19 -46 -156 -117 -90 -149 -17 rrcurveto
            74 43 77 80 55 vvcurveto
            42 -70 60 -52 return
          </CharString>
          <CharString index="167">
            64 callgsubr
            endchar
          </CharString>
          <CharString index="168">
            39 callgsubr
            -62 return
          </CharString>
          <CharString index="169">
            525 125 rmoveto
            -38 -27 25 36 -22 hvcurveto
            79 84 73 78 21 hhcurveto
            6 4 -3 -8 -78 -40 -129 -61 hvcurveto
            -347 5 rmoveto
            -11 -6 4 11 39 67 128 42 30 25 -36 -32 24 hvcurveto
            -62 -66 -63 -52 -42 hhcurveto
            439 328 rmoveto
            -47 -79 -77 -79 -82 hvcurveto
            58 -30 -56 67 -64 hhcurveto
            -115 -96 -199 -89 -63 84 -50 58 51 69 48 58 68 hvcurveto
            -62 37 50 -43 72 hhcurveto
            120 79 176 121 57 -54 77 -65 hvcurveto
            return
          </CharString>
          <CharString index="170">
            -106 callsubr
            58 hlineto
            -6 -205 -86 -161 -136 vvcurveto
            -109 81 -42 127 97 159 57 74 20 -12 15 -26 vhcurveto
            -80 -32 -53 -139 hhcurveto
            -38 -10 7 40 110 101 212 4 171 hvcurveto
            193 hlineto
            20 -27 26 -33 -63 vvcurveto
            -85 -58 -66 -89 -29 -11 -10 -13 -27 26 -42 66 128 82 105 131 53 -15 44 -23 33 vhcurveto
            201 callgsubr
          </CharString>
          <CharString index="171">
            rmoveto
            40 3 45 8 47 vhcurveto
            39 -74 52 -82 40 -50 rrcurveto
            -17 -36 -39 -12 -43 200 callgsubr
            return
          </CharString>
          <CharString index="172">
            rmoveto
            -28 -127 -60 -92 -59 11 7 -42 hhcurveto
            -20 -7 -9 -20 -20 9 -15 14 -12 hvcurveto
            -65 -2 -80 -37 -71 hhcurveto
            -24 -6 4 26 44 32 86 72 25 hvcurveto
            23 8 33 3 267 callgsubr
            -65 -128 -99 -92 52 -62 88 117 145 66 95 5 -1 5 -1 5 vhcurveto
            43 3 49 10 46 15 rrcurveto
            -94 -199 -285 -118 -59 vvcurveto
            -13 21 -12 15 105 363 280 204 23 -9 22 -21 vhcurveto
            endchar
          </CharString>
          <CharString index="173">
            273 callsubr
            70 -3 hvcurveto
            -25 -164 -37 -2 -47 -6 -55 -7 rlinecurve
            186 callgsubr
            return
          </CharString>
          <CharString index="174">
            357 288 rmoveto
            -105 -45 -110 -57 -27 316 callgsubr
            62 201 88 21 34 -37 -61 -6 0 -7 1 -5 hvcurveto
            118 510 rmoveto
            -21 -6 -11 -19 -73 -25 -124 -28 -123 hvcurveto
            42 -22 -36 28 -46 hhcurveto
            -151 -100 -272 -105 -57 63 -76 57 39 59 38 48 55 hvcurveto
            -1 -8 -1 -6 -4 vvcurveto
            -31 42 -37 23 28 53 203 126 30 vhcurveto
            29 120 49 202 25 vvcurveto
            50 -64 64 -26 vhcurveto
            return
          </CharString>
          <CharString index="175">
            554 rmoveto
            -61 callsubr
            return
          </CharString>
          <CharString index="176">
            hhcurveto
            22 callsubr
            return
          </CharString>
          <CharString index="177">
            252 callgsubr
            123 hmoveto
            1 29 1 29 27 vvcurveto
            126 -39 108 -97 -113 -122 -197 -122 -30 vhcurveto
            -35 hlineto
            154 callsubr
            return
          </CharString>
          <CharString index="178">
            -2 -64 36 callsubr
            return
          </CharString>
          <CharString index="179">
            hlineto
            -6 -14 -3 -15 -16 vvcurveto
            236 callsubr
            -46 -45 -52 -31 vhcurveto
            1 -10 -9 0 -10 hhcurveto
            -71 -31 -13 -29 -27 52 -49 31 27 28 7 11 27 hvcurveto
            14 -10 9 -15 -21 vvcurveto
            -52 -76 -44 -98 -104 -43 42 47 vhcurveto
            46 30 7 49 vvcurveto
            26 -16 12 -21 -68 -33 -68 -68 -108 88 -91 168 171 124 85 117 return
          </CharString>
          <CharString index="180">
            -26 -21 -6 -11 -19 return
          </CharString>
          <CharString index="181">
            rmoveto
            -74 -81 -95 -71 -3 hvcurveto
            -31 -1 23 -15 30 hhcurveto
            62 -10 87 31 74 hvcurveto
            -79 43 58 -51 51 hhcurveto
            58 73 91 71 3 hvcurveto
            31 1 -16 16 -22 hhcurveto
            -58 -7 -84 -16 -44 hvcurveto
            17 -49 -12 98 -99 hhcurveto
            return
          </CharString>
          <CharString index="182">
            rmoveto
            37 38 -25 -56 -6 0 -6 -1 -5 hvcurveto
            -2 -19 -22 -3 -24 hhcurveto
            -45 -35 19 36 32 37 16 34 hvcurveto
            return
          </CharString>
          <CharString index="183">
            -59 48 47 -46 27 81 callsubr
            return
          </CharString>
          <CharString index="184">
            225 206 84 callgsubr
            return
          </CharString>
          <CharString index="185">
            rmoveto
            149 callsubr
            -13 -15 1 2 -15 hvcurveto
            58 33 48 49 39 hhcurveto
            return
          </CharString>
          <CharString index="186">
            rmoveto
            14 8 13 22 292 callsubr
            return
          </CharString>
          <CharString index="187">
            -304 273 662 rmoveto
            144 -1 -28 175 -195 88 callgsubr
            -175 -83 callgsubr
            115 hlineto
            -19 -194 -62 -232 -77 vvcurveto
            -31 16 -22 28 78 65 347 209 18 vhcurveto
            265 callgsubr
            return
          </CharString>
          <CharString index="188">
            hhcurveto
            119 callsubr
            hvcurveto
            return
          </CharString>
          <CharString index="189">
            55 4 57 5 45 10 -9 -55 -12 -53 -9 -38 rrcurveto
            13 -26 -30 8 -26 hhcurveto
            -42 -73 -46 -54 -64 hvcurveto
            -69 -58 -59 -67 -30 139 callsubr
            54 61 49 61 vhcurveto
            43 54 42 30 32 hhcurveto
            43 33 -30 -15 32 hvcurveto
            -5 11 11 -4 11 -45 callgsubr
            59 -107 callsubr
          </CharString>
          <CharString index="190">
            -13 -5 callgsubr
            return
          </CharString>
          <CharString index="191">
            93 callsubr
            -24 -2 -13 -22 vvcurveto
            return
          </CharString>
          <CharString index="192">
            vvcurveto
            2 callsubr
          </CharString>
          <CharString index="193">
            -106 callgsubr
            326 -2 hlineto
            -26 0 -27 1 -24 vhcurveto
            13 -34 -42 -59 callsubr
            vvcurveto
            return
          </CharString>
          <CharString index="194">
            231 callgsubr
            36 209 155 36 vhcurveto
            23 101 37 192 39 vvcurveto
            23 -62 61 -37 -14 -10 -8 -22 -3 vhcurveto
            -17 -115 -25 -163 -17 -104 rrcurveto
            -17 -105 -40 -149 -23 vvcurveto
            return
          </CharString>
          <CharString index="195">
            vhcurveto
            28 26 -2 22 hhcurveto
            19 16 2 6 13 hvcurveto
            29 14 10 54 57 vvcurveto
            18 -3 18 -5 17 vhcurveto
            return
          </CharString>
          <CharString index="196">
            176 callgsubr
            9 1 9 9 vvcurveto
            67 24 52 17 37 vhcurveto
            return
          </CharString>
          <CharString index="197">
            6 -21 6 -28 3 -38 rrcurveto
            2 -22 -24 0 -23 hhcurveto
            -102 -94 -28 -75 return
          </CharString>
          <CharString index="198">
            721 372 rmoveto
            27 -17 10 -26 -44 -112 -42 -48 -80 vhcurveto
            117 callgsubr
            return
          </CharString>
          <CharString index="199">
            297 callgsubr
            -39 -16 -33 -25 -30 hvcurveto
            -33 20 -21 32 43 30 callsubr
            238 538 rmoveto
            296 callsubr
            43 -15 70 -3 hvcurveto
            -7 -32 -7 -31 -7 -32 -67 -30 -73 -22 -57 -1 rrcurveto
            26 40 17 45 53 vvcurveto
            67 -38 86 -98 283 callgsubr
            return
          </CharString>
          <CharString index="200">
            117 callsubr
            319 callsubr
            39 63 55 25 250 callgsubr
            return
          </CharString>
          <CharString index="201">
            79 callsubr
            -4 -14 vhcurveto
            -50 22 -13 34 23 vvcurveto
            295 87 rmoveto
            -48 -34 -23 -29 -29 26 -16 44 -7 hvcurveto
            -22 -147 -73 -88 -98 -60 -121 -10 rlinecurve
            121 67 78 104 121 vvcurveto
            74 -47 78 -96 -82 -52 -48 -73 -83 57 -58 70 -18 vhcurveto
            -65 -74 -105 -41 -34 vvcurveto
            -45 64 -70 55 98 94 34 56 75 vhcurveto
            return
          </CharString>
          <CharString index="202">
            -33 callsubr
            150 -107 callsubr
          </CharString>
          <CharString index="203">
            -106 callsubr
            329 hlineto
            -8 -58 -10 -66 -8 -59 rrcurveto
            50 -17 -31 41 -55 hhcurveto
            -119 -115 return
          </CharString>
          <CharString index="204">
            152 105 callgsubr
            return
          </CharString>
          <CharString index="205">
            102 360 373 55 callsubr
            5 18 vvcurveto
            31 99 41 44 vhcurveto
            29 3 -12 21 hhcurveto
            11 4 6 15 8 -4 11 -6 11 hvcurveto
            105 hlineto
            -8 -56 -8 -52 -8 -53 rrcurveto
            -77 -56 -142 -94 -74 hhcurveto
            -3 -4 0 2 11 47 38 53 36 hvcurveto
            31 22 13 14 1 26 rrcurveto
            return
          </CharString>
          <CharString index="206">
            rmoveto
            -41 -19 -69 -69 -76 12 110 -35 hhcurveto
            -21 -41 -22 -50 -57 60 -71 88 79 92 75 55 17 -11 12 -18 hvcurveto
            endchar
          </CharString>
          <CharString index="207">
            224 callsubr
            -106 -197 -97 -41 307 callsubr
            171 248 92 98 30 -19 18 -26 -68 -22 -94 -38 -223 vhcurveto
            86 60 77 110 87 vvcurveto
            19 -2 17 -4 15 vhcurveto
            191 -107 callsubr
          </CharString>
          <CharString index="208">
            96 callgsubr
            -30 11 -24 16 -22 hvcurveto
            -71 -33 -46 -62 -75 vvcurveto
            return
          </CharString>
          <CharString index="209">
            276 34 callgsubr
            return
          </CharString>
          <CharString index="210">
            363 55 callsubr
            6 18 vvcurveto
            26 95 46 134 callgsubr
            110 hlineto
            -11 -69 -11 -63 -12 -65 rrcurveto
            -76 -60 -133 -91 -71 128 callgsubr
            return
          </CharString>
          <CharString index="211">
            79 callgsubr
            1 hlineto
            return
          </CharString>
          <CharString index="212">
            -62 -39 callsubr
            return
          </CharString>
          <CharString index="213">
            278 callsubr
            43 28 97 102 24 vhcurveto
            49 26 49 29 45 28 rrcurveto
            -5 -26 -3 -26 -24 215 callsubr
            18 79 19 92 8 55 rrcurveto
            144 hlineto
            46 22 15 26 39 -51 47 -60 hvcurveto
            endchar
          </CharString>
          <CharString index="214">
            hlineto
            90 callsubr
            return
          </CharString>
          <CharString index="215">
            -4 hlineto
            146 callsubr
            return
          </CharString>
          <CharString index="216">
            59 callsubr
            -66 -80 -36 -32 -112 vhcurveto
            -45 -13 -97 -22 -63 -22 38 42 31 53 1 71 rrcurveto
            -156 -390 rmoveto
            -45 -30 10 29 50 54 38 56 48 hvcurveto
            31 -26 114 -20 -53 vvcurveto
            -41 -111 -35 -69 vhcurveto
            return
          </CharString>
          <CharString index="217">
            rmoveto
            33 -42 48 -31 -37 -120 -154 -159 -118 vhcurveto
            56 138 63 255 86 72 callgsubr
            vhcurveto
            -250 -130 -362 -65 269 callsubr
            28 23 47 58 81 56 vhcurveto
            -59 39 74 -80 74 hhcurveto
            34 14 16 19 hvcurveto
            37 -132 31 112 71 170 116 27 vvcurveto
            endchar
          </CharString>
          <CharString index="218">
            hlineto
            -47 -36 -38 -44 -39 89 callgsubr
            73 95 38 51 77 vhcurveto
            -8 -51 -6 -43 -12 146 callgsubr
            80 -107 callsubr
          </CharString>
          <CharString index="219">
            -34 callsubr
            123 hlineto
            -12 -84 -12 -75 -12 -82 rrcurveto
            -15 -105 -29 -97 -23 -103 callgsubr
            106 -107 callsubr
          </CharString>
          <CharString index="220">
            -25 44 56 -10 81 hhcurveto
            -34 callgsubr
          </CharString>
          <CharString index="221">
            20 89 22 106 5 50 rrcurveto
            138 -107 callsubr
          </CharString>
          <CharString index="222">
            vvcurveto
            -71 79 -107 80 return
          </CharString>
          <CharString index="223">
            hmoveto
            117 callsubr
            return
          </CharString>
          <CharString index="224">
            -11 -76 219 callsubr
            -35 -55 -55 -29 -30 -21 callgsubr
            -269 108 -65 callsubr
            143 return
          </CharString>
          <CharString index="225">
            -5 -12 callgsubr
          </CharString>
          <CharString index="226">
            25 -43 callgsubr
            return
          </CharString>
          <CharString index="227">
            554 rmoveto
            -33 callgsubr
            return
          </CharString>
          <CharString index="228">
            -92 86 -62 119 9 8 0 1 8 vhcurveto
            -30 -34 -48 -19 -48 return
          </CharString>
          <CharString index="229">
            -2 rrcurveto
            114 79 97 148 122 vvcurveto
            -168 30 79 callsubr
            -3 -14 vhcurveto
            -51 21 -13 35 23 vvcurveto
            return
          </CharString>
          <CharString index="230">
            554 106 callgsubr
            return
          </CharString>
          <CharString index="231">
            459 -106 callsubr
            return
          </CharString>
          <CharString index="232">
            vvcurveto
            -35 31 -27 39 -19 vhcurveto
            -93 -28 -85 -47 -53 vvcurveto
            -37 42 -50 30 -11 vhcurveto
            -14 39 40 -3 55 hhcurveto
            106 75 40 31 15 -12 10 -31 hvcurveto
            -43 -39 -6 -46 hhcurveto
            -60 -42 3 15 14 56 25 88 26 hvcurveto
            80 24 55 7 25 vvcurveto
            1 vlineto
            1 vlineto
            68 -177 -3 30 vvcurveto
            return
          </CharString>
          <CharString index="233">
            46 104 109 48 77 88 vhcurveto
            -9 -61 -8 -50 184 callsubr
            return
          </CharString>
          <CharString index="234">
            vvcurveto
            -166 145 -99 202 74 68 20 45 21 -33 4 -59 -143 -129 45 138 return
          </CharString>
          <CharString index="235">
            78 73 36 43 55 return
          </CharString>
          <CharString index="236">
            7 35 205 -62 callsubr
            return
          </CharString>
          <CharString index="237">
            vvcurveto
            -21 13 -16 26 return
          </CharString>
          <CharString index="238">
            rmoveto
            -27 47 -106 90 79 180 callgsubr
            return
          </CharString>
          <CharString index="239">
            89 199 252 rmoveto
            16 8 27 13 27 vhcurveto
            31 -35 36 -35 35 -30 rrcurveto
            -10 -27 -28 -6 -27 hhcurveto
            -37 -4 21 25 hvcurveto
            213 14 rmoveto
            -9 -5 -9 -6 -10 -5 -41 43 -43 50 -35 45 rrcurveto
            9 10 10 6 9 hhcurveto
            46 52 -74 -63 20 hvcurveto
            return
          </CharString>
          <CharString index="240">
            hlineto
            5 -20 6 -24 3 -34 rrcurveto
            3 -20 -22 1 -20 hhcurveto
            -122 -88 return
          </CharString>
          <CharString index="241">
            130 callsubr
            34 52 55 42 62 vhcurveto
            34 50 55 24 40 hhcurveto
            return
          </CharString>
          <CharString index="242">
            166 19 -20 31 -25 28 return
          </CharString>
          <CharString index="243">
            -95 40 -57 108 return
          </CharString>
          <CharString index="244">
            rmoveto
            -54 -55 -86 -154 hhcurveto
            -20 -5 3 15 33 56 49 -29 callgsubr
            return
          </CharString>
          <CharString index="245">
            hvcurveto
            -5 -15 -3 -18 -19 vvcurveto
            82 callgsubr
            vhcurveto
            -45 callsubr
            return
          </CharString>
          <CharString index="246">
            130 callsubr
            30 return
          </CharString>
          <CharString index="247">
            191 54 callgsubr
            -148 307 241 callgsubr
            39 return
          </CharString>
          <CharString index="248">
            8 61 callgsubr
            return
          </CharString>
          <CharString index="249">
            183 224 -58 callsubr
            return
          </CharString>
          <CharString index="250">
            hlineto
            -2 -7 -15 -71 -6 -95 -16 -68 rlinecurve
            96 -16 -53 105 -98 hhcurveto
            return
          </CharString>
          <CharString index="251">
            hhcurveto
            -74 callgsubr
            return
          </CharString>
          <CharString index="252">
            rmoveto
            40 3 46 8 46 vhcurveto
            38 -71 50 -83 40 -54 rrcurveto
            -16 -39 -39 -11 -37 200 callgsubr
            70 return
          </CharString>
          <CharString index="253">
            -34 -2 -63 -4 -63 vhcurveto
            return
          </CharString>
          <CharString index="254">
            rmoveto
            227 callgsubr
            hvcurveto
            37 -140 106 91 vvcurveto
            38 -77 65 -66 vhcurveto
            return
          </CharString>
          <CharString index="255">
            70 93 127 79 68 -48 62 -68 -40 -40 -33 -23 hvcurveto
            -37 83 -12 -45 -65 -85 -55 -36 vvcurveto
            -20 14 -10 21 vhcurveto
            return
          </CharString>
          <CharString index="256">
            22 38 -39 -19 -39 -66 -13 -71 return
          </CharString>
          <CharString index="257">
            228 callsubr
            -841 -30 callsubr
            return
          </CharString>
          <CharString index="258">
            rmoveto
            295 callsubr
            15 12 -18 -22 -2 hvcurveto
            -21 -1 -14 -18 -15 hhcurveto
            -15 -12 18 21 2 hvcurveto
            19 -106 rmoveto
            56 49 49 59 6 hvcurveto
            59 5 -41 49 -57 hhcurveto
            -56 -49 -49 -59 -6 hvcurveto
            -59 -5 41 -49 57 hhcurveto
            return
          </CharString>
          <CharString index="259">
            -31 -23 -15 -26 -40 89 -10 123 -37 return
          </CharString>
          <CharString index="260">
            135 callgsubr
            285 callsubr
            108 callgsubr
            15 vhcurveto
            194 callsubr
            rrcurveto
            -132 -11 -122 -19 -81 79 callgsubr
            return
          </CharString>
          <CharString index="261">
            -106 callgsubr
            250 hlineto
            -21 -231 -59 -183 -89 vvcurveto
            -26 11 -27 26 75 44 242 187 30 vhcurveto
            6 37 5 44 5 46 249 callgsubr
            return
          </CharString>
          <CharString index="262">
            -54 -53 -43 -67 -51 85 callsubr
          </CharString>
          <CharString index="263">
            -99 callgsubr
            -102 return
          </CharString>
          <CharString index="264">
            -208 -6 callsubr
            return
          </CharString>
          <CharString index="265">
            36 -16 vhcurveto
            34 -15 -22 22 239 callgsubr
            return
          </CharString>
          <CharString index="266">
            165 564 441 rmoveto
            -49 -6 -82 -14 -60 -9 -9 -1 rcurveline
            4 47 2 46 39 4 0 3 4 vvcurveto
            211 hlineto
            -380 -348 rmoveto
            -16 -28 36 23 10 31 9 46 8 hvcurveto
            -50 -8 -10 -36 -15 hhcurveto
            return
          </CharString>
          <CharString index="267">
            370 rmoveto
            12 2 -10 -20 -45 -36 -42 -51 -34 hvcurveto
            85 22 25 66 26 hhcurveto
            -269 -606 rmoveto
            -13 -43 -33 -5 -39 hhcurveto
            -44 -51 4 28 30 70 48 41 38 35 -33 -54 27 hvcurveto
            -291 893 rmoveto
            return
          </CharString>
          <CharString index="268">
            hhcurveto
            -81 -43 26 226 callsubr
            -140 117 -49 116 return
          </CharString>
          <CharString index="269">
            501 -106 callsubr
            return
          </CharString>
          <CharString index="270">
            80 128 callsubr
            return
          </CharString>
          <CharString index="271">
            rmoveto
            -23 -34 -25 -19 -15 11 -8 20 -6 hvcurveto
            107 -34 46 -45 -21 -48 -227 -57 -34 vvcurveto
            -15 15 -8 28 52 122 46 57 77 vhcurveto
            19 14 13 36 20 vvcurveto
            56 -183 106 -43 vhcurveto
            endchar
          </CharString>
          <CharString index="272">
            -5 callgsubr
            51 30 return
          </CharString>
          <CharString index="273">
            55 callsubr
            6 18 vvcurveto
            26 94 43 134 callgsubr
            102 hlineto
            return
          </CharString>
          <CharString index="274">
            rmoveto
            40 48 26 56 vhcurveto
            157 25 -86 51 271 callgsubr
            -89 72 -72 97 44 23 16 15 hvcurveto
            51 -122 -6 84 vvcurveto
            endchar
          </CharString>
          <CharString index="275">
            rmoveto
            81 36 72 106 25 hhcurveto
            22 3 -59 -75 -18 0 -18 -1 -17 hvcurveto
            return
          </CharString>
          <CharString index="276">
            199 callgsubr
            -122 return
          </CharString>
          <CharString index="277">
            217 -78 callsubr
            -521 -65 8 callgsubr
            return
          </CharString>
          <CharString index="278">
            -38 -46 -73 -36 -56 191 callsubr
            return
          </CharString>
          <CharString index="279">
            -296 240 421 -1 callsubr
            return
          </CharString>
          <CharString index="280">
            -83 707 rmoveto
            -16 24 -7 22 19 vvcurveto
            42 37 27 63 vhcurveto
            157 25 -86 51 163 callgsubr
            -111 -91 -74 -95 -26 7 -27 15 -28 hvcurveto
            return
          </CharString>
          <CharString index="281">
            rmoveto
            182 callgsubr
            return
          </CharString>
          <CharString index="282">
            vvcurveto
            22 -2 20 -3 20 vhcurveto
            -4 20 23 -1 26 hhcurveto
            return
          </CharString>
          <CharString index="283">
            159 -236 -19 21 vvcurveto
            21 81 18 40 return
          </CharString>
          <CharString index="284">
            64 190 callgsubr
            return
          </CharString>
          <CharString index="285">
            -5 callsubr
            -86 -144 -72 -57 -29 46 -75 41 -12 hvcurveto
            -18 callgsubr
            return
          </CharString>
          <CharString index="286">
            127 35 -93 36 hhcurveto
            8 5 4 8 74 -88 121 -141 return
          </CharString>
          <CharString index="287">
            vvcurveto
            111 -43 89 -92 return
          </CharString>
          <CharString index="288">
            hhcurveto
            -198 -199 rmoveto
            -16 -28 36 23 19 30 10 46 6 hvcurveto
            -55 -8 -10 -39 -14 hhcurveto
            return
          </CharString>
          <CharString index="289">
            81 160 callgsubr
            return
          </CharString>
          <CharString index="290">
            -629 hlineto
            -53 callgsubr
            return
          </CharString>
          <CharString index="291">
            -14 -104 callsubr
            return
          </CharString>
          <CharString index="292">
            -2 15 16 -1 17 hhcurveto
            2 hlineto
            -8 -27 -5 -27 -2 -28 rrcurveto
            return
          </CharString>
          <CharString index="293">
            343 -107 callgsubr
            return
          </CharString>
          <CharString index="294">
            297 callgsubr
            -41 -17 -34 -27 -31 hvcurveto
            -32 return
          </CharString>
          <CharString index="295">
            125 97 70 87 23 -49 38 -24 return
          </CharString>
          <CharString index="296">
            -38 55 -49 99 -36 85 rrcurveto
            return
          </CharString>
          <CharString index="297">
            rmoveto
            -53 callgsubr
            35 return
          </CharString>
          <CharString index="298">
            21 callsubr
            -208 108 174 callsubr
            return
          </CharString>
          <CharString index="299">
            48 57 1 40 hhcurveto
            return
          </CharString>
          <CharString index="300">
            -10 callsubr
            -169 -393 rmoveto
            -16 -28 36 23 18 30 12 46 8 hvcurveto
            -56 -7 -11 -41 -14 hhcurveto
            return
          </CharString>
          <CharString index="301">
            -5 -24 -6 -24 -7 -23 return
          </CharString>
          <CharString index="302">
            49 15 62 71 hhcurveto
            24 6 -19 -27 -89 -53 -86 -103 -14 -7 7 13 hvcurveto
            18 9 12 17 vvcurveto
            14 -8 8 -18 -42 -32 -36 -43 -56 39 -53 89 return
          </CharString>
          <CharString index="303">
            196 634 -196 hlineto
            236 -185 rmoveto
            196 185 -196 hlineto
            return
          </CharString>
          <CharString index="304">
            rmoveto
            -41 63 -98 35 25 16 23 26 42 -39 138 -51 -22 -27 -55 -35 vhcurveto
            return
          </CharString>
          <CharString index="305">
            -143 -81 -168 -116 286 callgsubr
            return
          </CharString>
          <CharString index="306">
            296 callsubr
            44 -15 return
          </CharString>
          <CharString index="307">
            283 263 rmoveto
            115 22 77 16 32 vvcurveto
            19 -22 12 -49 -154 -199 -30 -36 -29 33 -42 28 25 65 20 16 81 vhcurveto
            endchar
          </CharString>
          <CharString index="308">
            -31 53 -54 34 return
          </CharString>
          <CharString index="309">
            269 callgsubr
            41 49 255 callsubr
            hvcurveto
            -39 28 -82 -195 hhcurveto
            -83 -56 13 31 45 147 141 49 hvcurveto
            47 11 -67 26 hhcurveto
            return
          </CharString>
          <CharString index="310">
            63 -75 callgsubr
            return
          </CharString>
          <CharString index="311">
            -100 callsubr
            -378 108 rmoveto
            return
          </CharString>
          <CharString index="312">
            -2 vlineto
            -1 vlineto
            return
          </CharString>
          <CharString index="313">
            -26 -32 -19 -36 -36 vvcurveto
            -53 38 -30 64 101 101 48 56 80 vhcurveto
            -9 return
          </CharString>
          <CharString index="314">
            136 callsubr
            77 71 23 36 58 return
          </CharString>
          <CharString index="315">
            -97 80 -52 120 return
          </CharString>
          <CharString index="316">
            rmoveto
            -2 -15 -2 -15 -2 -15 -49 -152 -144 -89 -142 -20 rrcurveto
            81 44 113 107 106 vvcurveto
            17 -2 17 -5 15 vhcurveto
            return
          </CharString>
          <CharString index="317">
            703 -106 callsubr
            return
          </CharString>
          <CharString index="318">
            -426 -83 callgsubr
            return
          </CharString>
          <CharString index="319">
            hhcurveto
            214 callgsubr
            hvcurveto
            return
          </CharString>
          <CharString index="320">
            3 0 3 -1 return
          </CharString>
          <CharString index="321">
            -78 -67 -59 -71 return
          </CharString>
          <CharString index="322">
            327 callgsubr
            85 88 48 72 68 vhcurveto
            -9 -36 -6 -27 -11 303 callgsubr
            return
          </CharString>
          <CharString index="323">
            hhcurveto
            -31 -117 -20 -12 -79 hvcurveto
            -172 -226 rmoveto
            -16 -28 36 23 14 31 11 46 9 hvcurveto
            -54 -8 -10 -39 -15 hhcurveto
            return
          </CharString>
          <CharString index="324">
            4 callsubr
            -136 hmoveto
            return
          </CharString>
          <CharString index="325">
            144 callsubr
            75 -107 callsubr
          </CharString>
          <CharString index="326">
            -11 -68 -10 -72 rrcurveto
            return
          </CharString>
          <CharString index="327">
            -104 170 106 rmoveto
            -22 -13 50 34 110 90 81 43 16 15 -10 -13 11 hvcurveto
            -138 -8 -87 -114 -45 hhcurveto
            return
          </CharString>
          <CharString index="328">
            -74 callgsubr
            51 -107 callsubr
          </CharString>
          <CharString index="329">
            -72 -105 -104 -83 44 callsubr
            return
          </CharString>
          <CharString index="330">
            -236 -42 callsubr
            return
          </CharString>
          <CharString index="331">
            -106 callsubr
            28 48 callgsubr
            return
          </CharString>
          <CharString index="332">
            -82 callgsubr
            192 callsubr
            return
          </CharString>
          <CharString index="333">
            46 hvcurveto
            10 3 1 11 vvcurveto
            22 -48 31 -25 -29 -13 -18 -30 return
          </CharString>
          <CharString index="334">
            rmoveto
            16 -25 -31 10 -37 238 callsubr
            return
          </CharString>
          <CharString index="335">
            vvcurveto
            45 -13 36 -28 24 vhcurveto
            return
          </CharString>
          <CharString index="336">
            283 callsubr
            41 18 return
          </CharString>
          <CharString index="337">
            -12 16 43 5 42 15 return
          </CharString>
          <CharString index="338">
            276 callsubr
            rrcurveto
            -129 -13 -130 -7 -90 vvcurveto
            -75 70 -100 79 78 70 86 108 42 vhcurveto
            return
          </CharString>
          <CharString index="339">
            rrcurveto
            16 -21 -24 12 -24 hhcurveto
            -108 -117 -120 -166 -93 69 -73 71 175 107 196 200 return
          </CharString>
          <CharString index="340">
            243 rmoveto
            287 callgsubr
            40 3 45 8 47 hvcurveto
            31 -59 40 -64 34 -49 rrcurveto
            -38 -33 -33 -25 -26 hhcurveto
            return
          </CharString>
          <CharString index="341">
            334 541 rmoveto
            31 27 25 38 31 12 -19 -22 -32 -23 -33 -34 -30 vhcurveto
            -33 22 -18 27 31 vvcurveto
            return
          </CharString>
          <CharString index="342">
            274 callsubr
            -48 -33 21 28 -27 hvcurveto
            120 39 70 103 90 vvcurveto
            23 -3 22 -6 20 vhcurveto
            return
          </CharString>
          <CharString index="343">
            -25 48 -49 16 11 14 8 4 7 vhcurveto
            11 7 0 11 19 vvcurveto
            24 20 15 27 21 12 -13 -20 -46 return
          </CharString>
          <CharString index="344">
            -10 149 callgsubr
            return
          </CharString>
          <CharString index="345">
            hhcurveto
            214 callsubr
            return
          </CharString>
          <CharString index="346">
            662 131 callsubr
            return
          </CharString>
          <CharString index="347">
            rmoveto
            -9 -65 -10 -59 -9 -61 rrcurveto
            -30 -62 -60 -25 -24 hhcurveto
            -8 -3 16 26 54 16 85 27 59 hvcurveto
            return
          </CharString>
          <CharString index="348">
            hlineto
            111 callgsubr
            rrcurveto
            -157 -1 -181 -178 -123 vvcurveto
            return
          </CharString>
          <CharString index="349">
            vvcurveto
            -166 150 -119 217 89 53 29 36 23 -50 1 -90 -117 -127 62 142 return
          </CharString>
          <CharString index="350">
            105 21 70 16 30 vvcurveto
            19 -22 12 -49 return
          </CharString>
          <CharString index="351">
            hlineto
            -75 -49 -59 -82 -72 vvcurveto
            -43 31 -26 return
          </CharString>
          <CharString index="352">
            164 20 callsubr
            return
          </CharString>
          <CharString index="353">
            hhcurveto
            -142 -158 -39 -99 -68 120 -124 90 98 32 96 87 16 -1 13 -2 11 hvcurveto
            return
          </CharString>
          <CharString index="354">
            -71 56 -44 126 85 70 23 34 20 -23 28 -28 hvcurveto
            -33 -4 -15 -74 hhcurveto
            -43 -35 9 18 return
          </CharString>
          <CharString index="355">
            49 -75 callgsubr
            return
          </CharString>
          <CharString index="356">
            43 -69 43 73 callsubr
            return
          </CharString>
          <CharString index="357">
            hvcurveto
            47 11 -67 26 hhcurveto
            27 return
          </CharString>
          <CharString index="358">
            16 -4 10 -19 return
          </CharString>
          <CharString index="359">
            190 -80 callgsubr
            return
          </CharString>
          <CharString index="360">
            rmoveto
            -27 -45 25 27 31 41 17 53 8 hvcurveto
            2 -18 2 -18 -14 vvcurveto
            -33 -7 -25 -19 vhcurveto
            return
          </CharString>
          <CharString index="361">
            rmoveto
            -27 -45 33 19 33 39 14 53 5 hvcurveto
            3 -15 3 -12 -19 vvcurveto
            -33 -7 -25 -19 vhcurveto
            return
          </CharString>
          <CharString index="362">
            33 -24 63 -28 return
          </CharString>
          <CharString index="363">
            rmoveto
            -44 -22 9 26 33 51 56 37 39 29 -47 -51 17 hvcurveto
            -14 -30 -39 -12 -38 hhcurveto
            return
          </CharString>
          <CharString index="364">
            vvcurveto
            -34 -4 -34 -7 -32 vhcurveto
            5 -24 -22 2 -28 hhcurveto
            -86 -60 -34 -59 -72 70 -74 60 return
          </CharString>
          <CharString index="365">
            307 -106 callsubr
            return
          </CharString>
          <CharString index="366">
            hhcurveto
            95 102 56 47 308 callsubr
            hvcurveto
            -28 -33 -30 -118 hhcurveto
            -52 -11 20 39 return
          </CharString>
          <CharString index="367">
            203 rmoveto
            15 21 -13 -10 -31 -55 -14 -66 -4 hvcurveto
            42 31 31 30 23 hhcurveto
            return
          </CharString>
          <CharString index="368">
            hmoveto
            -91 callgsubr
            return
          </CharString>
          <CharString index="369">
            -106 callgsubr
            17 169 callsubr
            return
          </CharString>
          <CharString index="370">
            hhcurveto
            128 118 92 105 51 -29 38 -53 return
          </CharString>
          <CharString index="371">
            vvcurveto
            -58 43 -39 89 48 59 9 18 61 vhcurveto
            return
          </CharString>
          <CharString index="372">
            vvcurveto
            -80 107 -59 79 57 36 51 74 24 -1 return
          </CharString>
          <CharString index="373">
            29 hhcurveto
            10 5 -4 -9 hvcurveto
            return
          </CharString>
          <CharString index="374">
            72 230 callgsubr
            return
          </CharString>
          <CharString index="375">
            -30 -38 33 -39 hhcurveto
            return
          </CharString>
          <CharString index="376">
            vvcurveto
            -27 49 -56 return
          </CharString>
          <CharString index="377">
            hhcurveto
            -6 -3 2 4 14 28 27 35 21 hvcurveto
            43 26 50 16 4 22 rrcurveto
            return
          </CharString>
          <CharString index="378">
            68 callsubr
            -97 return
          </CharString>
          <CharString index="379">
            rmoveto
            116 callgsubr
            313 callsubr
            hvcurveto
            return
          </CharString>
          <CharString index="380">
            rmoveto
            199 callsubr
            return
          </CharString>
          <CharString index="381">
            -33 -58 -67 -20 -75 hhcurveto
            return
          </CharString>
          <CharString index="382">
            6 6 0 1 6 hvcurveto
            return
          </CharString>
          <CharString index="383">
            -3 -13 -4 -13 -4 -14 return
          </CharString>
          <CharString index="384">
            -93 -62 58 108 188 159 109 129 86 64 -74 -106 return
          </CharString>
          <CharString index="385">
            -9 -39 -6 -30 83 callsubr
            return
          </CharString>
          <CharString index="386">
            -24 hhcurveto
            -21 -9 -8 -17 -31 30 -48 42 return
          </CharString>
          <CharString index="387">
            3 -16 hhcurveto
            -114 -153 -201 -106 return
          </CharString>
          <CharString index="388">
            -29 -38 -22 -43 -40 vvcurveto
            -53 42 -30 64 return
          </CharString>
          <CharString index="389">
            vvcurveto
            -23 28 -53 24 return
          </CharString>
          <CharString index="390">
            33 96 125 41 return
          </CharString>
          <CharString index="391">
            -2 -13 -17 -52 -26 -54 -30 -49 rlinecurve
            -28 51 -29 62 -23 55 rrcurveto
            return
          </CharString>
          <CharString index="392">
            -86 -64 -96 -83 return
          </CharString>
          <CharString index="393">
            40 -44 91 -34 return
          </CharString>
          <CharString index="394">
            206 160 146 198 145 -97 111 -160 return
          </CharString>
          <CharString index="395">
            204 callgsubr
            71 -134 19 80 vvcurveto
            37 45 12 87 return
          </CharString>
          <CharString index="396">
            -180 -177 -168 -183 -139 85 -110 163 return
          </CharString>
          <CharString index="397">
            309 callgsubr
            39 89 90 64 90 return
          </CharString>
          <CharString index="398">
            53 hhcurveto
            26 16 28 51 79 return
          </CharString>
          <CharString index="399">
            22 17 -33 -29 -15 -2 -15 return
          </CharString>
          <CharString index="400">
            51 hhcurveto
            8 5 3 8 81 return
          </CharString>
          <CharString index="401" raw="1">
            94b590b4 b21a0b  
          </CharString>
          <CharString index="402">
            22 1 14 18 15 hhcurveto
            return
          </CharString>
          <CharString index="403">
            -48 -34 -23 -29 -38 return
          </CharString>
          <CharString index="404">
            0 1 4 hvcurveto
            -1 return
          </CharString>
          <CharString index="405">
            -37 -70 -28 -34 -15 36 -21 24 hvcurveto
            17 0 14 27 hhcurveto
            return
          </CharString>
          <CharString index="406">
            hlineto
            -7 -49 -8 -57 -8 -52 rrcurveto
            42 -19 -32 34 -55 hhcurveto
            return
          </CharString>
          <CharString index="407">
            295 callgsubr
            -30 rrcurveto
            5 -15 -17 3 -16 hhcurveto
            return
          </CharString>
          <CharString index="408">
            244 callgsubr
            49 38 -3 -7 return
          </CharString>
          <CharString index="409">
            26 -26 29 -25 30 -22 rrcurveto
            -10 -27 -28 -5 -29 hhcurveto
            return
          </CharString>
          <CharString index="410">
            -85 vvcurveto
            -85 117 -58 69 57 36 51 74 25 -2 return
          </CharString>
          <CharString index="411">
            96 -107 callsubr
          </CharString>
          <CharString index="412">
            -17 189 callsubr
            return
          </CharString>
          <CharString index="413">
            323 callsubr
            hvcurveto
            return
          </CharString>
          <CharString index="414">
            vvcurveto
            178 callgsubr
            return
          </CharString>
          <CharString index="415">
            15 -9 10 -28 return
          </CharString>
          <CharString index="416">
            250 callgsubr
            -24 -2 -13 -22 vvcurveto
            return
          </CharString>
          <CharString index="417">
            -12 -17 -34 -25 -28 43 -66 22 13 9 12 17 return
          </CharString>
          <CharString index="418">
            129 189 71 139 71 -35 78 -59 41 return
          </CharString>
          <CharString index="419">
            32 -35 75 -28 -21 -23 -30 -27 -29 51 -53 31 return
          </CharString>
          <CharString index="420">
            286 callsubr
            -25 -28 -37 -33 -35 62 -65 38 return
          </CharString>
          <CharString index="421">
            456 -106 callsubr
            return
          </CharString>
          <CharString index="422">
            -5 callgsubr
            41 return
          </CharString>
          <CharString index="423">
            182 callsubr
            vhcurveto
            return
          </CharString>
          <CharString index="424">
            9 -70 51 -49 63 -18 return
          </CharString>
          <CharString index="425">
            0 -1 -4 hvcurveto
            1 -5 return
          </CharString>
          <CharString index="426">
            148 31 vhcurveto
            return
          </CharString>
          <CharString index="427">
            hlineto
            -22 -154 rlineto
            319 callgsubr
            return
          </CharString>
          <CharString index="428">
            228 rmoveto
            -4 vlineto
            146 callsubr
            return
          </CharString>
          <CharString index="429">
            55 hvcurveto
            36 17 12 21 vvcurveto
            18 -43 51 -29 return
          </CharString>
          <CharString index="430">
            9 -41 hhcurveto
            -86 -40 -35 -51 return
          </CharString>
          <CharString index="431">
            vvcurveto
            -48 50 -30 57 -15 vhcurveto
            return
          </CharString>
          <CharString index="432">
            rmoveto
            -10 -9 -1 -2 -8 hvcurveto
            return
          </CharString>
          <CharString index="433">
            -44 -48 -46 -41 hvcurveto
            return
          </CharString>
          <CharString index="434">
            vvcurveto
            309 callgsubr
            return
          </CharString>
          <CharString index="435">
            554 rmoveto
            -2 return
          </CharString>
          <CharString index="436">
            rmoveto
            -49 -33 -32 -31 -42 58 -22 78 hvcurveto
            return
          </CharString>
          <CharString index="437">
            -47 20 35 24 -88 callgsubr
            vhcurveto
            return
          </CharString>
        <CharString name=".notdef">
          194 180 hmoveto
          390 701 -390 hlineto
          54 -50 rmoveto
          282 -601 -282 hlineto
          endchar
        </CharString>
        <CharString name="A">
          34 273 340 -94 callgsubr
        </CharString>
        <CharString name="AE">
          250 213 353 rmoveto
          34 81 41 85 20 22 8 8 38 3 55 3 -6 -57 -15 -62 -18 -60 -52 -6 -56 -7 -49 -10 rrcurveto
          300 34 rmoveto
          15 54 12 55 49 vvcurveto
          6 -1 6 -3 6 vhcurveto
          179 13 53 8 7 29 rrcurveto
          34 8 -88 32 -233 hhcurveto
          -159 -85 -9 -61 -24 hvcurveto
          -36 -91 -51 -99 -27 -71 rrcurveto
          -43 -113 -70 -124 -26 vvcurveto
          -36 60 -36 24 25 40 94 127 50 vhcurveto
          40 3 66 14 64 12 rrcurveto
          -17 -60 -14 -52 -38 145 callgsubr
          191 55 267 callsubr
          -125 -36 -142 hhcurveto
          -11 -4 2 8 28 19 54 21 64 hvcurveto
          108 15 87 10 35 vvcurveto
          36 -66 5 -77 vhcurveto
          endchar
        </CharString>
        <CharString name="Aacute">
          34 538 801 143 callgsubr
          -154 -399 -94 callgsubr
        </CharString>
        <CharString name="Abreve">
          34 380 706 rmoveto
          79 92 75 55 17 -11 12 -18 hvcurveto
          -41 -19 -69 -69 -76 12 110 -35 hhcurveto
          -21 -41 -22 -50 -57 60 -71 88 hvcurveto
          -107 -366 -94 callgsubr
        </CharString>
        <CharString name="Acircumflex">
          34 241 716 37 callsubr
          32 -376 -94 callgsubr
        </CharString>
        <CharString name="Adieresis">
          34 475 712 rmoveto
          18 22 22 15 -38 callsubr
          hvcurveto
          -170 hmoveto
          18 22 22 15 -38 callsubr
          hvcurveto
          -32 -372 -94 callgsubr
        </CharString>
        <CharString name="Agrave">
          34 291 743 rmoveto
          -8 callgsubr
          -31 -31 1 -49 23 -15 rrcurveto
          89 -474 -94 callgsubr
        </CharString>
        <CharString name="Amacron">
          34 230 721 rmoveto
          238 callgsubr
          hvcurveto
          -9 callsubr
          vhcurveto
          43 -381 -94 callgsubr
        </CharString>
        <CharString name="Aogonek">
          34 273 340 rmoveto
          26 73 24 70 17 43 7 -47 5 -53 9 -74 -30 -3 -30 -4 -28 -5 rrcurveto
          209 21 rmoveto
          147 -17 -32 164 -49 hhcurveto
          -34 -88 -33 -37 -13 hvcurveto
          -32 -92 -42 -91 -27 -71 -5 -14 -6 -15 -6 -14 rrcurveto
          -46 -16 -28 -17 -16 vvcurveto
          -22 12 -18 16 -12 vhcurveto
          -27 -58 -23 -46 -15 vvcurveto
          -36 60 -36 24 25 42 94 110 42 vhcurveto
          19 6 22 7 24 6 23 6 28 6 28 7 8 -75 7 -65 13 -44 rrcurveto
          -53 -40 -71 -80 105 callsubr
          16 12 10 14 5 13 rrcurveto
          15 24 5 49 53 vvcurveto
          27 -2 47 -5 54 vhcurveto
          50 15 36 15 19 vvcurveto
          27 -38 2 -27 vhcurveto
          endchar
        </CharString>
        <CharString name="Aring">
          34 357 806 151 callsubr
          -103 -360 -94 callgsubr
        </CharString>
        <CharString name="Atilde">
          34 225 710 rmoveto
          2 callgsubr
          139 callgsubr
          48 -370 -94 callgsubr
        </CharString>
        <CharString name="B">
          29 238 306 rmoveto
          -12 12 16 -9 13 hhcurveto
          46 98 -18 -29 -44 -139 -50 -100 -19 hvcurveto
          11 16 9 38 18 68 rrcurveto
          145 297 rmoveto
          29 20 -6 -20 -55 -66 -31 -56 -27 hvcurveto
          -12 -6 -12 -6 -10 -5 rrcurveto
          13 49 6 29 20 vvcurveto
          12 -10 17 -14 16 vhcurveto
          6 38 41 7 33 hhcurveto
          40 -197 rmoveto
          91 48 52 65 65 vvcurveto
          101 -115 40 -174 -84 -70 -22 -33 -14 24 -42 26 -20 vhcurveto
          -6 -146 -66 -155 -40 vvcurveto
          -29 42 -34 28 -11 vhcurveto
          -2 -14 -13 -1 -11 -46 -18 33 -23 hhcurveto
          -18 -12 -14 -20 -36 66 -73 64 182 235 110 117 52 -59 44 -81 17 hvcurveto
          endchar
        </CharString>
        <CharString name="C">
          16 538 553 51 callgsubr
        </CharString>
        <CharString name="CR">
          endchar
        </CharString>
        <CharString name="Cacute">
          16 550 906 -71 callsubr
          -12 -353 51 callgsubr
        </CharString>
        <CharString name="Ccaron">
          16 576 876 -39 callgsubr
          -38 -323 51 callgsubr
        </CharString>
        <CharString name="Ccedilla">
          16 552 180 rmoveto
          16 -10 16 -15 vhcurveto
          -31 -107 -71 -156 hhcurveto
          -46 -11 20 41 142 187 197 95 hvcurveto
          36 5 -9 326 callgsubr
          -53 76 -44 -190 -216 -293 -173 -63 69 -83 75 -33 hvcurveto
          -18 -42 -21 -35 -20 16 callsubr
          9 15 8 15 6 14 rrcurveto
          122 10 170 102 54 vvcurveto
          endchar
        </CharString>
        <CharString name="D">
          49 180 149 112 callgsubr
        </CharString>
        <CharString name="Dcaron">
          49 341 698 -25 callsubr
          -161 -549 112 callgsubr
        </CharString>
        <CharString name="Dcroat">
          53 callgsubr
        </CharString>
        <CharString name="E">
          1 142 601 -86 callgsubr
        </CharString>
        <CharString name="Eacute">
          1 572 801 143 callgsubr
          -319 -138 -86 callgsubr
        </CharString>
        <CharString name="Ecaron">
          1 384 698 -25 callsubr
          -242 -97 -86 callgsubr
        </CharString>
        <CharString name="Ecircumflex">
          1 275 716 37 callsubr
          -133 -115 -86 callgsubr
        </CharString>
        <CharString name="Edieresis">
          1 509 712 rmoveto
          18 22 22 15 -38 callsubr
          hvcurveto
          -170 hmoveto
          18 22 22 15 -38 callsubr
          hvcurveto
          -197 -111 -86 callgsubr
        </CharString>
        <CharString name="Edotaccent">
          1 418 702 rmoveto
          18 22 22 15 -38 callsubr
          hvcurveto
          -276 -101 -86 callgsubr
        </CharString>
        <CharString name="Egrave">
          1 325 743 rmoveto
          -8 callgsubr
          -31 -31 1 -49 23 -15 rrcurveto
          -76 -213 -86 callgsubr
        </CharString>
        <CharString name="Emacron">
          1 264 721 rmoveto
          238 callgsubr
          hvcurveto
          -9 callsubr
          vhcurveto
          -122 -120 -86 callgsubr
        </CharString>
        <CharString name="Eogonek">
          1 142 601 rmoveto
          -162 -107 -221 -105 vvcurveto
          -51 61 -49 64 37 40 3 7 39 vhcurveto
          -20 -30 -14 -31 -27 -39 callsubr
          14 11 11 13 5 12 rrcurveto
          37 20 23 23 25 vvcurveto
          230 callgsubr
          -125 -36 -142 hhcurveto
          -11 -4 2 8 29 20 55 21 65 hvcurveto
          113 3 153 26 60 vvcurveto
          13 -17 11 -22 vhcurveto
          -43 -54 -10 -97 hhcurveto
          14 51 10 51 1 47 27 5 30 8 34 5 rrcurveto
          114 17 127 308 callgsubr
          -119 7 -98 -162 -65 -6 -38 -13 vhcurveto
          -2 -5 -1 -5 -7 vvcurveto
          endchar
        </CharString>
        <CharString name="Eth">
          53 callgsubr
        </CharString>
        <CharString name="Euro">
          54 231 195 rmoveto
          157 22 198 30 37 vvcurveto
          24 -54 4 -59 -61 -96 -6 -9 -88 vhcurveto
          5 16 7 16 9 17 12 1 14 1 15 1 rrcurveto
          87 5 218 17 35 vvcurveto
          21 -21 11 -46 5 vhcurveto
          3 -28 -82 3 -90 hhcurveto
          58 60 74 43 61 29 12 -38 11 hhcurveto
          16 20 28 24 30 -48 78 -44 -143 -128 -104 -125 -76 hvcurveto
          -71 -6 -54 -11 -19 282 callsubr
          8 7 0 1 7 vhcurveto
          -5 -17 -4 -17 -3 -16 rrcurveto
          -60 -9 -41 -10 -9 282 callsubr
          vhcurveto
          16 14 1 14 hhcurveto
          -95 14 67 -71 142 hhcurveto
          123 173 85 57 16 -10 16 -15 hvcurveto
          -31 -105 -57 -131 hhcurveto
          -61 -29 24 41 -13 hvcurveto
          endchar
        </CharString>
        <CharString name="F">
          -63 120 601 rmoveto
          -96 -105 -331 -65 vvcurveto
          -27 59 -69 26 17 18 92 113 31 vhcurveto
          11 41 rlineto
          89 2 182 27 60 vvcurveto
          13 -17 11 -22 vhcurveto
          -43 -54 -10 -81 hhcurveto
          -10 -10 0 1 -9 hvcurveto
          19 85 13 72 22 vvcurveto
          3 vlineto
          30 4 35 6 40 4 rrcurveto
          115 10 99 1 38 vvcurveto
          37 -92 17 -98 -162 -65 -6 -38 -13 vhcurveto
          -2 -5 -1 -5 -7 vvcurveto
          endchar
        </CharString>
        <CharString name="G">
          6 424 349 3 callsubr
          endchar
        </CharString>
        <CharString name="Gbreve">
          6 424 349 3 callsubr
          182 516 99 callsubr
        </CharString>
        <CharString name="H">
          62 209 264 rmoveto
          22 5 26 6 29 5 40 7 40 6 37 5 rrcurveto
          -24 -92 -22 -79 -22 vvcurveto
          -44 55 -48 26 17 16 91 114 33 vhcurveto
          29 101 rlineto
          43 9 27 12 19 vvcurveto
          18 -21 10 -27 6 vhcurveto
          23 81 17 63 20 72 callgsubr
          -47 -22 -96 -26 -99 vhcurveto
          -53 -2 -71 -7 -65 -11 rrcurveto
          23 87 16 70 21 72 callgsubr
          -55 -32 -124 -30 -116 vhcurveto
          -30 -10 -19 -11 -12 vvcurveto
          -21 11 -19 15 -12 vhcurveto
          -19 -71 -14 -58 -23 vvcurveto
          -27 59 -69 26 17 16 91 114 33 vhcurveto
          endchar
        </CharString>
        <CharString name="I">
          -26 callsubr
          endchar
        </CharString>
        <CharString name="Iacute">
          -26 callsubr
          214 265 -71 callsubr
          endchar
        </CharString>
        <CharString name="Icircumflex">
          -26 callsubr
          197 187 165 callgsubr
        </CharString>
        <CharString name="Idieresis">
          -26 callsubr
          90 108 rmoveto
          -38 callsubr
          202 callgsubr
          vhcurveto
          170 hmoveto
          -38 callsubr
          202 callgsubr
          vhcurveto
          endchar
        </CharString>
        <CharString name="Idotaccent">
          -26 callsubr
          42 146 152 callgsubr
        </CharString>
        <CharString name="Igrave">
          -26 callsubr
          -64 268 rmoveto
          -31 -31 1 -49 23 -15 107 -71 rcurveline
          -8 callgsubr
          rrcurveto
          endchar
        </CharString>
        <CharString name="Imacron">
          -26 callsubr
          114 102 rmoveto
          -9 callsubr
          238 callgsubr
          vhcurveto
          endchar
        </CharString>
        <CharString name="Iogonek">
          -275 112 -10 rmoveto
          16 13 11 14 5 14 18 38 14 93 21 99 rrcurveto
          33 157 26 106 33 vvcurveto
          50 -70 177 callsubr
          -96 -88 -403 -44 vvcurveto
          -8 6 -12 9 -12 vhcurveto
          -52 -42 -65 -76 -59 -39 callsubr
          endchar
        </CharString>
        <CharString name="J">
          -104 28 218 rmoveto
          -17 -6 -12 -28 -57 98 -108 96 125 1 113 300 102 hvcurveto
          24 71 46 116 27 vvcurveto
          24 -24 9 -20 -61 -270 -38 -66 -19 16 -17 30 27 103 18 9 49 vhcurveto
          -13 -27 -19 -76 -12 -46 rrcurveto
          -169 -45 -36 -125 -34 -85 -41 101 -34 hhcurveto
          endchar
        </CharString>
        <CharString name="K">
          -9 111 13 85 callgsubr
        </CharString>
        <CharString name="L">
          -60 299 596 11 callgsubr
          endchar
        </CharString>
        <CharString name="Lacute">
          -60 427 906 -71 callsubr
          -128 -310 11 callgsubr
          endchar
        </CharString>
        <CharString name="Lcaron">
          -60 416 573 rmoveto
          -24 -46 -66 -21 -35 vvcurveto
          -20 16 -7 15 98 callgsubr
          -26 -42 -34 -24 -26 29 -17 31 -4 vhcurveto
          -117 23 11 callgsubr
          endchar
        </CharString>
        <CharString name="Lslash">
          -60 242 358 rmoveto
          110 36 43 17 -4 26 -3 19 -23 3 -48 -7 -48 -8 rcurveline
          17 57 13 54 41 vvcurveto
          249 callsubr
          -51 -26 -91 -30 -94 vhcurveto
          -71 -17 -49 -18 3 -20 3 -20 34 -34 28 5 5 1 6 1 8 2 rrcurveto
          -28 -88 -25 -79 -36 145 callgsubr
          161 49 267 callsubr
          -95 -30 -142 hhcurveto
          -11 -4 2 8 22 15 45 20 55 hvcurveto
          11 30 12 32 11 33 rrcurveto
          endchar
        </CharString>
        <CharString name="M">
          177 295 585 rmoveto
          27 -95 59 -20 -21 -6 -11 -19 vhcurveto
          -106 -118 -361 -65 vvcurveto
          -27 50 -69 22 21 24 91 114 34 vhcurveto
          13 44 13 49 12 34 29 -60 19 -43 19 -20 rrcurveto
          -19 19 36 -15 18 hhcurveto
          62 75 125 84 82 hvcurveto
          -38 -91 -25 -133 -60 vvcurveto
          -48 29 -52 26 37 9 85 170 48 vhcurveto
          37 132 42 117 65 vvcurveto
          31 -41 38 -29 -50 -136 -192 -123 -112 vhcurveto
          -44 89 -41 124 36 vvcurveto
          endchar
        </CharString>
        <CharString name="N">
          81 627 586 101 callgsubr
        </CharString>
        <CharString name="NULL">
          endchar
        </CharString>
        <CharString name="Nacute">
          81 489 906 -71 callsubr
          138 -320 101 callgsubr
        </CharString>
        <CharString name="Ncaron">
          81 515 876 -39 callgsubr
          112 -290 101 callgsubr
        </CharString>
        <CharString name="Ntilde">
          81 627 586 -48 callsubr
          -299 303 rmoveto
          139 callgsubr
          2 callgsubr
          endchar
        </CharString>
        <CharString name="O">
          129 callsubr
          endchar
        </CharString>
        <CharString name="OE">
          367 208 129 rmoveto
          -25 -17 33 54 157 134 175 58 35 26 -43 -92 -104 -126 -180 -85 hvcurveto
          344 263 rmoveto
          12 47 9 49 2 50 29 6 34 9 38 6 rrcurveto
          114 17 127 308 callgsubr
          -119 7 -98 -144 -68 -5 -28 -22 vhcurveto
          27 -31 -38 16 -43 hhcurveto
          -139 -180 -233 -234 -80 74 -112 92 59 55 22 36 48 hvcurveto
          -33 22 44 -25 46 hhcurveto
          150 191 55 72 251 callsubr
          hvcurveto
          -25 -125 -36 -142 hhcurveto
          -11 -4 2 8 38 17 51 19 60 hvcurveto
          112 2 159 26 61 vvcurveto
          13 -17 11 -22 vhcurveto
          -43 -55 -10 -98 hhcurveto
          endchar
        </CharString>
        <CharString name="Oacute">
          7 510 906 -71 callsubr
          -475 -701 -62 callsubr
          endchar
        </CharString>
        <CharString name="Ocircumflex">
          7 493 828 -37 callgsubr
          -458 -623 -62 callsubr
          endchar
        </CharString>
        <CharString name="Odieresis">
          7 386 749 rmoveto
          -38 callsubr
          202 callgsubr
          vhcurveto
          170 hmoveto
          -38 callsubr
          202 callgsubr
          vhcurveto
          -521 -544 -62 callsubr
          endchar
        </CharString>
        <CharString name="Ograve">
          129 callsubr
          -126 361 rmoveto
          -31 -31 1 -49 23 -15 107 -71 rcurveline
          -8 callgsubr
          rrcurveto
          endchar
        </CharString>
        <CharString name="Ohungarumlaut">
          7 413 926 -11 callgsubr
          -561 -706 -62 callsubr
          endchar
        </CharString>
        <CharString name="Omacron">
          7 410 743 rmoveto
          -9 callsubr
          238 callgsubr
          vhcurveto
          -375 -538 -62 callsubr
          endchar
        </CharString>
        <CharString name="Oslash">
          33 455 435 rmoveto
          -115 -161 -204 -88 -9 -9 4 8 -9 vhcurveto
          57 68 86 103 133 148 rrcurveto
          -81 123 rmoveto
          23 18 -7 -13 13 hvcurveto
          -48 -55 -55 -68 -57 -71 -38 -48 -40 -48 -36 -44 rrcurveto
          156 9 155 198 56 hhcurveto
          188 -5 rmoveto
          34 37 9 24 14 vvcurveto
          19 -14 12 -19 -18 -26 -18 -30 -32 vhcurveto
          30 -34 -45 19 -53 hhcurveto
          -139 -190 -233 -234 -31 13 -36 20 -32 hvcurveto
          -21 -29 -13 -21 -8 vvcurveto
          -18 10 -18 18 12 15 12 29 26 vhcurveto
          -24 28 33 -16 35 hhcurveto
          196 171 245 170 44 -10 42 -18 38 hvcurveto
          endchar
        </CharString>
        <CharString name="Otilde">
          129 callsubr
          -9 341 rmoveto
          139 callgsubr
          2 callgsubr
          endchar
        </CharString>
        <CharString name="P">
          -57 210 336 rmoveto
          22 84 8 43 39 vvcurveto
          14 -5 16 -9 15 vhcurveto
          11 23 28 10 33 hhcurveto
          49 37 -23 -49 -58 -76 -62 -110 -40 hvcurveto
          -33 -113 rmoveto
          194 40 148 115 136 vvcurveto
          112 -73 64 -152 -78 -122 -39 -40 -10 12 -24 16 -21 vhcurveto
          -8 -205 -89 -190 -62 276 callgsubr
          21 87 115 34 vhcurveto
          endchar
        </CharString>
        <CharString name="Q">
          62 222 424 rmoveto
          -54 26 -120 37 -115 vhcurveto
          -4 -13 -13 -2 -13 hhcurveto
          -45 -35 33 54 66 22 79 34 65 hvcurveto
          237 1 rmoveto
          -89 -32 -81 -46 -56 vhcurveto
          -26 92 -20 107 119 vvcurveto
          11 2 8 4 8 vhcurveto
          1 6 5 1 6 hhcurveto
          35 66 -61 -60 hvcurveto
          129 1 rmoveto
          125 -117 119 -117 -164 -155 -233 -234 -67 95 -125 109 30 28 4 9 27 vhcurveto
          -98 39 44 -76 37 hhcurveto
          23 15 9 24 36 -29 65 -32 90 hvcurveto
          105 80 62 145 127 vvcurveto
          endchar
        </CharString>
        <CharString name="R">
          -33 218 366 -44 callgsubr
          endchar
        </CharString>
        <CharString name="Racute">
          -33 218 366 -44 callgsubr
          173 595 24 callgsubr
        </CharString>
        <CharString name="Rcaron">
          -33 337 698 -25 callsubr
          -119 -332 -44 callgsubr
          endchar
        </CharString>
        <CharString name="S">
          -66 206 13 -17 callsubr
          endchar
        </CharString>
        <CharString name="Sacute">
          -66 498 906 -71 callsubr
          -292 -893 -17 callsubr
          endchar
        </CharString>
        <CharString name="Scaron">
          -66 524 876 -39 callgsubr
          -318 -863 -17 callsubr
          endchar
        </CharString>
        <CharString name="T">
          -97 303 662 37 callgsubr
        </CharString>
        <CharString name="Tcaron">
          -97 313 698 -25 callsubr
          -10 -36 37 callgsubr
        </CharString>
        <CharString name="Thorn">
          -30 189 249 rmoveto
          13 51 15 54 12 50 rrcurveto
          7 19 19 4 16 hhcurveto
          41 37 -20 -25 -77 -102 -40 -70 -4 hvcurveto
          280 117 rmoveto
          62 -90 101 -81 -13 -14 -1 -2 -15 vhcurveto
          3 16 2 14 9 vvcurveto
          71 -74 38 -23 -21 -6 -11 -19 vhcurveto
          -206 -94 -279 -65 vvcurveto
          -27 35 -56 26 25 14 50 92 23 vhcurveto
          163 4 140 93 116 vvcurveto
          endchar
        </CharString>
        <CharString name="U">
          38 callgsubr
          endchar
        </CharString>
        <CharString name="Uacute">
          -13 486 906 -71 callsubr
          -234 -338 -65 callgsubr
          endchar
        </CharString>
        <CharString name="Ucircumflex">
          -13 469 828 -37 callgsubr
          -217 -260 -65 callgsubr
          endchar
        </CharString>
        <CharString name="Udieresis">
          -13 362 749 rmoveto
          -38 callsubr
          202 callgsubr
          vhcurveto
          170 hmoveto
          -38 callsubr
          202 callgsubr
          vhcurveto
          -280 -181 -65 callgsubr
          endchar
        </CharString>
        <CharString name="Ugrave">
          38 callgsubr
          -44 341 rmoveto
          -31 -31 1 -49 23 -15 107 -71 rcurveline
          -8 callgsubr
          rrcurveto
          endchar
        </CharString>
        <CharString name="Uhungarumlaut">
          38 callgsubr
          137 358 -11 callgsubr
          endchar
        </CharString>
        <CharString name="Umacron">
          38 callgsubr
          134 175 rmoveto
          -9 callsubr
          238 callgsubr
          vhcurveto
          endchar
        </CharString>
        <CharString name="Uogonek">
          -13 268 6 rmoveto
          11 9 9 9 6 10 rrcurveto
          149 80 95 273 143 vvcurveto
          79 -101 64 -29 -19 -6 -10 -16 vhcurveto
          -30 12 -13 -89 vvcurveto
          -161 -104 -208 -70 -35 -7 44 52 vhcurveto
          109 73 148 69 vvcurveto
          50 -74 54 190 callgsubr
          -92 -80 -177 -169 vvcurveto
          -64 47 -84 65 -32 vhcurveto
          -32 -38 -26 -44 -37 -39 callsubr
          endchar
        </CharString>
        <CharString name="Uring">
          -13 411 916 151 callgsubr
          -152 -278 -65 callgsubr
          endchar
        </CharString>
        <CharString name="V">
          -72 487 671 rmoveto
          -41 -147 -267 -160 -66 hvcurveto
          -35 141 -13 152 -19 45 263 callgsubr
          -63 87 -416 34 -81 hvcurveto
          -29 12 44 -31 18 hhcurveto
          53 43 135 166 88 hvcurveto
          83 157 72 96 52 vvcurveto
          25 -46 27 -31 vhcurveto
          endchar
        </CharString>
        <CharString name="W">
          217 460 672 rmoveto
          -33 -20 -10 -27 -25 38 -50 43 78 49 -85 -94 -116 -57 -129 -59 hvcurveto
          -95 9 246 -53 hhcurveto
          -47 -75 -68 -92 -63 hvcurveto
          17 146 49 164 39 vvcurveto
          48 -83 52 -39 -15 -10 -11 -27 vhcurveto
          -251 -44 -127 -159 vvcurveto
          -42 50 -41 18 35 39 46 99 76 vhcurveto
          19 25 16 20 15 20 rrcurveto
          -109 24 45 -101 107 hhcurveto
          160 99 176 170 159 -87 154 -206 hvcurveto
          endchar
        </CharString>
        <CharString name="X">
          30 516 672 rmoveto
          -44 -44 -51 -191 -134 hvcurveto
          -41 72 -29 68 51 vvcurveto
          29 -76 22 -45 -17 -1 -21 -16 -57 60 -127 75 -124 vhcurveto
          -79 -109 -62 -80 -31 -32 rrcurveto
          -15 -16 -8 -5 -12 vvcurveto
          -22 59 -38 34 48 70 100 92 63 vhcurveto
          -108 75 76 -85 36 hhcurveto
          23 23 15 29 28 -81 104 -80 118 hvcurveto
          93 126 45 62 38 40 rrcurveto
          29 31 30 -1 23 vvcurveto
          28 -67 57 -23 vhcurveto
          endchar
        </CharString>
        <CharString name="Y">
          38 callsubr
          endchar
        </CharString>
        <CharString name="Yacute">
          38 callsubr
          152 527 -71 callsubr
          endchar
        </CharString>
        <CharString name="Ydieresis">
          38 callsubr
          28 370 rmoveto
          -38 callsubr
          202 callgsubr
          vhcurveto
          170 hmoveto
          -38 callsubr
          202 callgsubr
          vhcurveto
          endchar
        </CharString>
        <CharString name="Z">
          19 470 624 -20 callgsubr
          endchar
        </CharString>
        <CharString name="Zacute">
          19 502 906 -71 callsubr
          -32 -282 -20 callgsubr
          endchar
        </CharString>
        <CharString name="Zcaron">
          19 528 876 -39 callgsubr
          -58 -252 -20 callgsubr
          endchar
        </CharString>
        <CharString name="Zdotaccent">
          19 470 624 -20 callgsubr
          -140 163 152 callgsubr
        </CharString>
        <CharString name="a">
          -38 168 126 83 callgsubr
        </CharString>
        <CharString name="aacute">
          -38 168 126 -76 callgsubr
          61 140 24 callgsubr
        </CharString>
        <CharString name="abreve">
          -38 168 126 -76 callgsubr
          221 192 99 callsubr
        </CharString>
        <CharString name="acircumflex">
          -38 168 126 -76 callgsubr
          151 155 165 callgsubr
        </CharString>
        <CharString name="acute">
          134 852 -71 callsubr
          endchar
        </CharString>
        <CharString name="adieresis">
          -38 344 562 rmoveto
          18 22 22 15 -38 callsubr
          hvcurveto
          -176 -436 -76 callgsubr
          145 190 rmoveto
          -27 -31 -39 -27 201 callsubr
          202 callgsubr
          26 -42 88 -27 hvcurveto
          endchar
        </CharString>
        <CharString name="ae">
          213 340 523 rmoveto
          -151 -155 -272 -105 -57 81 -76 57 53 66 50 61 56 hvcurveto
          -64 24 60 -47 94 hhcurveto
          -15 callgsubr
          150 callgsubr
          -47 -51 -29 -44 -44 hvcurveto
          40 -31 -51 33 -37 hhcurveto
          147 -217 rmoveto
          58 33 48 49 39 hhcurveto
          149 callsubr
          -13 -15 1 2 -15 hvcurveto
          -132 103 rmoveto
          16 9 -22 -38 3 hvcurveto
          -16 -28 -13 -29 -8 -30 rrcurveto
          -88 -51 -89 -48 -38 316 callgsubr
          122 201 88 hvcurveto
          endchar
        </CharString>
        <CharString name="agrave">
          -38 330 593 rmoveto
          -8 callgsubr
          -31 -31 1 -49 23 -15 rrcurveto
          -55 -538 83 callgsubr
        </CharString>
        <CharString name="amacron">
          -38 168 126 -76 callgsubr
          155 147 rmoveto
          -154 -128 -4 -36 -21 28 -38 28 238 callgsubr
          hvcurveto
          115 18 43 7 26 vvcurveto
          19 -22 7 -49 vhcurveto
          endchar
        </CharString>
        <CharString name="ampersand">
          44 131 112 rmoveto
          23 56 48 68 59 vhcurveto
          13 -20 14 -21 15 -19 rrcurveto
          -42 -68 -61 -31 -33 hhcurveto
          -3 -1 1 2 hvcurveto
          155 393 rmoveto
          47 17 37 35 21 12 -23 -28 -32 -31 -40 -44 -43 vhcurveto
          -6 29 -4 27 26 vvcurveto
          304 -401 rmoveto
          -47 -46 20 32 -40 hvcurveto
          118 82 99 90 33 vvcurveto
          23 -8 15 -33 -19 -115 -85 -78 -117 vhcurveto
          -18 24 -15 27 -14 27 rrcurveto
          84 78 77 88 76 vvcurveto
          50 -26 91 -100 283 callgsubr
          -51 15 -61 26 -61 vhcurveto
          -96 -81 -103 -80 -49 vvcurveto
          -48 61 -84 61 57 94 44 57 94 vhcurveto
          -54 60 67 -35 66 hhcurveto
          75 41 24 39 23 -23 7 -68 hvcurveto
          endchar
        </CharString>
        <CharString name="aogonek">
          -38 168 126 rmoveto
          -16 -7 6 15 61 122 201 88 17 9 -25 -43 2 hvcurveto
          -10 -1 -5 -5 -2 -9 rrcurveto
          -129 -30 -122 -71 -46 hhcurveto
          179 -54 rmoveto
          -53 -40 -72 -81 105 callsubr
          19 15 12 17 2 16 8 23 3 36 7 37 rrcurveto
          14 77 18 32 30 vvcurveto
          7 -7 10 -9 10 vhcurveto
          15 27 13 33 24 vvcurveto
          320 callgsubr
          -151 -155 -272 -105 -57 81 -76 57 50 61 44 56 53 vhcurveto
          3 -15 4 -13 5 -13 rrcurveto
          endchar
        </CharString>
        <CharString name="approxequal">
          29 202 317 74 callsubr
          60 260 74 callsubr
          endchar
        </CharString>
        <CharString name="aring">
          -38 168 126 -76 callgsubr
          111 133 rmoveto
          -21 -1 -14 -18 -15 hhcurveto
          -15 -12 18 21 2 hvcurveto
          295 callsubr
          15 12 -18 -22 -2 hvcurveto
          -18 110 rmoveto
          -56 -49 -49 -59 -6 hvcurveto
          -59 -5 41 -49 57 hhcurveto
          56 49 49 59 6 hvcurveto
          59 5 -41 49 -57 hhcurveto
          endchar
        </CharString>
        <CharString name="asciicircum">
          -134 367 673 rmoveto
          -45 106 -3 46 -20 16 rrcurveto
          11 -14 -42 19 -28 hhcurveto
          -54 -129 -214 -63 -27 33 -32 28 23 7 38 51 31 hvcurveto
          27 45 19 30 34 37 rrcurveto
          -77 43 71 -124 39 hhcurveto
          16 6 6 16 16 -15 36 -27 64 hvcurveto
          endchar
        </CharString>
        <CharString name="asciitilde">
          32 232 437 74 callsubr
          endchar
        </CharString>
        <CharString name="asterisk">
          -186 199 556 rmoveto
          -16 21 -21 17 15 12 59 34 5 vhcurveto
          -24 19 37 -40 20 hhcurveto
          11 15 9 11 13 -64 46 -17 22 hvcurveto
          59 2 78 4 25 vvcurveto
          10 -20 4 -26 -21 -33 -2 -11 -33 vhcurveto
          39 18 57 36 10 vvcurveto
          16 -25 18 -13 -13 -34 -44 -25 -27 vhcurveto
          6 17 11 21 11 vvcurveto
          17 -38 26 -16 -9 -4 -4 -12 vhcurveto
          -14 5 -39 -20 vvcurveto
          -11 7 -20 26 9 vvcurveto
          16 -51 12 -26 -11 0 -6 -9 -13 43 -50 41 -27 vhcurveto
          -36 -49 5 -10 hhcurveto
          -12 -6 -5 -9 -16 18 -26 25 17 35 8 7 22 hvcurveto
          -32 -27 -56 -31 -12 vvcurveto
          -11 16 -19 16 12 50 49 24 17 vhcurveto
          -3 -13 -23 -34 -12 vvcurveto
          endchar
        </CharString>
        <CharString name="at">
          816 621 140 rmoveto
          -16 -5 11 15 45 105 178 80 17 14 -18 -32 11 hvcurveto
          -6 -2 -3 -4 -2 -7 rrcurveto
          -103 -24 -134 -83 -37 hhcurveto
          459 506 rmoveto
          60 -62 -84 23 -88 hhcurveto
          -360 -259 -341 -266 -176 179 -136 173 104 162 64 73 62 -90 -84 -189 -138 -56 75 124 219 222 262 254 127 74 -75 -136 -136 -106 -94 -28 -11 20 68 41 6 -6 9 -8 9 hvcurveto
          9 17 7 21 19 vvcurveto
          73 -90 76 -56 -151 -140 -240 -98 -57 81 -76 57 49 58 43 52 52 vhcurveto
          -42 9 27 -42 55 hhcurveto
          119 182 174 168 137 -39 66 -59 58 hvcurveto
          endchar
        </CharString>
        <CharString name="atilde">
          -38 168 126 -76 callgsubr
          218 204 rmoveto
          -48 -10 -65 -12 -28 hvcurveto
          13 -32 -13 76 -80 hhcurveto
          139 callgsubr
          50 0 68 23 46 hvcurveto
          -60 34 46 -40 42 hhcurveto
          50 59 74 59 2 hvcurveto
          28 1 -14 15 -22 hhcurveto
          endchar
        </CharString>
        <CharString name="b">
          -37 251 117 rmoveto
          -23 -30 14 27 -29 hvcurveto
          130 63 95 114 78 hhcurveto
          19 3 -7 -17 -117 -98 -144 -78 hvcurveto
          162 406 rmoveto
          -56 -71 -56 -75 -66 hvcurveto
          29 113 23 124 60 72 callgsubr
          vhcurveto
          -250 -130 -362 -65 220 callgsubr
          10 11 23 35 11 vhcurveto
          -35 45 46 -23 44 hhcurveto
          152 118 258 104 61 -59 87 -65 hvcurveto
          endchar
        </CharString>
        <CharString name="backslash">
          44 466 -79 rmoveto
          26 43 56 27 65 -200 466 -106 274 hvcurveto
          18 -7 -1 12 -19 hhcurveto
          -22 -62 -74 -40 -54 68 -127 104 -252 hvcurveto
          -206 85 70 -165 21 hhcurveto
          endchar
        </CharString>
        <CharString name="bar">
          -126 87 -72 rmoveto
          -24 55 -61 26 27 88 479 129 28 vhcurveto
          34 157 26 106 33 vvcurveto
          50 -70 177 callsubr
          -96 -161 -763 -44 vvcurveto
          endchar
        </CharString>
        <CharString name="braceleft">
          -106 350 875 rmoveto
          -110 -87 -72 -113 hvcurveto
          -121 52 -50 -52 vvcurveto
          -31 -18 -15 -29 vhcurveto
          -15 -55 38 -17 hhcurveto
          -10 -4 -20 -9 -18 8 -19 13 -16 hvcurveto
          8 -10 9 -10 -13 -104 -64 -38 -131 vvcurveto
          -92 84 -88 106 56 51 36 34 32 -22 9 -51 -67 -38 18 52 vhcurveto
          106 51 49 80 vvcurveto
          6 0 6 -1 6 vhcurveto
          73 7 41 56 53 58 -44 40 113 vvcurveto
          93 54 21 41 41 14 -18 -29 -44 0 -26 20 24 37 58 26 70 -67 72 -84 vhcurveto
          endchar
        </CharString>
        <CharString name="braceright">
          44 434 321 rmoveto
          21 12 15 18 24 vvcurveto
          24 -55 -12 -27 -25 -22 17 23 vhcurveto
          70 193 90 133 vvcurveto
          65 -104 90 -91 -91 -95 -66 -43 -21 38 -52 24 vhcurveto
          32 22 84 63 hhcurveto
          48 29 -27 -39 hvcurveto
          -90 -182 -105 -98 vvcurveto
          -46 30 -36 39 -20 vhcurveto
          -115 -66 53 -215 -79 -79 9 40 -42 hhcurveto
          -17 -3 -15 -12 -47 61 -55 87 219 -121 366 58 116 hvcurveto
          endchar
        </CharString>
        <CharString name="bracketleft">
          -96 258 762 rmoveto
          -155 -190 -498 -86 vvcurveto
          -51 61 -49 64 72 140 66 40 230 callgsubr
          -86 -15 -52 hhcurveto
          -11 -4 2 8 26 27 82 33 100 hvcurveto
          50 153 64 194 2 97 10 3 11 3 12 3 rrcurveto
          81 17 90 308 callgsubr
          -84 7 -70 -124 -44 -3 -46 -4 vhcurveto
          endchar
        </CharString>
        <CharString name="bracketright">
          -56 472 709 rmoveto
          3 vlineto
          2 0 1 -1 2 vhcurveto
          44 -8 -69 3 -83 hhcurveto
          -98 -83 -34 -48 -44 121 18 55 hvcurveto
          23 -2 hlineto
          -166 -114 -408 -4 -23 vhcurveto
          -14 -2 -12 -3 -18 -51 -34 11 -45 hhcurveto
          -19 -16 -7 -20 -54 116 -47 75 87 38 21 69 16 hvcurveto
          35 154 89 374 2 164 rrcurveto
          3 vlineto
          endchar
        </CharString>
        <CharString name="breve">
          187 715 99 callsubr
        </CharString>
        <CharString name="brokenbar">
          -126 136 244 235 callgsubr
          112 587 235 callgsubr
          endchar
        </CharString>
        <CharString name="bullet">
          -319 30 365 rmoveto
          -45 79 -80 49 26 33 33 21 39 -62 128 -40 -39 -46 -56 -40 vhcurveto
          endchar
        </CharString>
        <CharString name="c">
          -73 334 522 58 callgsubr
        </CharString>
        <CharString name="cacute">
          -73 424 756 -71 callsubr
          -90 -234 58 callgsubr
        </CharString>
        <CharString name="caron">
          160 726 -39 callgsubr
          endchar
        </CharString>
        <CharString name="ccaron">
          -73 450 726 -39 callgsubr
          -116 -204 58 callgsubr
        </CharString>
        <CharString name="ccedilla">
          -73 344 405 rmoveto
          36 13 -26 26 hhcurveto
          13 9 9 15 41 -55 78 -52 -141 -153 -215 -140 -48 50 -56 53 -30 hvcurveto
          -18 -45 -23 -37 -21 16 callsubr
          9 15 7 15 6 13 rrcurveto
          95 6 115 70 50 vvcurveto
          16 -10 7 -15 vhcurveto
          -38 -11 -36 -132 hhcurveto
          -41 -17 16 33 82 120 148 57 hvcurveto
          endchar
        </CharString>
        <CharString name="cedilla">
          26 -30 rmoveto
          19 33 16 36 13 vvcurveto
          18 -21 6 -21 -17 -17 -3 -17 -6 vhcurveto
          -19 -55 -31 -47 -24 16 callsubr
          endchar
        </CharString>
        <CharString name="cent">
          -26 202 196 rmoveto
          58 58 94 57 50 vhcurveto
          -26 -82 -24 -91 -19 -78 rrcurveto
          -32 3 -14 16 30 vvcurveto
          243 324 rmoveto
          8 26 6 20 14 vvcurveto
          19 -7 25 -25 -17 -20 -32 -49 -22 vhcurveto
          -143 -10 -150 -208 -137 vvcurveto
          -62 83 -75 65 -14 vhcurveto
          -8 -38 -4 -26 -8 vvcurveto
          -16 15 -18 18 19 17 38 72 22 vhcurveto
          84 18 87 51 42 vvcurveto
          16 -10 7 -15 -29 -18 -17 -7 -66 vhcurveto
          20 73 25 90 33 105 rrcurveto
          -15 21 19 -24 21 hhcurveto
          13 9 9 15 34 -24 44 -30 29 hvcurveto
          endchar
        </CharString>
        <CharString name="circumflex">
          117 678 165 callgsubr
        </CharString>
        <CharString name="colon">
          -310 45 130 197 callsubr
          54 310 197 callsubr
          endchar
        </CharString>
        <CharString name="comma">
          -304 25 -211 93 callgsubr
        </CharString>
        <CharString name="copyright">
          152 431 532 rmoveto
          -97 -110 -149 -88 -42 58 -58 48 63 97 57 30 9 -7 11 -9 hvcurveto
          -17 -53 -35 -77 hhcurveto
          -21 -4 7 19 69 92 97 45 hvcurveto
          16 3 -5 11 hhcurveto
          8 6 6 9 22 -28 41 -24 hvcurveto
          158 -121 rmoveto
          -181 -108 -102 -175 277 callsubr
          vhcurveto
          -277 -351 rmoveto
          287 callsubr
          289 callsubr
          hvcurveto
          endchar
        </CharString>
        <CharString name="currency">
          44 228 297 rmoveto
          61 47 44 53 57 28 -47 -48 -48 -43 -54 -57 -52 -33 33 59 vhcurveto
          341 186 rmoveto
          28 -49 43 -23 -24 -46 -33 -47 -43 vhcurveto
          5 -18 -20 3 -21 hhcurveto
          -22 -23 -4 -7 -21 hvcurveto
          -10 15 -10 15 -5 9 rrcurveto
          32 -17 -68 12 -45 hhcurveto
          -17 -1 -10 -16 -16 45 -45 36 -59 hvcurveto
          -27 -31 -16 -39 -42 vvcurveto
          -34 8 -29 13 -25 vhcurveto
          -54 -58 -40 -33 -9 vvcurveto
          -22 35 -43 34 23 40 37 51 46 vhcurveto
          -10 24 26 -5 28 hhcurveto
          20 19 3 5 18 hvcurveto
          -48 38 36 -32 27 hhcurveto
          19 11 12 21 15 -20 37 -26 46 hvcurveto
          36 35 23 48 56 vvcurveto
          31 -8 28 -13 24 vhcurveto
          58 54 24 12 20 vvcurveto
          endchar
        </CharString>
        <CharString name="d">
          -48 67 callsubr
          endchar
        </CharString>
        <CharString name="dagger">
          -57 437 410 rmoveto
          162 callgsubr
          -30 -234 -49 -241 -45 276 callgsubr
          42 240 117 23 vhcurveto
          301 callgsubr
          endchar
        </CharString>
        <CharString name="daggerdbl">
          -57 182 102 rmoveto
          301 callgsubr
          162 callgsubr
          -13 -104 -17 -105 -15 -88 rrcurveto
          -109 -12 -97 -17 -14 282 callsubr
          50 38 5 7 48 vhcurveto
          -10 -58 -6 -42 -16 220 callgsubr
          14 24 109 107 21 vhcurveto
          127 20 112 26 30 vvcurveto
          24 -54 4 -59 -30 -37 -1 -3 -40 vhcurveto
          endchar
        </CharString>
        <CharString name="dcaron">
          209 67 callsubr
          197 -15 rmoveto
          -40 callsubr
          98 callgsubr
          vhcurveto
          endchar
        </CharString>
        <CharString name="dcroat">
          -48 357 288 rmoveto
          -105 -45 -110 -57 -27 316 callgsubr
          62 201 88 21 34 -37 -61 -6 0 -7 1 -5 hvcurveto
          205 377 rmoveto
          2 9 1 7 3 72 callgsubr
          -29 -4 -36 -6 -42 vhcurveto
          -71 -4 -46 -10 -22 vvcurveto
          -21 28 -38 28 12 14 2 4 19 vhcurveto
          -8 -40 -9 -42 -10 -42 rrcurveto
          42 -22 -36 28 -46 hhcurveto
          -151 -100 -272 -105 -57 63 -76 57 39 59 38 48 55 hvcurveto
          -1 -8 -1 -6 -4 vvcurveto
          -31 42 -37 23 28 53 203 126 30 vhcurveto
          18 74 26 106 17 76 rrcurveto
          91 15 35 8 23 vvcurveto
          19 -22 7 -49 vhcurveto
          endchar
        </CharString>
        <CharString name="degree">
          -159 293 726 rmoveto
          -87 -89 -76 -92 -25 hvcurveto
          -92 -24 50 -76 89 hhcurveto
          87 89 76 92 25 hvcurveto
          92 24 -50 76 -89 hhcurveto
          -26 -96 rmoveto
          28 17 -34 -41 -11 hvcurveto
          -40 -9 -33 -34 -28 hhcurveto
          -28 -17 34 40 11 hvcurveto
          41 9 32 34 29 hhcurveto
          endchar
        </CharString>
        <CharString name="dieresis">
          10 695 rmoveto
          -38 callsubr
          202 callgsubr
          vhcurveto
          170 hmoveto
          -38 callsubr
          202 callgsubr
          vhcurveto
          endchar
        </CharString>
        <CharString name="divide">
          44 97 271 rmoveto
          156 392 20 80 21 -43 6 -60 -48 -152 -8 -7 -109 hvcurveto
          -5 -81 -73 -3 279 callsubr
          hvcurveto
          95 -128 rmoveto
          69 callgsubr
          103 400 rmoveto
          69 callgsubr
          endchar
        </CharString>
        <CharString name="dollar">
          19 293 132 rmoveto
          10 34 11 40 13 46 rrcurveto
          42 -25 31 -23 -20 vvcurveto
          -28 -48 -16 -59 -8 vhcurveto
          -91 335 rmoveto
          16 55 26 59 20 vhcurveto
          -10 -39 -11 -42 -10 -42 rrcurveto
          -48 27 -35 20 14 vvcurveto
          -13 -342 rmoveto
          -84 -24 79 -48 hhcurveto
          -18 -10 -18 -32 -53 68 -79 114 -8 hvcurveto
          -3 -17 -2 -12 -9 vvcurveto
          -16 15 -18 18 17 11 21 53 17 vhcurveto
          125 12 147 55 94 vvcurveto
          75 -88 63 -85 50 vhcurveto
          17 55 19 63 22 69 rrcurveto
          1 9 8 1 7 36 5 -9 19 hhcurveto
          11 9 7 14 38 -25 55 -42 12 hvcurveto
          5 19 2 15 11 vvcurveto
          19 -7 25 -25 -25 -23 -38 -60 -23 vhcurveto
          -88 -19 -115 -43 -46 -44 rrcurveto
          -19 -18 -15 -47 -35 vvcurveto
          -61 94 -55 87 -48 vhcurveto
          -15 -59 -15 -57 -13 -51 rrcurveto
          endchar
        </CharString>
        <CharString name="dotaccent">
          -38 733 152 callgsubr
        </CharString>
        <CharString name="dotlessi">
          172 callsubr
          endchar
        </CharString>
        <CharString name="dvDDH_DDHA">
          48 361 186 rmoveto
          41 19 23 49 30 19 -10 -13 -22 -49 -15 -68 -7 vhcurveto
          -53 -386 rmoveto
          27 23 -14 -23 -19 -30 -14 -43 -7 hvcurveto
          -10 14 -6 15 15 vvcurveto
          19 17 14 22 vhcurveto
          -335 865 -106 callsubr
          422 hlineto
          -5 -16 -3 -18 -1 -19 rrcurveto
          5 -13 -13 2 -13 hhcurveto
          -141 -209 -171 -98 -53 27 -49 35 -20 hvcurveto
          -25 44 46 -10 81 hhcurveto
          5 hlineto
          3 -15 4 -16 5 -14 rrcurveto
          1 -8 -8 0 -9 hhcurveto
          -155 -162 -124 -105 -130 105 -61 139 113 139 40 93 74 -69 57 -85 -81 -49 -39 -56 -27 5 -24 14 -22 hvcurveto
          -68 4 -50 28 44 vvcurveto
          76 124 74 94 vhcurveto
          51 9 -9 33 hhcurveto
          0 1 vlineto
          4 3 1 2 3 hvcurveto
          12 6 9 16 18 vvcurveto
          1 vlineto
          2 vlineto
          25 -21 40 -16 48 vhcurveto
          108 17 83 48 66 vvcurveto
          67 -59 46 -84 -96 -55 -53 -87 vhcurveto
          -14 vlineto
          -77 1 -27 16 29 vvcurveto
          56 168 122 64 vhcurveto
          56 1 -44 35 hhcurveto
          9 8 2 4 7 hvcurveto
          15 7 3 16 30 vvcurveto
          57 7 45 4 33 vhcurveto
          9 callgsubr
        </CharString>
        <CharString name="dvDD_GA">
          3 99 -150 -21 callsubr
        </CharString>
        <CharString name="dvD_MA.a">
          233 663 554 rmoveto
          -10 -45 -8 -46 -10 -48 -71 -32 -72 -27 -58 -21 -39 -14 -36 -13 -33 -13 rrcurveto
          -74 29 -79 11 29 vvcurveto
          18 29 13 40 vhcurveto
          67 21 -39 31 hhcurveto
          5 5 1 1 4 hvcurveto
          25 6 11 86 60 vvcurveto
          17 -4 14 -7 13 vhcurveto
          -38 -401 rmoveto
          -21 -40 -16 -39 -35 -18 5 15 18 39 19 59 23 vhcurveto
          21 -12 13 -13 -18 vvcurveto
          -349 509 -106 callsubr
          235 hlineto
          -7 0 -8 -7 vvcurveto
          -16 0 -16 1 -15 vhcurveto
          7 -21 -23 5 -27 hhcurveto
          -89 -82 -53 -67 -77 69 -34 72 -25 hvcurveto
          -60 -32 -33 -30 -32 vvcurveto
          -77 80 -44 90 98 73 61 66 32 -10 25 -16 20 vhcurveto
          49 18 44 16 47 17 46 16 rlinecurve
          -22 -103 -17 -84 -49 -54 callsubr
          73 -107 callsubr
        </CharString>
        <CharString name="dvD_YA.a">
          198 487 388 rmoveto
          1 vlineto
          4 -1 3 -1 3 vhcurveto
          13 -5 -13 5 -19 hhcurveto
          -1 0 hlineto
          -8 -7 -2 -2 -8 hvcurveto
          -8 -3 -7 -3 -8 -5 rrcurveto
          -27 -48 -55 -54 -77 hhcurveto
          -9 -3 2 4 hvcurveto
          17 141 85 90 vvcurveto
          13 -1 11 -2 11 vhcurveto
          275 hlineto
          -13 -80 -13 -71 -13 -76 rrcurveto
          -73 -50 -94 -78 -75 hhcurveto
          -3 -4 0 2 27 17 33 42 45 hvcurveto
          27 29 44 40 34 vvcurveto
          -467 276 rmoveto
          -48 -34 -23 -29 -40 48 -15 76 -1 hvcurveto
          -22 12 27 -26 26 27 19 29 36 hhcurveto
          17 10 -9 -17 hvcurveto
          -61 -133 -49 -68 vvcurveto
          -42 55 -55 56 15 19 3 6 20 vhcurveto
          -16 -31 -9 -28 -19 vvcurveto
          -54 37 -38 72 60 75 31 44 66 vhcurveto
          -6 -38 -4 -30 -10 146 callgsubr
          85 -107 callsubr
        </CharString>
        <CharString name="dvMatraIelse">
          -267 78 -75 callgsubr
          18 hlineto
          -12 -84 -12 -75 -12 -82 rrcurveto
          -15 -105 -29 -97 -23 -103 callgsubr
          155 -107 callgsubr
          -103 hlineto
          83 45 55 115 131 277 callgsubr
          -206 -134 -196 -122 -19 hvcurveto
          endchar
        </CharString>
        <CharString name="dvNG_GA">
          87 600 368 rmoveto
          67 callgsubr
          286 callsubr
          hvcurveto
          -501 -518 -21 callsubr
        </CharString>
        <CharString name="dvNG_MA">
          33 593 383 rmoveto
          67 callgsubr
          286 callsubr
          hvcurveto
          -336 -379 rmoveto
          3 27 1 27 1 26 rrcurveto
          -3 16 16 -1 17 hhcurveto
          30 27 4 7 24 hvcurveto
          -6 -21 -6 -24 -5 -23 -30 -4 -38 -6 -45 -8 rrcurveto
          -143 -179 rmoveto
          -16 -11 27 13 11 21 7 35 7 hvcurveto
          -38 -8 -11 -27 -10 hhcurveto
          -56 836 -49 callsubr
          -56 32 -44 49 -28 hvcurveto
          -4 -20 -3 -24 -26 vvcurveto
          -18 -1 -19 -1 -19 vhcurveto
          -113 -21 -60 -23 -64 vvcurveto
          -68 70 -91 61 64 39 84 102 20 vhcurveto
          35 6 39 6 40 8 rrcurveto
          -9 -55 -4 -47 -18 vvcurveto
          -51 0 -62 31 40 8 58 36 4 vhcurveto
          11 106 52 218 45 vvcurveto
          1 vlineto
          11 18 6 19 19 4 callgsubr
          135 -107 callsubr
        </CharString>
        <CharString name="dvNY_CA">
          645 203 callsubr
          940 5 callsubr
          -21 -18 -16 -19 -12 -21 -35 -7 -44 -12 -36 -9 -38 -9 -41 -6 -35 -6 rrcurveto
          6 21 3 21 20 vvcurveto
          -12 callsubr
          97 75 54 67 46 vhcurveto
          9 hlineto
          43 108 16 25 85 hvcurveto
          -62 4 46 -45 78 hhcurveto
          87 72 35 55 58 hvcurveto
          31 callsubr
        </CharString>
        <CharString name="dvN_TA.aTRAD">
          200 424 137 rmoveto
          -22 -9 -21 -21 -21 -20 9 14 13 25 20 40 21 vhcurveto
          4 -10 2 -12 -12 vvcurveto
          -447 525 -106 callsubr
          586 hlineto
          -10 -44 -9 -45 -10 -51 rrcurveto
          21 -63 -77 17 -102 hhcurveto
          -197 -106 -95 -124 -119 94 -112 57 28 13 13 20 hvcurveto
          49 -69 34 92 vvcurveto
          91 77 43 115 74 65 -14 -15 53 vhcurveto
          -137 -39 -152 -74 -78 vvcurveto
          -56 74 -54 64 80 34 64 55 30 -6 24 -9 21 vhcurveto
          20 8 21 7 21 7 rrcurveto
          -9 -73 -4 -58 -38 vvcurveto
          -24 46 -38 26 34 14 180 133 29 vhcurveto
          21 93 29 105 8 44 rrcurveto
          17 -107 callsubr
        </CharString>
        <CharString name="dvSHA_MatraVocalicR">
          277 234 callsubr
          335 325 callgsubr
          -32 31 -16 51 -5 hvcurveto
          -23 -151 -65 1 -56 6 -45 11 rlinecurve
          170 callgsubr
          63 -25 81 -15 98 -3 -13 -90 -16 -96 -4 -37 rrcurveto
          -100 -19 -119 -92 -87 vvcurveto
          -82 68 -29 109 69 82 18 36 18 -18 33 -29 vhcurveto
          -21 -16 -19 -74 hhcurveto
          -43 -35 9 18 39 100 74 78 hvcurveto
          4 hlineto
          2 hlineto
          55 12 155 -56 callsubr
          117 -107 callsubr
        </CharString>
        <CharString name="dvSH_VA.aSimp">
          564 712 217 -78 callsubr
          -422 293 -51 callgsubr
          264 152 rmoveto
          -29 -23 -8 -13 -15 hvcurveto
          25 -34 -45 15 -55 -78 callgsubr
          23 -4 22 -6 20 vhcurveto
          296 callgsubr
          412 22 callgsubr
        </CharString>
        <CharString name="dvTTH_TTHA">
          67 289 219 rmoveto
          -39 -31 7 22 194 callgsubr
          hvcurveto
          -98 -422 rmoveto
          -39 -31 7 22 194 callgsubr
          hvcurveto
          -178 865 184 callgsubr
          vhcurveto
          13 12 1 13 hhcurveto
          -2 -8 -1 -9 -2 -9 -2 -10 -3 -8 -2 -6 rrcurveto
          -138 -8 -160 -143 -96 vvcurveto
          -78 80 -48 94 170 137 89 101 51 -36 72 -57 36 vhcurveto
          3 10 rlineto
          7 20 10 34 29 vvcurveto
          101 32 70 66 72 210 callgsubr
        </CharString>
        <CharString name="dvTT_GA">
          62 113 -169 rmoveto
          -18 -27 26 19 19 30 6 30 12 14 -1 -2 16 hvcurveto
          -41 -14 -20 -26 -23 hhcurveto
          -70 831 -106 callsubr
          379 hlineto
          -33 callgsubr
          -111 -174 -186 -117 -55 32 -39 48 -24 hvcurveto
          -1 -11 -1 -13 -12 vvcurveto
          -23 -2 -23 -2 -22 vhcurveto
          3 -20 -19 2 -24 hhcurveto
          -86 -65 -35 -59 -72 69 -80 72 112 70 149 151 hvcurveto
          19 vlineto
          -1 11 12 -1 12 hhcurveto
          24 24 2 4 21 hvcurveto
          -35 -87 -27 -121 -62 104 callgsubr
        </CharString>
        <CharString name="dvT_KH_NA">
          661 1086 494 227 callsubr
          -63 42 -51 63 -15 hvcurveto
          274 callsubr
          -41 -30 17 24 -26 hvcurveto
          111 47 68 107 86 52 callgsubr
          -198 -427 78 callgsubr
          -844 753 225 callgsubr
          -60 -60 -50 -84 -26 hvcurveto
          -11 11 -17 9 -20 9 -9 4 -11 4 -11 2 rrcurveto
          19 -62 -78 9 -50 35 callsubr
          31 28 -2 -3 24 vhcurveto
          13 -46 53 -23 59 -5 rrcurveto
          -76 59 83 -55 97 hhcurveto
          89 109 39 59 89 hvcurveto
          -10 -47 -9 -37 -2 -16 rrcurveto
          -13 hlineto
          51 callsubr
          22 17 -2 -5 15 hvcurveto
          -3 6 5 -2 4 hhcurveto
          35 24 157 155 35 hvcurveto
          114 callsubr
        </CharString>
        <CharString name="dvT_S_NA">
          744 1128 439 rmoveto
          -74 -32 -99 -31 -99 -18 rrcurveto
          21 36 12 41 42 -27 callsubr
          270 hlineto
          -258 -498 -30 callgsubr
          -924 606 -106 callsubr
          511 hlineto
          156 callsubr
          -106 -86 -70 -54 -19 21 14 -20 hvcurveto
          36 -43 -81 24 -67 hhcurveto
          -163 -82 -60 -106 -107 119 -121 315 callgsubr
          59 -129 40 80 vvcurveto
          38 35 28 87 52 41 -13 -10 32 vhcurveto
          8 -33 25 -43 38 -58 rrcurveto
          49 callsubr
        </CharString>
        <CharString name="e">
          -102 292 413 78 callsubr
          -41 -196 rmoveto
          150 callgsubr
          -46 callgsubr
          endchar
        </CharString>
        <CharString name="eacute">
          -102 215 303 rmoveto
          -13 -15 1 2 -15 hvcurveto
          58 33 48 49 39 hhcurveto
          149 callsubr
          hvcurveto
          71 220 rmoveto
          -46 callgsubr
          150 callgsubr
          hvcurveto
          8 140 24 callgsubr
        </CharString>
        <CharString name="ecaron">
          -102 282 548 -25 callsubr
          -67 -245 rmoveto
          -13 -15 1 2 -15 hvcurveto
          58 33 48 49 39 hhcurveto
          149 callsubr
          hvcurveto
          71 220 rmoveto
          -46 callgsubr
          150 callgsubr
          hvcurveto
          endchar
        </CharString>
        <CharString name="ecircumflex">
          -102 173 566 37 callsubr
          42 -263 rmoveto
          -13 -15 1 2 -15 hvcurveto
          58 33 48 49 39 hhcurveto
          149 callsubr
          hvcurveto
          71 220 rmoveto
          -46 callgsubr
          150 callgsubr
          hvcurveto
          endchar
        </CharString>
        <CharString name="edieresis">
          -102 407 562 rmoveto
          18 22 22 15 -38 callsubr
          hvcurveto
          -170 hmoveto
          18 22 22 15 -38 callsubr
          hvcurveto
          55 -149 78 callsubr
          -41 -196 rmoveto
          150 callgsubr
          -46 callgsubr
          endchar
        </CharString>
        <CharString name="edotaccent">
          -102 316 552 rmoveto
          18 22 22 15 -38 callsubr
          hvcurveto
          -24 -139 78 callsubr
          -41 -196 rmoveto
          150 callgsubr
          -46 callgsubr
          endchar
        </CharString>
        <CharString name="egrave">
          -102 223 593 rmoveto
          -8 callgsubr
          -31 -31 1 -49 23 -15 rrcurveto
          176 -251 78 callsubr
          -41 -196 rmoveto
          150 callgsubr
          -46 callgsubr
          endchar
        </CharString>
        <CharString name="eight">
          51 373 228 rmoveto
          -52 -88 -39 -47 -11 -5 6 12 24 56 42 69 52 vhcurveto
          16 -17 10 -15 -13 vvcurveto
          234 330 rmoveto
          86 -74 46 -95 -145 -93 -45 -59 -31 58 -33 25 vhcurveto
          33 52 52 79 hhcurveto
          21 9 0 -13 -37 -63 -50 -75 -56 hvcurveto
          -52 38 -54 37 -41 38 rrcurveto
          23 -24 -21 29 -20 hhcurveto
          -20 -10 -47 -28 -47 79 -57 74 -53 hvcurveto
          -84 -66 -75 -71 -68 vvcurveto
          -56 96 -57 53 112 158 79 90 50 -31 45 -44 42 vhcurveto
          89 71 83 78 70 vvcurveto
          endchar
        </CharString>
        <CharString name="ellipsis">
          201 40 97 rmoveto
          69 callgsubr
          275 hmoveto
          69 callgsubr
          278 hmoveto
          69 callgsubr
          endchar
        </CharString>
        <CharString name="emacron">
          -102 162 571 rmoveto
          238 callgsubr
          hvcurveto
          -9 callsubr
          vhcurveto
          53 -268 rmoveto
          -13 -15 1 2 -15 hvcurveto
          58 33 48 49 39 hhcurveto
          149 callsubr
          hvcurveto
          71 220 rmoveto
          -46 callgsubr
          150 callgsubr
          hvcurveto
          endchar
        </CharString>
        <CharString name="emdash">
          397 783 378 rmoveto
          -154 -578 -11 -69 -29 24 -42 28 25 147 21 17 167 hvcurveto
          182 19 302 6 52 vvcurveto
          19 -34 17 -109 vhcurveto
          endchar
        </CharString>
        <CharString name="endash">
          64 596 356 rmoveto
          19 -22 12 -49 -154 -320 -53 -36 -29 33 -42 28 25 65 21 15 81 vhcurveto
          173 32 140 21 40 vvcurveto
          endchar
        </CharString>
        <CharString name="eogonek">
          -102 292 413 78 callsubr
          -41 -196 rmoveto
          150 callgsubr
          -120 -146 -191 -142 -89 59 -78 110 -9 hvcurveto
          -22 -31 -15 -32 -29 -39 callsubr
          10 7 7 9 6 8 rrcurveto
          37 20 26 25 24 vvcurveto
          308 callsubr
          vhcurveto
          13 callgsubr
          endchar
        </CharString>
        <CharString name="equal">
          104 614 448 rmoveto
          36 -72 4 -55 -76 -311 0 -44 -23 28 -53 24 49 115 9 9 82 vhcurveto
          95 11 121 16 35 vvcurveto
          -31 -167 rmoveto
          22 -38 6 -59 -55 -370 -33 -25 -23 28 -53 24 62 98 8 9 66 vhcurveto
          157 22 87 30 37 vvcurveto
          endchar
        </CharString>
        <CharString name="eth">
          220 callsubr
          301 530 rmoveto
          10 -11 10 -15 -10 -32 -11 -14 -41 vhcurveto
          58 -44 -57 35 -46 hhcurveto
          260 callgsubr
          6 -6 5 -6 5 -6 rrcurveto
          -55 -18 -53 -15 -29 vvcurveto
          -15 15 -7 16 18 44 11 16 48 vhcurveto
          12 -30 6 -34 3 -35 232 callsubr
          64 -16 57 -26 49 hvcurveto
          44 20 32 21 16 vvcurveto
          endchar
        </CharString>
        <CharString name="exclam">
          -109 352 725 rmoveto
          23 -82 71 -37 -14 -13 -8 -20 vhcurveto
          -275 -46 -149 -54 vvcurveto
          -36 37 -41 32 48 75 417 72 vhcurveto
          -115 -686 rmoveto
          31 -48 100 -30 -30 -34 -43 -30 -35 61 -62 38 19 24 24 15 vhcurveto
          endchar
        </CharString>
        <CharString name="exclamdown">
          -152 88 24 rmoveto
          -23 82 -71 37 14 13 8 20 vhcurveto
          275 46 149 54 vvcurveto
          36 -37 41 -32 -48 -75 -417 -72 vhcurveto
          115 686 rmoveto
          -31 48 -100 30 30 34 43 30 35 -61 62 -38 -19 -24 -24 -15 vhcurveto
          endchar
        </CharString>
        <CharString name="f">
          -182 146 434 rmoveto
          -31 -6 -28 -7 -25 -7 rrcurveto
          -35 -11 -21 -14 -14 vvcurveto
          -37 34 -28 34 13 16 3 6 21 vhcurveto
          -31 -140 -28 -59 -36 vvcurveto
          -26 40 -45 20 40 35 157 174 41 vhcurveto
          1 hlineto
          106 17 95 15 41 vvcurveto
          19 -23 17 -48 -35 -36 -1 -3 -35 vhcurveto
          103 24 26 128 43 42 -11 -117 291 callsubr
          -59 68 -63 -126 -49 -100 -254 -42 hvcurveto
          endchar
        </CharString>
        <CharString name="fi">
          -35 359 680 rmoveto
          42 49 -117 291 callsubr
          -119 68 -63 -123 -50 -96 -242 -41 hvcurveto
          -44 -6 -39 -9 -26 -10 rrcurveto
          -22 -8 -12 -11 -11 vvcurveto
          -32 31 -35 35 9 20 3 4 27 vhcurveto
          -32 -152 -31 -62 -38 vvcurveto
          -26 40 -45 20 41 36 164 179 42 vhcurveto
          55 10 55 8 31 3 rrcurveto
          -8 -54 -61 -202 -44 vvcurveto
          -43 26 -20 20 27 12 8 34 10 vhcurveto
          53 174 59 141 45 vvcurveto
          36 -20 21 -51 -30 -73 -2 -7 -79 vhcurveto
          100 23 25 116 41 hhcurveto
          endchar
        </CharString>
        <CharString name="five">
          10 640 586 rmoveto
          37 -103 12 -88 -61 -46 -4 -4 -29 vhcurveto
          -58 -9 -77 -108 -51 -133 159 -49 -58 vvcurveto
          -30 -76 -45 -45 vhcurveto
          -91 -18 44 -23 hhcurveto
          -10 -3 -23 -17 -61 82 -52 93 122 111 62 102 hvcurveto
          148 -151 5 76 vvcurveto
          21 44 56 24 6 vhcurveto
          45 10 199 30 35 vvcurveto
          endchar
        </CharString>
        <CharString name="fl">
          -33 104 475 rmoveto
          -52 -39 -20 -22 -23 28 -44 38 -1 hvcurveto
          19 hlineto
          -17 -94 -22 -93 -20 -72 rrcurveto
          -49 -14 45 -44 25 hhcurveto
          27 1 7 21 18 46 29 74 27 106 19 109 63 9 63 19 52 39 -17 -93 -27 -103 -40 -107 rrcurveto
          -58 -22 22 -63 60 hhcurveto
          13 15 23 37 15 hvcurveto
          57 136 67 331 6 150 rrcurveto
          68 3 -47 31 -42 hhcurveto
          -13 -10 -15 -36 -7 hvcurveto
          -6 -27 -4 -39 -2 -53 rrcurveto
          -81 -92 -37 -91 -15 vhcurveto
          2 26 3 26 1 25 rrcurveto
          77 4 15 40 23 26 6 -28 21 hhcurveto
          26 10 21 24 41 -34 51 -71 -71 -60 -45 -110 -6 hvcurveto
          -3 -48 -6 -54 -8 -57 rrcurveto
          endchar
        </CharString>
        <CharString name="florin">
          -56 207 407 rmoveto
          -87 -15 -67 -20 -24 vvcurveto
          -37 34 -47 34 15 18 6 8 26 vhcurveto
          -226 -49 -32 -116 -41 -59 -12 322 callgsubr
          132 52 127 348 72 hvcurveto
          114 17 76 28 37 vvcurveto
          19 -23 17 -48 -30 -33 -1 -2 -33 vhcurveto
          128 27 34 129 42 42 -11 -117 291 callsubr
          -59 68 -63 -140 -54 -102 -252 -53 hvcurveto
          endchar
        </CharString>
        <CharString name="four">
          20 458 458 rmoveto
          -15 -14 -9 -21 -42 -3 -41 -6 -38 hvcurveto
          -14 -45 -64 -39 -58 hhcurveto
          -22 -6 5 19 hvcurveto
          58 186 205 38 vvcurveto
          29 -47 48 -28 -52 -195 -269 -115 -84 68 -52 93 48 49 8 14 43 vhcurveto
          -24 -88 -25 -68 -41 vvcurveto
          -33 24 -40 31 66 99 406 73 32 -74 59 -29 vhcurveto
          endchar
        </CharString>
        <CharString name="fraction">
          156 callgsubr
        </CharString>
        <CharString name="g">
          -85 123 147 148 callgsubr
          300 130 rmoveto
          14 -6 12 -8 10 vhcurveto
          47 callsubr
          endchar
        </CharString>
        <CharString name="gbreve">
          -85 123 147 148 callgsubr
          286 166 rmoveto
          47 callsubr
          14 -6 12 -8 10 vhcurveto
          104 402 99 callsubr
        </CharString>
        <CharString name="germandbls">
          39 439 369 rmoveto
          32 106 29 93 vvcurveto
          76 -82 121 -111 -124 -71 -70 -129 -22 vhcurveto
          -31 -179 -70 -202 -62 vvcurveto
          -27 35 -40 26 59 63 297 160 32 vhcurveto
          79 16 32 57 46 hhcurveto
          33 40 -46 -47 hvcurveto
          -60 -116 -30 -35 -68 125 -32 -95 vvcurveto
          -57 -75 -19 -44 vhcurveto
          -20 -11 2 -13 hhcurveto
          -21 -11 -8 -22 -38 36 -36 69 112 94 83 95 hvcurveto
          115 -102 41 22 vvcurveto
          endchar
        </CharString>
        <CharString name="grave">
          -144 855 rmoveto
          -31 -31 1 -49 23 -15 107 -71 rcurveline
          -8 callgsubr
          rrcurveto
          endchar
        </CharString>
        <CharString name="greater">
          44 153 588 rmoveto
          -17 -6 -8 -15 -22 51 -63 29 -9 hvcurveto
          64 -20 144 -86 -23 -35 -327 -148 -67 vvcurveto
          -20 15 -11 26 44 47 18 96 155 vhcurveto
          109 67 63 44 49 vvcurveto
          16 -14 24 -25 26 vhcurveto
          80 -75 -166 107 -117 hhcurveto
          endchar
        </CharString>
        <CharString name="greaterequal">
          44 153 570 rmoveto
          -17 -6 -8 -15 -22 30 -55 17 67 195 -43 -23 hvcurveto
          -28 -358 -56 -58 vvcurveto
          -20 15 -11 26 38 77 16 22 79 vhcurveto
          91 26 93 34 34 28 rrcurveto
          16 13 8 41 20 vvcurveto
          55 -225 84 -180 vhcurveto
          -98 -475 rmoveto
          -17 41 -11 34 135 247 63 26 31 -35 38 -26 -31 -46 -24 -28 -108 vhcurveto
          -112 -30 -99 -21 -27 vvcurveto
          endchar
        </CharString>
        <CharString name="guillemotleft">
          -62 276 161 callgsubr
          314 -25 rmoveto
          -57 -132 -50 -34 -50 hvcurveto
          -20 -13 -23 -33 -16 vvcurveto
          -67 174 -91 79 23 12 7 18 1 vhcurveto
          42 -185 44 39 vvcurveto
          24 74 34 138 18 vhcurveto
          20 3 11 6 1 15 rrcurveto
          19 -42 35 -24 vhcurveto
          endchar
        </CharString>
        <CharString name="guillemotright">
          277 193 475 rmoveto
          -24 -42 -35 -19 -15 12 -6 20 -3 hvcurveto
          111 -16 56 -29 -17 -40 -236 -57 -42 vvcurveto
          -15 13 -10 23 79 225 100 67 59 -182 78 -55 vhcurveto
          277 25 164 callsubr
        </CharString>
        <CharString name="guilsinglleft">
          44 366 161 callgsubr
          endchar
        </CharString>
        <CharString name="guilsinglright">
          44 235 500 164 callsubr
        </CharString>
        <CharString name="h">
          -19 170 803 rmoveto
          -21 -9 -15 -26 -29 -33 -172 -31 -151 hvcurveto
          -30 -146 -37 -132 -32 vvcurveto
          -28 50 -59 27 31 37 62 75 45 vhcurveto
          101 60 66 102 50 hhcurveto
          10 3 -12 -17 -20 -5 -28 -5 -19 hvcurveto
          -16 -65 -30 -79 -58 vvcurveto
          -31 11 -11 19 54 54 126 117 26 vhcurveto
          10 46 6 45 35 vvcurveto
          49 -67 92 -39 -64 -101 -113 -198 -101 vhcurveto
          55 180 62 215 82 vvcurveto
          44 -54 70 -33 vhcurveto
          endchar
        </CharString>
        <CharString name="hungarumlaut">
          37 872 -11 callgsubr
          endchar
        </CharString>
        <CharString name="hyphen">
          -46 200 callsubr
        </CharString>
        <CharString name="i">
          -296 161 523 rmoveto
          208 callgsubr
          hvcurveto
          -21 -90 -25 -93 -33 vvcurveto
          -26 21 -26 20 27 16 8 34 11 vhcurveto
          46 142 57 194 29 vvcurveto
          331 callgsubr
          vhcurveto
          132 73 rmoveto
          38 -49 93 -29 -29 -34 -43 -30 -34 61 -62 37 19 24 18 20 vhcurveto
          endchar
        </CharString>
        <CharString name="iacute">
          -296 315 756 -71 callsubr
          -75 -335 -1 callsubr
          endchar
        </CharString>
        <CharString name="icircumflex">
          -296 298 678 -37 callgsubr
          -58 -257 -1 callsubr
          endchar
        </CharString>
        <CharString name="idieresis">
          -296 191 599 rmoveto
          -38 callsubr
          202 callgsubr
          vhcurveto
          170 hmoveto
          -38 callsubr
          202 callgsubr
          vhcurveto
          -121 -178 -1 callsubr
          endchar
        </CharString>
        <CharString name="igrave">
          172 callsubr
          -203 338 rmoveto
          -31 -31 1 -49 23 -15 107 -71 rcurveline
          -8 callgsubr
          rrcurveto
          endchar
        </CharString>
        <CharString name="imacron">
          172 callsubr
          -25 172 rmoveto
          -9 callsubr
          238 callgsubr
          vhcurveto
          endchar
        </CharString>
        <CharString name="infinity">
          242 545 180 rmoveto
          -33 -31 26 35 -23 hvcurveto
          69 80 70 64 29 hhcurveto
          6 4 -3 -8 -68 -41 -115 -61 hvcurveto
          -366 5 rmoveto
          -11 -6 4 11 39 61 123 42 33 22 -41 -33 23 hvcurveto
          -57 -66 -60 -46 -38 hhcurveto
          460 314 rmoveto
          -56 -89 -77 -78 -88 hvcurveto
          64 -23 -52 79 -77 hhcurveto
          -127 -88 -208 -85 -63 84 -60 68 51 74 51 61 74 hvcurveto
          -63 37 53 -48 77 hhcurveto
          125 86 186 107 57 -64 77 -65 hvcurveto
          endchar
        </CharString>
        <CharString name="integral">
          -25 562 677 rmoveto
          59 -71 53 -51 -121 -31 -123 -348 -85 vhcurveto
          -233 -57 -13 -149 -55 -41 -13 322 callgsubr
          120 43 151 334 76 hvcurveto
          242 55 28 126 34 59 1 -37 17 hhcurveto
          10 8 7 21 hvcurveto
          endchar
        </CharString>
        <CharString name="iogonek">
          -296 98 -80 rmoveto
          -3 -16 -12 -1 -9 hhcurveto
          -17 -7 5 7 14 25 24 31 24 hvcurveto
          16 12 11 15 4 13 5 6 4 9 4 11 rrcurveto
          46 142 57 194 29 vvcurveto
          331 callgsubr
          208 callgsubr
          vhcurveto
          -21 -89 -25 -93 -33 vvcurveto
          -52 -42 -66 -77 -59 vvcurveto
          -32 41 -31 46 23 29 3 7 35 vhcurveto
          38 7 22 25 -8 22 -9 23 -21 12 -22 -5 rrcurveto
          endchar
        </CharString>
        <CharString name="itfLogo">
          1092 147 hmoveto
          196 callsubr
          236 -634 rmoveto
          196 callsubr
          236 -634 rmoveto
          196 callsubr
          -410 vmoveto
          196 185 -196 hlineto
          endchar
        </CharString>
        <CharString name="itfStar">
          116 663 452 rmoveto
          -28 -200 -6 -2 -34 hvcurveto
          -66 246 -8 -27 -53 -188 -8 -31 rlinecurve
          -261 8 25 -15 168 -108 28 -17 rlinecurve
          -96 -247 24 20 152 128 29 20 rlinecurve
          204 -168 -11 28 -71 189 -12 30 rlinecurve
          endchar
        </CharString>
        <CharString name="j">
          -321 322 596 rmoveto
          38 -48 93 -30 -29 -34 -43 -30 -34 61 -62 38 18 24 18 20 vhcurveto
          -184 -139 rmoveto
          -221 -66 -61 -393 -73 hhcurveto
          -22 -15 12 26 -22 hvcurveto
          24 -20 -20 30 -19 hhcurveto
          -20 -25 -44 -26 -40 79 -78 72 88 74 51 126 35 hvcurveto
          58 207 76 257 30 vvcurveto
          51 -45 54 -34 -14 -10 -13 -53 -16 vhcurveto
          endchar
        </CharString>
        <CharString name="k">
          -61 511 442 110 callsubr
        </CharString>
        <CharString name="l">
          -322 205 329 25 callsubr
          endchar
        </CharString>
        <CharString name="lacute">
          -322 367 986 -71 callsubr
          -162 -657 25 callsubr
          endchar
        </CharString>
        <CharString name="lcaron">
          -71 205 329 25 callsubr
          101 225 rmoveto
          98 callgsubr
          -40 callsubr
          vhcurveto
          endchar
        </CharString>
        <CharString name="less">
          -62 451 587 rmoveto
          -82 -243 -155 -57 -64 hvcurveto
          -17 -15 -14 -54 -22 vvcurveto
          -78 284 -145 80 26 20 8 20 vhcurveto
          46 -264 115 49 vvcurveto
          30 213 117 94 41 vhcurveto
          18 8 10 7 15 vvcurveto
          19 -25 51 -36 vhcurveto
          endchar
        </CharString>
        <CharString name="lessequal">
          -62 457 570 rmoveto
          -95 -191 -62 -49 -70 hvcurveto
          -20 -14 -19 -46 -22 vvcurveto
          -78 291 -70 71 35 19 13 20 vhcurveto
          46 -288 61 19 vvcurveto
          27 164 26 136 29 vhcurveto
          20 4 8 11 15 vvcurveto
          19 -25 51 -36 vhcurveto
          21 -475 rmoveto
          27 -99 21 -112 30 vhcurveto
          28 -108 -46 24 -31 hhcurveto
          -26 -35 -38 -31 -26 247 -63 135 34 41 11 17 hvcurveto
          endchar
        </CharString>
        <CharString name="logicalnot">
          -60 66 497 rmoveto
          -16 -5 -7 -16 -29 43 -67 53 hvcurveto
          122 68 7 59 hhcurveto
          28 68 0 -13 hvcurveto
          -95 -114 -161 -21 vvcurveto
          -15 9 -9 17 77 131 221 84 40 -25 61 -39 8 vhcurveto
          9 -41 -84 2 -37 -212 -50 1 -52 hhcurveto
          endchar
        </CharString>
        <CharString name="lozenge">
          -134 215 604 rmoveto
          -50 -133 -210 -67 -26 76 -191 17 -17 hvcurveto
          -9 9 47 -21 28 hhcurveto
          48 135 198 79 13 -11 21 -14 32 hvcurveto
          -32 72 -19 84 -17 12 rrcurveto
          10 -15 -41 20 -28 hhcurveto
          89 -260 rmoveto
          -29 -66 -37 -66 -57 -62 -13 39 -29 97 -12 32 25 68 36 59 51 53 16 -37 26 -68 23 -49 rrcurveto
          endchar
        </CharString>
        <CharString name="lslash">
          -179 291 475 rmoveto
          13 84 9 85 45 72 callgsubr
          -114 -14 -111 -18 -98 vhcurveto
          -74 -17 -49 -19 3 -23 3 -20 34 -34 28 5 9 2 11 3 15 5 rrcurveto
          -29 -128 -29 -94 -34 220 callgsubr
          28 45 188 128 30 vhcurveto
          5 21 5 23 4 24 84 28 34 16 -4 23 -3 19 -23 3 -48 -7 rrcurveto
          endchar
        </CharString>
        <CharString name="m">
          274 692 523 rmoveto
          -76 -93 -112 -111 -46 hvcurveto
          6 30 1 41 21 vvcurveto
          54 -68 77 -32 -89 -71 -157 -159 -74 vhcurveto
          27 88 25 86 66 vvcurveto
          31 -49 52 -47 -41 28 -160 -149 -44 vhcurveto
          -16 -53 -15 -42 -33 vvcurveto
          -21 49 -59 27 33 58 90 58 35 vhcurveto
          163 99 14 58 33 hhcurveto
          10 5 -17 -25 hvcurveto
          -155 -44 -66 -38 vvcurveto
          -27 42 -40 23 34 24 75 59 32 vhcurveto
          162 86 44 72 31 hhcurveto
          10 1 -18 -25 hvcurveto
          -92 -55 -115 -77 vvcurveto
          -31 11 -11 19 82 58 284 85 49 -34 92 -53 vhcurveto
          endchar
        </CharString>
        <CharString name="macron">
          34 593 rmoveto
          -9 callsubr
          238 callgsubr
          vhcurveto
          endchar
        </CharString>
        <CharString name="minus">
          44 97 271 rmoveto
          110 388 18 80 21 -43 6 -60 -48 -154 -8 -5 -57 hvcurveto
          -7 -81 -73 -1 279 callsubr
          hvcurveto
          endchar
        </CharString>
        <CharString name="multiply">
          -107 498 489 rmoveto
          28 -44 43 -23 -39 -66 -76 -84 -75 vhcurveto
          -28 42 -19 38 28 vvcurveto
          29 -84 22 -45 -17 -1 -10 -16 -27 52 -93 66 -93 vhcurveto
          -89 -90 -61 -44 -16 vvcurveto
          -22 35 -43 34 24 44 45 82 81 vhcurveto
          -71 59 61 -56 38 hhcurveto
          19 11 12 21 26 -57 69 -57 75 hvcurveto
          113 113 68 54 14 vvcurveto
          endchar
        </CharString>
        <CharString name="n">
          -10 391 523 -57 callgsubr
        </CharString>
        <CharString name="nacute">
          -10 490 651 143 callgsubr
          12 -66 -57 callgsubr
        </CharString>
        <CharString name="ncaron">
          -10 302 548 -25 callsubr
          89 -25 -57 callgsubr
        </CharString>
        <CharString name="nine">
          -24 232 346 rmoveto
          -24 -10 16 23 70 96 130 40 14 8 -20 -25 hvcurveto
          -29 -5 -18 -21 vvcurveto
          -9 6 -7 13 -4 vhcurveto
          -46 -38 -45 -60 -55 hhcurveto
          269 115 rmoveto
          2 0 1 -1 2 vhcurveto
          -3 22 -18 13 -23 5 rrcurveto
          3 17 2 19 19 vvcurveto
          63 -35 80 -90 -115 -137 -173 -139 -57 85 -92 64 27 30 9 14 31 vhcurveto
          -18 -70 -12 -71 -48 vvcurveto
          -61 11 -50 29 37 29 188 137 45 vhcurveto
          19 58 40 81 27 vvcurveto
          2 vlineto
          endchar
        </CharString>
        <CharString name="notequal">
          31 441 488 rmoveto
          6 16 6 15 4 14 rrcurveto
          11 34 8 22 15 vvcurveto
          20 -13 15 -18 -39 -27 -47 -106 -44 vhcurveto
          -111 -4 -124 -10 -28 282 callsubr
          29 53 3 5 55 vhcurveto
          -15 -37 -18 -43 rlineto
          -100 -8 -93 -11 -13 vvcurveto
          -23 -1 26 -54 24 hhcurveto
          28 -1 35 0 36 2 rrcurveto
          -21 -54 -12 -34 -16 vvcurveto
          -18 14 -13 17 19 39 60 80 42 vhcurveto
          29 3 158 17 88 27 1 37 rlinecurve
          1 22 -38 7 -59 2 -17 1 -50 -2 -59 -3 13 27 13 28 11 27 rrcurveto
          95 11 119 16 35 vvcurveto
          36 -72 4 -55 vhcurveto
          endchar
        </CharString>
        <CharString name="ntilde">
          -10 177 560 rmoveto
          2 callgsubr
          139 callgsubr
          214 -37 -57 callgsubr
        </CharString>
        <CharString name="numbersign">
          188 400 440 rmoveto
          24 3 24 3 25 3 -12 -53 -13 -55 -13 -50 -36 -2 -39 -2 -37 -3 15 54 16 52 13 46 rrcurveto
          257 117 rmoveto
          4 20 2 17 11 vvcurveto
          50 -71 45 73 callsubr
          -32 -5 -40 -8 -44 vhcurveto
          -31 -1 -33 -2 -34 -2 rrcurveto
          5 24 3 19 13 vvcurveto
          50 -71 45 73 callsubr
          -39 -6 -46 -9 -48 vhcurveto
          -96 -12 -75 -19 -29 vvcurveto
          -29 19 -42 22 11 39 6 9 55 vhcurveto
          -12 -51 -14 -50 -11 -45 rrcurveto
          -82 -12 -60 -18 -26 vvcurveto
          -29 19 -42 22 8 27 4 6 39 vhcurveto
          -3 -16 -2 -14 -11 vvcurveto
          -52 23 -45 26 27 17 64 91 27 vhcurveto
          24 4 26 4 26 3 15 2 15 2 16 2 rrcurveto
          -9 -40 -5 -32 -22 vvcurveto
          -38 15 -40 24 31 26 70 114 33 vhcurveto
          90 11 73 15 33 vvcurveto
          19 -3 17 -86 vhcurveto
          -13 -16 0 -18 hhcurveto
          17 60 17 59 14 50 rrcurveto
          70 11 52 14 28 vvcurveto
          19 -3 17 -85 vhcurveto
          endchar
        </CharString>
        <CharString name="o">
          130 callgsubr
          endchar
        </CharString>
        <CharString name="oacute">
          -104 421 756 -71 callsubr
          6 -406 -59 callgsubr
          endchar
        </CharString>
        <CharString name="ocircumflex">
          -104 404 678 -37 callgsubr
          23 -328 -59 callgsubr
          endchar
        </CharString>
        <CharString name="odieresis">
          -104 297 599 rmoveto
          -38 callsubr
          202 callgsubr
          vhcurveto
          170 hmoveto
          -38 callsubr
          202 callgsubr
          vhcurveto
          -40 -249 -59 callgsubr
          endchar
        </CharString>
        <CharString name="oe">
          164 164 105 rmoveto
          -16 15 -3 36 34 vvcurveto
          80 69 138 70 32 vhcurveto
          20 -20 6 -48 -30 vvcurveto
          -78 -62 -129 -84 -30 vhcurveto
          394 308 78 callsubr
          -153 -184 rmoveto
          -7 30 38 -5 44 hhcurveto
          150 callgsubr
          -50 -54 -33 -49 -47 hvcurveto
          48 -29 -51 35 -61 hhcurveto
          -108 -127 -179 -166 -93 59 -73 71 61 56 29 45 45 hvcurveto
          -45 31 54 -29 74 259 callsubr
          13 2 15 4 16 hvcurveto
          endchar
        </CharString>
        <CharString name="ogonek">
          44 -10 rmoveto
          31 24 12 31 -18 20 -18 20 -29 4 -22 -17 rrcurveto
          -53 -40 -72 -81 105 callsubr
          endchar
        </CharString>
        <CharString name="ograve">
          130 callgsubr
          -141 319 rmoveto
          -31 -31 1 -49 23 -15 107 -71 rcurveline
          -8 callgsubr
          rrcurveto
          endchar
        </CharString>
        <CharString name="ohungarumlaut">
          -104 324 776 -11 callgsubr
          -80 -411 -59 callgsubr
          endchar
        </CharString>
        <CharString name="omacron">
          -104 321 593 rmoveto
          -9 callsubr
          238 callgsubr
          vhcurveto
          106 -243 -59 callgsubr
          endchar
        </CharString>
        <CharString name="one">
          -254 250 323 rmoveto
          24 105 21 93 76 vvcurveto
          23 -86 75 -39 -14 -13 -8 -21 vhcurveto
          -338 -68 -180 -71 vvcurveto
          -37 46 -43 26 43 25 167 159 35 vhcurveto
          endchar
        </CharString>
        <CharString name="onehalf">
          281 162 310 rmoveto
          30 17 117 111 25 hvcurveto
          17 74 14 65 53 vvcurveto
          16 -60 52 -27 -10 -9 -5 -15 vhcurveto
          -236 -48 -126 -50 vvcurveto
          -26 33 -30 18 vhcurveto
          426 474 rmoveto
          -18 4 -4 -11 -11 -16 -168 -242 -303 -407 -15 -63 -6 -26 27 -28 24 -5 21 -6 106 145 132 181 160 220 95 108 13 52 10 39 -42 50 -21 5 rrcurveto
          87 -700 rmoveto
          -36 -71 -10 -11 -53 hvcurveto
          83 42 121 118 102 vvcurveto
          67 -36 54 -81 -78 -57 -58 -43 -15 48 -33 16 vhcurveto
          12 17 54 43 hhcurveto
          15 10 -11 -20 hvcurveto
          -97 -232 -129 -39 vvcurveto
          -32 54 -45 30 59 196 40 39 20 -23 7 -37 vhcurveto
          endchar
        </CharString>
        <CharString name="onequarter">
          255 162 310 rmoveto
          30 17 117 111 25 hvcurveto
          17 74 14 65 53 vvcurveto
          16 -60 52 -27 -10 -9 -5 -15 vhcurveto
          -236 -48 -126 -50 vvcurveto
          -26 33 -30 18 vhcurveto
          426 474 59 callgsubr
          16 -28 22 46 70 284 51 22 -52 42 -20 vhcurveto
          endchar
        </CharString>
        <CharString name="onesuperior">
          -397 168 518 rmoveto
          13 57 11 52 41 vvcurveto
          13 -47 41 -21 -8 -7 -4 -12 vhcurveto
          -186 -38 -99 -39 vvcurveto
          -20 26 -24 14 24 13 92 88 20 vhcurveto
          endchar
        </CharString>
        <CharString name="ordfeminine">
          -38 351 601 rmoveto
          -110 -24 -76 -53 -24 hhcurveto
          -20 -8 7 20 36 56 138 55 21 15 -14 -20 6 hvcurveto
          77 2 rmoveto
          51 -66 68 -56 -125 -72 -204 -65 -43 61 -56 47 40 42 25 37 36 vhcurveto
          -35 11 23 -27 21 hhcurveto
          16 1 40 39 hvcurveto
          45 13 56 18 vvcurveto
          3 -1 4 -1 5 vhcurveto
          6 15 4 15 9 vvcurveto
          endchar
        </CharString>
        <CharString name="ordmasculine">
          -104 427 591 rmoveto
          51 -38 84 -70 -110 -83 -118 -120 -68 47 -62 52 126 76 130 103 vhcurveto
          -216 -99 rmoveto
          57 44 82 60 15 vhcurveto
          20 -11 8 -25 -27 vvcurveto
          -72 -60 -69 -46 -10 vhcurveto
          -18 16 -8 18 26 vvcurveto
          endchar
        </CharString>
        <CharString name="oslash">
          -104 176 93 rmoveto
          -7 -8 4 8 -7 hvcurveto
          50 49 72 74 103 111 rrcurveto
          -86 -14 -96 -160 -93 hhcurveto
          140 347 rmoveto
          11 11 -6 -8 9 hvcurveto
          -35 -39 -40 -47 -48 -52 -34 -37 -34 -37 -29 -34 rrcurveto
          82 2 113 178 74 hhcurveto
          148 -9 rmoveto
          30 33 8 21 12 vvcurveto
          16 -12 11 -17 -18 -21 -12 -22 -24 vhcurveto
          21 -27 -33 13 -37 hhcurveto
          -139 -149 -191 -154 -32 11 -30 16 -25 hvcurveto
          -24 -31 -15 -23 -8 vvcurveto
          -10 4 -9 16 10 15 6 30 34 vhcurveto
          -21 27 31 -13 25 hhcurveto
          151 151 185 152 26 -6 27 -11 23 hvcurveto
          endchar
        </CharString>
        <CharString name="otilde">
          130 callgsubr
          -24 299 rmoveto
          139 callgsubr
          2 callgsubr
          endchar
        </CharString>
        <CharString name="p">
          -26 171 189 rmoveto
          181 61 99 34 25 hhcurveto
          26 6 -34 -26 -85 -124 -125 -110 -13 hvcurveto
          235 402 rmoveto
          -53 -61 -34 -53 -52 hvcurveto
          65 -6 -69 35 -22 hhcurveto
          -21 -6 -11 -19 hvcurveto
          -226 -119 -378 -65 vvcurveto
          -27 35 -56 26 25 35 147 115 27 vhcurveto
          -1 6 6 0 7 hhcurveto
          161 198 198 119 89 -67 102 -50 hvcurveto
          endchar
        </CharString>
        <CharString name="paragraph">
          15 409 693 rmoveto
          59 12 23 5 17 6 -35 -302 -109 -282 -6 -62 rrcurveto
          -27 -2 41 -30 21 hhcurveto
          23 53 178 128 36 hvcurveto
          31 111 34 177 7 72 4 47 -41 59 -23 7 rrcurveto
          5 -11 -18 3 -24 hhcurveto
          -54 -102 -11 -22 -64 hvcurveto
          -116 -40 -74 -150 -107 vvcurveto
          -45 52 -60 47 23 29 16 23 28 vhcurveto
          -42 -166 -47 -128 -4 -40 rrcurveto
          -27 -2 41 -30 22 hhcurveto
          23 52 178 128 36 hvcurveto
          31 111 35 177 6 72 rrcurveto
          endchar
        </CharString>
        <CharString name="parenleft">
          -76 199 259 rmoveto
          367 377 114 75 vvcurveto
          30 -38 39 -33 -99 -331 -258 -352 -223 194 -151 158 22 10 10 13 vhcurveto
          70 -260 28 238 vvcurveto
          endchar
        </CharString>
        <CharString name="parenright">
          -34 -4 -100 rmoveto
          82 369 274 429 144 -110 137 -99 -46 -37 -31 -52 hvcurveto
          -76 165 22 -199 -365 -356 -197 -63 vvcurveto
          -13 10 -10 22 vhcurveto
          endchar
        </CharString>
        <CharString name="partialdiff">
          220 callsubr
          45 618 rmoveto
          260 callgsubr
          48 -48 17 -59 5 -67 232 callsubr
          180 -132 135 -90 hvcurveto
          endchar
        </CharString>
        <CharString name="percent">
          405 9 callsubr
          endchar
        </CharString>
        <CharString name="period">
          -319 40 97 rmoveto
          69 callgsubr
          endchar
        </CharString>
        <CharString name="periodcentered">
          -319 40 343 rmoveto
          69 callgsubr
          endchar
        </CharString>
        <CharString name="perthousand">
          715 9 callsubr
          282 -297 rmoveto
          -17 -10 30 33 51 48 74 28 11 16 -29 -43 -66 -53 -50 -23 hvcurveto
          58 297 rmoveto
          -104 -89 -150 -89 -79 48 -87 65 107 95 122 109 61 -41 113 -81 hvcurveto
          endchar
        </CharString>
        <CharString name="pi">
          269 817 508 rmoveto
          57 -93 13 -133 -117 -379 -12 -52 -31 39 -54 28 41 36 5 5 47 vhcurveto
          -5 -50 -5 -66 -16 -58 rrcurveto
          -49 -178 -55 19 -33 vvcurveto
          -33 34 -27 45 68 101 214 193 10 -2 10 -4 9 vhcurveto
          38 3 43 2 53 1 rrcurveto
          -22 -71 -12 -88 -69 vvcurveto
          -132 73 -82 74 29 24 11 22 vhcurveto
          48 -84 -7 140 vvcurveto
          127 28 56 15 47 vhcurveto
          94 2 66 12 37 vvcurveto
          endchar
        </CharString>
        <CharString name="plus">
          44 263 383 rmoveto
          -7 -81 -73 -1 279 callsubr
          29 47 1 3 55 hvcurveto
          -11 -61 -11 -43 -20 vvcurveto
          -37 46 -43 26 22 12 46 159 35 vhcurveto
          2 9 rlineto
          126 14 120 25 45 vvcurveto
          21 -43 6 -60 -23 -47 -2 -2 -48 vhcurveto
          11 49 7 38 23 vvcurveto
          23 -70 71 -39 -14 -13 -8 -21 -68 -5 -62 -6 -53 vhcurveto
          endchar
        </CharString>
        <CharString name="plusminus">
          44 266 147 rmoveto
          -6 -72 -66 -1 -21 hhcurveto
          -18 -9 -7 -15 -28 33 -45 38 98 346 16 72 46 -258 -25 -71 -7 hvcurveto
          45 337 rmoveto
          -7 -71 -66 -1 -21 hhcurveto
          -19 -8 -6 -15 -29 36 -56 37 25 42 1 4 48 hvcurveto
          -10 -56 -10 -38 -18 vvcurveto
          -33 46 -39 24 19 21 68 115 26 vhcurveto
          3 12 rlineto
          109 14 102 24 39 vvcurveto
          23 -37 9 -64 -18 -33 -1 -2 -38 vhcurveto
          7 37 4 29 18 vvcurveto
          21 -68 63 -35 -12 -12 -8 -18 -55 -3 -49 -5 -44 vhcurveto
          endchar
        </CharString>
        <CharString name="product">
          -57 366 800 rmoveto
          -139 -104 -2 -59 hvcurveto
          -177 -98 -398 -65 vvcurveto
          -27 45 -56 20 48 102 525 134 vhcurveto
          16 65 74 8 80 hhcurveto
          -9 -164 -86 -374 -62 vvcurveto
          -27 45 -56 20 49 101 531 109 120 -47 24 -166 vhcurveto
          endchar
        </CharString>
        <CharString name="q">
          -67 428 -53 rmoveto
          -19 -36 -11 -17 -34 hvcurveto
          68 183 68 150 33 vvcurveto
          22 -69 41 -16 -17 -8 -4 -12 -3 vhcurveto
          -129 -30 -124 -77 -46 316 callgsubr
          133 205 95 hvcurveto
          31 27 -42 24 hhcurveto
          16 7 12 14 47 -65 79 -65 -154 -153 -266 -105 -57 74 -82 57 27 42 15 31 40 hvcurveto
          -46 -120 -37 -94 -20 vvcurveto
          -31 29 -47 25 27 53 54 46 74 vhcurveto
          45 28 23 16 18 vvcurveto
          15 -18 23 -22 vhcurveto
          endchar
        </CharString>
        <CharString name="question">
          40 551 642 rmoveto
          98 -71 58 -94 -84 -87 -71 -78 -25 48 -49 16 11 14 8 4 7 vhcurveto
          11 7 0 11 19 vvcurveto
          28 26 22 34 26 25 -16 -29 vhcurveto
          -95 -184 -75 -129 vvcurveto
          -47 10 -39 23 30 15 54 46 22 vhcurveto
          44 93 158 79 126 vvcurveto
          -386 -545 rmoveto
          -35 61 -62 38 19 24 24 15 31 -48 100 -30 -30 -34 -43 -30 vhcurveto
          endchar
        </CharString>
        <CharString name="questiondown">
          -165 -5 54 rmoveto
          -98 71 -58 94 84 87 71 78 25 -48 49 -16 -11 -14 -8 -4 -7 vhcurveto
          -11 -7 0 -11 -19 vvcurveto
          -28 -26 -22 -34 -26 -25 16 29 vhcurveto
          95 184 75 129 vvcurveto
          47 -10 39 -23 -30 -15 -54 -46 -22 vhcurveto
          -44 -93 -158 -79 -126 vvcurveto
          386 545 rmoveto
          35 -61 62 -38 -19 -24 -24 -15 -31 48 -100 30 30 34 43 30 vhcurveto
          endchar
        </CharString>
        <CharString name="quotedbl">
          -117 206 817 rmoveto
          233 callgsubr
          198 hmoveto
          233 callgsubr
          endchar
        </CharString>
        <CharString name="quotedblbase">
          44 25 -211 93 callgsubr
        </CharString>
        <CharString name="quotedblleft">
          -7 523 871 rmoveto
          147 callgsubr
          -239 hmoveto
          147 callgsubr
          endchar
        </CharString>
        <CharString name="quotedblright">
          -7 178 535 rmoveto
          148 callsubr
          239 hmoveto
          148 callsubr
          endchar
        </CharString>
        <CharString name="quoteleft">
          -246 284 871 rmoveto
          147 callgsubr
          endchar
        </CharString>
        <CharString name="quoteright">
          -246 178 535 rmoveto
          148 callsubr
          endchar
        </CharString>
        <CharString name="quotesinglbase">
          44 25 -211 93 callgsubr
        </CharString>
        <CharString name="quotesingle">
          -315 251 817 rmoveto
          13 -62 41 -21 -8 -7 -4 -12 vhcurveto
          -122 -28 -125 -29 vvcurveto
          -20 30 -24 14 vhcurveto
          37 -15 45 260 37 vvcurveto
          endchar
        </CharString>
        <CharString name="r">
          -230 346 523 60 callsubr
        </CharString>
        <CharString name="racute">
          -230 346 523 64 callgsubr
          -112 140 24 callgsubr
        </CharString>
        <CharString name="radical">
          34 320 -10 rmoveto
          -24 127 2 141 -19 36 rrcurveto
          35 -18 -38 26 -39 hhcurveto
          -56 -93 -101 -67 -15 9 -9 13 34 42 65 13 35 hvcurveto
          17 -105 39 -169 26 -62 rrcurveto
          -29 12 51 -31 18 hhcurveto
          53 52 180 188 75 hvcurveto
          84 211 90 168 31 vvcurveto
          25 -41 23 -31 -56 -127 -343 -338 -110 vhcurveto
          endchar
        </CharString>
        <CharString name="rcaron">
          -230 222 548 -25 callsubr
          124 -25 60 callsubr
        </CharString>
        <CharString name="registered">
          211 381 380 rmoveto
          7 25 2 15 14 vvcurveto
          6 -2 7 -4 7 vhcurveto
          4 10 11 3 13 hhcurveto
          26 9 -2 -11 -28 -42 -21 -30 -19 hvcurveto
          -17 -63 rmoveto
          -44 25 62 -61 42 hhcurveto
          17 8 9 9 14 -33 22 -26 23 hvcurveto
          -22 20 -14 19 11 10 95 36 66 vvcurveto
          43 -37 29 -80 -41 -58 -23 -17 -8 12 -20 14 -10 vhcurveto
          -7 -87 -38 -78 -27 vvcurveto
          -14 25 -27 13 12 11 41 52 16 vhcurveto
          -24 -177 rmoveto
          277 callsubr
          -181 -108 -102 -175 hvcurveto
          115 532 rmoveto
          289 callsubr
          287 callsubr
          hvcurveto
          endchar
        </CharString>
        <CharString name="ring">
          59 766 151 callgsubr
          endchar
        </CharString>
        <CharString name="s">
          -101 443 403 -7 callsubr
          endchar
        </CharString>
        <CharString name="sacute">
          -101 391 756 -71 callsubr
          52 -353 -7 callsubr
          endchar
        </CharString>
        <CharString name="scaron">
          -101 417 726 -39 callgsubr
          26 -323 -7 callsubr
          endchar
        </CharString>
        <CharString name="section">
          -46 259 196 rmoveto
          -41 34 -38 32 43 vvcurveto
          53 57 36 52 25 vhcurveto
          39 -37 34 -37 -37 vvcurveto
          -59 -46 -42 -57 -11 vhcurveto
          109 484 rmoveto
          42 -1 -107 291 callsubr
          -59 58 -63 -80 -140 -96 -100 -35 20 -32 28 -31 hvcurveto
          -74 -41 -79 -76 -72 -132 185 -52 -83 vvcurveto
          -34 -23 -26 -49 -32 -25 19 27 -20 vhcurveto
          25 -19 -14 29 -19 hhcurveto
          -20 -24 -53 -32 -41 73 -79 100 132 62 88 71 40 -16 32 -22 28 hvcurveto
          89 26 69 64 70 161 -203 86 60 vvcurveto
          40 41 40 46 vhcurveto
          endchar
        </CharString>
        <CharString name="semicolon">
          -250 122 440 197 callsubr
          -97 -651 93 callgsubr
        </CharString>
        <CharString name="seven">
          -56 409 626 rmoveto
          10 -13 -60 4 -68 hhcurveto
          -108 -129 -12 -25 -25 65 -92 35 hvcurveto
          46 60 16 41 hhcurveto
          22 16 -2 -9 hvcurveto
          -51 -189 -275 -88 vvcurveto
          -37 37 -40 27 42 72 161 98 52 vhcurveto
          52 98 63 105 38 vvcurveto
          45 -34 58 -29 23 vhcurveto
          endchar
        </CharString>
        <CharString name="six">
          -14 221 162 rmoveto
          -22 -5 15 23 32 24 45 34 49 hvcurveto
          52 -14 52 -27 -28 vvcurveto
          -32 -75 -63 -60 vhcurveto
          88 241 rmoveto
          73 91 79 86 22 vvcurveto
          22 -54 34 -32 -59 -254 -313 -148 -101 42 -58 98 136 151 127 102 62 -84 59 -96 15 vhcurveto
          endchar
        </CharString>
        <CharString name="slash">
          -253 70 -79 rmoveto
          21 70 165 206 85 hvcurveto
          104 252 68 127 54 vvcurveto
          40 -62 74 -22 -19 -1 -12 -18 -7 vhcurveto
          -106 -274 -200 -466 -65 vvcurveto
          -27 43 -56 26 vhcurveto
          endchar
        </CharString>
        <CharString name="space">
          -256 endchar
        </CharString>
        <CharString name="sterling">
          154 164 103 rmoveto
          -14 -22 33 16 18 9 14 24 16 17 -13 -19 20 hvcurveto
          -35 -21 -19 -14 -10 hhcurveto
          253 211 rmoveto
          99 8 115 18 38 vvcurveto
          26 -42 4 -70 -27 -24 0 1 -21 vhcurveto
          134 44 21 27 30 hhcurveto
          25 10 -19 -22 hvcurveto
          -19 -5 -7 -16 vvcurveto
          -14 4 -9 15 26 59 47 36 70 -54 80 -73 -124 -63 -92 -189 -57 vhcurveto
          3 -30 -23 3 -39 hhcurveto
          -18 -32 -45 -34 -28 47 -6 66 -1 hvcurveto
          -7 -25 -8 -23 -7 -20 rrcurveto
          23 -31 -35 16 -44 hhcurveto
          -78 -50 -61 -48 -79 97 -80 42 57 47 23 36 38 hvcurveto
          -38 44 54 -32 69 hhcurveto
          75 148 71 61 34 -22 30 -35 hvcurveto
          -42 -53 -92 -85 hhcurveto
          -36 -30 18 25 -28 hvcurveto
          16 29 13 31 10 33 rrcurveto
          endchar
        </CharString>
        <CharString name="summation">
          277 486 359 rmoveto
          0 vlineto
          6 -1 5 -3 4 vhcurveto
          13 -7 -17 8 -31 -12 -109 -15 -51 hhcurveto
          -37 -20 1 17 36 162 149 107 hvcurveto
          24 -5 -15 17 hhcurveto
          12 18 34 25 35 -19 38 -51 hvcurveto
          -123 -1 -272 -191 -122 vvcurveto
          -53 51 -33 83 -8 vhcurveto
          -86 -61 -76 -80 -69 vvcurveto
          -34 70 -46 74 73 129 6 26 76 vhcurveto
          59 20 23 21 23 vvcurveto
          21 -18 19 -42 vhcurveto
          -52 -62 -34 -144 hhcurveto
          -21 -20 1 12 20 38 36 71 55 hvcurveto
          64 50 118 48 9 29 rrcurveto
          1 1 0 1 1 vvcurveto
          endchar
        </CharString>
        <CharString name="t">
          -192 243 412 rmoveto
          243 callsubr
          -25 -27 -1 -1 -26 vhcurveto
          14 callgsubr
          endchar
        </CharString>
        <CharString name="tcaron">
          -60 347 510 rmoveto
          -25 -27 -1 -1 -26 hvcurveto
          14 callgsubr
          243 callsubr
          vhcurveto
          57 268 rmoveto
          -40 callsubr
          98 callgsubr
          vhcurveto
          endchar
        </CharString>
        <CharString name="thorn">
          -30 176 218 rmoveto
          10 41 11 45 10 46 rrcurveto
          25 36 55 20 29 hhcurveto
          41 37 -24 -41 -81 -142 -70 -69 hvcurveto
          -10 -9 1 -8 hhcurveto
          175 329 rmoveto
          -30 -39 -9 -13 -37 hvcurveto
          18 87 12 74 27 72 callgsubr
          vhcurveto
          -264 -171 -547 -65 220 callgsubr
          15 44 163 133 33 vhcurveto
          -9 15 19 -4 20 hhcurveto
          118 196 111 132 83 -112 100 -59 hvcurveto
          endchar
        </CharString>
        <CharString name="three">
          -61 146 333 rmoveto
          0 vlineto
          -3 vlineto
          6 -70 175 44 -62 -80 -330 -57 -41 vvcurveto
          -22 25 -17 71 158 220 101 115 60 -52 43 -85 20 vhcurveto
          77 53 73 77 49 vvcurveto
          67 -63 70 -82 -79 -147 -54 -50 -19 53 -59 21 vhcurveto
          35 61 66 59 hhcurveto
          8 6 -3 -9 -70 -195 -82 -14 -60 hvcurveto
          -1 -2 0 -2 -2 vvcurveto
          endchar
        </CharString>
        <CharString name="threequarters">
          381 194 557 rmoveto
          0 vlineto
          -2 vlineto
          6 -49 121 30 -43 -56 -231 -40 -28 vvcurveto
          -16 17 -12 50 111 154 71 81 41 -37 31 -59 13 vhcurveto
          53 38 52 54 34 vvcurveto
          47 -44 49 -58 -55 -103 -38 -35 -13 37 -41 15 vhcurveto
          24 43 46 41 hhcurveto
          6 4 -2 -7 -49 -134 -56 -12 -42 hvcurveto
          -1 -2 0 -1 -2 vvcurveto
          525 226 59 callgsubr
          11 -28 22 46 70 284 51 22 -47 42 -20 vhcurveto
          endchar
        </CharString>
        <CharString name="threesuperior">
          -253 127 523 rmoveto
          0 vlineto
          -2 vlineto
          6 -38 94 24 -34 -44 -182 -31 -23 vvcurveto
          -12 14 -9 39 87 121 55 64 33 -28 23 -47 11 vhcurveto
          42 30 40 42 27 vvcurveto
          37 -34 38 -46 -43 -81 -30 -27 -11 29 -32 12 vhcurveto
          19 34 36 32 hhcurveto
          5 3 -1 -5 -39 -105 -44 -10 -33 hvcurveto
          -1 -1 0 -2 -1 vvcurveto
          endchar
        </CharString>
        <CharString name="tilde">
          -27 739 rmoveto
          139 callgsubr
          2 callgsubr
          endchar
        </CharString>
        <CharString name="trademark">
          175 326 634 rmoveto
          21 -44 27 -92 -81 -65 -2 -16 -15 24 -29 14 20 14 2 1 30 vhcurveto
          -10 -77 -34 -92 -25 vvcurveto
          -13 28 -25 13 9 8 31 46 12 vhcurveto
          10 42 26 80 4 33 rrcurveto
          -1 40 23 -1 22 hhcurveto
          19 10 6 7 hvcurveto
          314 43 rmoveto
          -25 -68 -86 -56 -56 hvcurveto
          -22 40 -20 56 16 vvcurveto
          12 -48 27 -10 -10 -3 -5 -9 vhcurveto
          -47 -59 -163 -29 vvcurveto
          -12 25 -31 11 10 12 41 51 17 vhcurveto
          7 20 6 22 6 15 15 -27 9 -19 10 -9 rrcurveto
          -9 9 18 -6 9 hhcurveto
          31 38 56 38 41 hvcurveto
          -19 -41 -13 -60 -27 vvcurveto
          -22 15 -23 13 18 5 38 77 24 vhcurveto
          18 59 21 53 29 vvcurveto
          14 -20 17 -15 vhcurveto
          endchar
        </CharString>
        <CharString name="two">
          27 250 467 rmoveto
          17 25 77 61 hhcurveto
          22 14 -16 -28 hvcurveto
          -138 -331 -185 -55 vvcurveto
          -46 76 -64 44 84 280 57 55 29 -33 10 -53 -50 -103 -14 -16 -74 vhcurveto
          119 62 171 166 146 vvcurveto
          96 -51 77 -116 -112 -81 -83 -61 -22 68 -47 23 vhcurveto
          endchar
        </CharString>
        <CharString name="twosuperior">
          -229 178 597 rmoveto
          9 14 42 33 hhcurveto
          12 8 -9 -15 hvcurveto
          -76 -182 -102 -30 vvcurveto
          -25 42 -35 24 46 154 31 30 16 -18 6 -29 -28 -56 -8 -9 -41 vhcurveto
          65 34 94 92 80 vvcurveto
          53 -28 42 -63 -62 -45 -46 -33 -12 38 -26 13 vhcurveto
          endchar
        </CharString>
        <CharString name="u">
          -77 482 412 -73 callsubr
          endchar
        </CharString>
        <CharString name="uacute">
          -77 482 412 -73 callsubr
          -54 608 24 callgsubr
        </CharString>
        <CharString name="ucircumflex">
          -77 193 566 37 callsubr
          289 -154 -73 callsubr
          endchar
        </CharString>
        <CharString name="udieresis">
          -77 427 562 rmoveto
          18 22 22 15 -38 callsubr
          hvcurveto
          -170 hmoveto
          18 22 22 15 -38 callsubr
          hvcurveto
          225 -150 -73 callsubr
          endchar
        </CharString>
        <CharString name="ugrave">
          -77 243 593 rmoveto
          -8 callgsubr
          -31 -31 1 -49 23 -15 rrcurveto
          346 -252 -73 callsubr
          endchar
        </CharString>
        <CharString name="uhungarumlaut">
          -77 341 677 rmoveto
          17 22 0 52 -34 25 -25 18 -33 -5 -14 -31 -46 -103 rcurveline
          -16 -37 -6 -40 24 -19 21 -17 35 35 19 25 rrcurveto
          199 -190 -73 callsubr
          7 602 rmoveto
          -21 -35 -10 -39 22 -22 19 -19 37 32 23 22 68 65 rcurveline
          20 19 5 53 -31 28 -23 21 -33 -1 -18 -29 rrcurveto
          endchar
        </CharString>
        <CharString name="umacron">
          -77 182 571 rmoveto
          238 callgsubr
          hvcurveto
          -9 callsubr
          vhcurveto
          300 -159 -73 callsubr
          endchar
        </CharString>
        <CharString name="underscore">
          60 579 28 rmoveto
          15 -15 10 -25 7 vhcurveto
          15 -53 -96 1 -80 hhcurveto
          -144 -136 -9 -31 -33 30 -42 23 29 71 8 5 74 hvcurveto
          176 11 146 3 40 vvcurveto
          endchar
        </CharString>
        <CharString name="uni00A0">
          endchar
        </CharString>
        <CharString name="uni00AD">
          44 200 callsubr
        </CharString>
        <CharString name="uni00B5">
          -77 404 523 rmoveto
          -16 -7 -7 -19 -5 hvcurveto
          -137 -37 -147 -234 -54 hhcurveto
          -7 -3 6 9 hvcurveto
          106 73 168 63 vvcurveto
          18 -47 27 -24 -43 -33 -196 -168 -55 vhcurveto
          -63 -193 -62 -101 -21 vvcurveto
          -20 38 -24 29 27 74 179 72 32 vhcurveto
          -20 6 22 -18 27 hhcurveto
          53 65 76 75 49 hvcurveto
          -8 -36 -6 -35 -25 vvcurveto
          -41 20 -14 22 20 14 11 31 10 vhcurveto
          115 360 1 -1 6 vvcurveto
          37 -49 66 -31 vhcurveto
          endchar
        </CharString>
        <CharString name="uni0122">
          6 191 -12 rmoveto
          -40 callsubr
          98 callgsubr
          vhcurveto
          233 361 3 callsubr
          endchar
        </CharString>
        <CharString name="uni0123">
          -85 334 553 rmoveto
          26 42 34 24 26 -29 17 -31 4 hvcurveto
          24 46 66 21 35 vvcurveto
          20 -16 7 -15 -69 -90 -81 -70 -38 41 -45 51 vhcurveto
          -211 -406 148 callgsubr
          286 166 rmoveto
          47 callsubr
          14 -6 12 -8 10 vhcurveto
          endchar
        </CharString>
        <CharString name="uni0136">
          -9 238 -12 rmoveto
          -40 callsubr
          98 callgsubr
          vhcurveto
          -127 25 85 callgsubr
        </CharString>
        <CharString name="uni0137">
          -61 255 -12 rmoveto
          -40 callsubr
          98 callgsubr
          vhcurveto
          256 454 110 callsubr
        </CharString>
        <CharString name="uni013B">
          -60 299 596 11 callgsubr
          -172 -842 rmoveto
          98 callgsubr
          -40 callsubr
          vhcurveto
          endchar
        </CharString>
        <CharString name="uni013C">
          -322 205 329 25 callsubr
          -227 -610 rmoveto
          98 callgsubr
          -40 callsubr
          vhcurveto
          endchar
        </CharString>
        <CharString name="uni0145">
          81 627 586 -48 callsubr
          -442 -832 rmoveto
          98 callgsubr
          -40 callsubr
          vhcurveto
          endchar
        </CharString>
        <CharString name="uni0146">
          -10 216 -12 rmoveto
          -40 callsubr
          98 callgsubr
          vhcurveto
          175 535 -57 callgsubr
        </CharString>
        <CharString name="uni0156">
          -33 234 -12 rmoveto
          -40 callsubr
          98 callgsubr
          vhcurveto
          -16 378 -44 callgsubr
          endchar
        </CharString>
        <CharString name="uni0157">
          -230 61 -12 rmoveto
          -40 callsubr
          98 callgsubr
          vhcurveto
          285 535 60 callsubr
        </CharString>
        <CharString name="uni015E">
          -66 354 541 rmoveto
          64 27 77 -3 27 vvcurveto
          34 -30 47 -46 -77 -118 -54 -60 -62 vhcurveto
          -19 -18 -15 -50 -35 -68 200 -126 -55 vvcurveto
          -34 -79 -55 -62 vhcurveto
          -84 -24 79 -48 hhcurveto
          -18 -8 -18 -25 -47 53 -67 90 -21 hvcurveto
          -17 -38 -18 -33 -18 16 callsubr
          9 15 8 15 6 14 rrcurveto
          120 10 97 78 96 127 -202 108 37 vvcurveto
          21 38 21 68 29 vhcurveto
          endchar
        </CharString>
        <CharString name="uni015F">
          -101 336 522 rmoveto
          -66 -177 -100 -77 hvcurveto
          -87 182 -52 -62 vvcurveto
          -19 -41 -10 -42 vhcurveto
          -101 -19 43 -33 hhcurveto
          -18 -11 -13 -25 -31 47 -47 75 -20 hvcurveto
          -18 -40 -19 -33 -19 16 callsubr
          9 14 7 16 6 13 rrcurveto
          104 4 81 68 52 114 -175 50 37 vvcurveto
          42 99 25 23 vhcurveto
          36 15 -24 26 hhcurveto
          13 7 8 14 41 -55 78 -52 hvcurveto
          endchar
        </CharString>
        <CharString name="uni0162">
          -97 303 662 236 callgsubr
          -10 7 -15 10 -13 vhcurveto
          -1 -2 0 -1 -1 -2 rrcurveto
          -19 -55 -31 -47 -24 16 callsubr
          16 27 14 30 4 17 13 34 14 63 18 77 rrcurveto
          38 159 30 110 38 vvcurveto
          6 -1 6 -1 6 vhcurveto
          -2 86 51 -4 46 hhcurveto
          38 19 14 15 41 -77 55 -184 hvcurveto
          endchar
        </CharString>
        <CharString name="uni0163">
          -192 243 412 rmoveto
          243 callsubr
          -25 -27 -1 -1 -26 vhcurveto
          8 37 6 31 20 vvcurveto
          249 callsubr
          -50 -7 -54 -11 -53 vhcurveto
          -84 -12 -65 -19 -20 vvcurveto
          -29 33 -42 28 12 20 4 7 27 vhcurveto
          -34 -120 -41 -105 -46 vvcurveto
          -22 15 -23 20 -18 vhcurveto
          -19 -52 -29 -45 -23 16 callsubr
          9 15 8 15 6 14 rrcurveto
          -1 2 3 0 3 hhcurveto
          96 102 82 43 251 callsubr
          hvcurveto
          -25 -83 -44 -47 hhcurveto
          -11 -4 2 8 12 17 55 22 69 hvcurveto
          14 45 16 52 15 49 rrcurveto
          endchar
        </CharString>
        <CharString name="uni0218">
          -66 206 13 -17 callsubr
          -89 -259 rmoveto
          98 callgsubr
          -40 callsubr
          vhcurveto
          endchar
        </CharString>
        <CharString name="uni0219">
          -101 443 403 -7 callsubr
          -358 -649 rmoveto
          98 callgsubr
          -40 callsubr
          vhcurveto
          endchar
        </CharString>
        <CharString name="uni021A">
          -97 130 -12 rmoveto
          -40 callsubr
          98 callgsubr
          vhcurveto
          173 674 37 callgsubr
        </CharString>
        <CharString name="uni021B">
          -192 115 -12 rmoveto
          -40 callsubr
          98 callgsubr
          vhcurveto
          128 424 rmoveto
          243 callsubr
          -25 -27 -1 -1 -26 vhcurveto
          14 callgsubr
          endchar
        </CharString>
        <CharString name="uni02C9">
          34 593 rmoveto
          -9 callsubr
          238 callgsubr
          vhcurveto
          endchar
        </CharString>
        <CharString name="uni0901">
          71 932 rmoveto
          40 -44 91 -34 67 callgsubr
          vhcurveto
          -247 52 164 callgsubr
        </CharString>
        <CharString name="uni0902">
          33 758 rmoveto
          40 -44 91 -34 67 callgsubr
          vhcurveto
          endchar
        </CharString>
        <CharString name="uni0902.aMatraI">
          81 754 rmoveto
          40 -44 91 -34 67 callgsubr
          vhcurveto
          endchar
        </CharString>
        <CharString name="uni0903">
          -322 214 339 rmoveto
          40 -44 91 -34 67 callgsubr
          vhcurveto
          -53 -267 rmoveto
          40 -44 91 -34 67 callgsubr
          vhcurveto
          endchar
        </CharString>
        <CharString name="uni0905">
          357 754 662 rmoveto
          -96 callsubr
          40 28 18 27 34 -47 29 -64 hvcurveto
          endchar
        </CharString>
        <CharString name="uni0906">
          645 987 662 rmoveto
          -4 -5 318 callsubr
          -5 0 -5 hhcurveto
          -205 hlineto
          -96 callsubr
          4 4 306 callgsubr
          9 hhcurveto
          33 callgsubr
        </CharString>
        <CharString name="uni0907">
          -7 143 161 rmoveto
          15 9 9 19 30 22 -26 -42 22 vhcurveto
          -83 3 -19 23 18 vvcurveto
          -50 162 callsubr
          260 -2 hlineto
          -25 0 -27 1 -25 vhcurveto
          13 -34 -41 -59 callsubr
          160 -208 29 46 vvcurveto
          11 7 4 17 vhcurveto
          67 41 -39 31 hhcurveto
          6 4 1 1 4 hvcurveto
          2 1 2 1 2 2 3 2 2 3 2 4 rrcurveto
          17 30 9 76 53 vvcurveto
          9 -1 8 -2 7 vhcurveto
          121 -107 callsubr
        </CharString>
        <CharString name="uni0908">
          -20 callsubr
          endchar
        </CharString>
        <CharString name="uni09080902">
          -20 callsubr
          206 90 rmoveto
          -28 49 -51 30 15 9 13 17 32 -35 72 -26 -20 -22 -29 -26 vhcurveto
          endchar
        </CharString>
        <CharString name="uni0909">
          88 87 -75 callgsubr
          205 72 callsubr
          45 -24 34 -35 24 vhcurveto
          51 47 36 62 60 vvcurveto
          21 -3 20 -5 18 vhcurveto
          121 -107 callsubr
        </CharString>
        <CharString name="uni090A">
          379 83 -75 callgsubr
          209 72 callsubr
          28 -10 25 -16 20 vhcurveto
          23 31 35 28 60 hhcurveto
          57 26 -32 -49 -66 -45 -101 -89 -10 -4 -2 -8 -29 37 -37 48 84 91 132 125 92 -75 80 -104 -34 -35 -8 -12 -31 hvcurveto
          8 20 4 22 21 vvcurveto
          21 -3 20 -5 18 vhcurveto
          405 -107 callsubr
        </CharString>
</ttFont>
